<svg width="100" height="20" viewBox="0 0 100 20" fill="none" xmlns="http://www.w3.org/2000/svg">
<g clip-path="url(#clip0_2_1944)">
<path d="M99.75 7.9375H92.5938L90.375 1L88.1562 7.9375H81L86.7812 12.2188L84.5938 19.125L90.375 14.8438L96.1562 19.125L93.9375 12.1875L99.75 7.9375Z" fill="#787878"/>
<path d="M93.5491 7.9375H92.5937L90.375 1L88.1562 7.9375H81L86.7812 12.2188L84.5937 19.125L90.375 14.8438L93.5491 17.2V12.2188V7.9375Z" fill="#FFCE31"/>
<g clip-path="url(#clip1_2_1944)">
<path d="M19.375 7.875H12.2188L10 0.9375L7.78125 7.875H0.625L6.40625 12.1562L4.21875 19.0625L10 14.7812L15.7812 19.0625L13.5625 12.125L19.375 7.875Z" fill="#FFCE31"/>
</g>
<g clip-path="url(#clip2_2_1944)">
<path d="M39.375 7.875H32.2188L30 0.9375L27.7812 7.875H20.625L26.4062 12.1562L24.2188 19.0625L30 14.7812L35.7812 19.0625L33.5625 12.125L39.375 7.875Z" fill="#FFCE31"/>
</g>
<g clip-path="url(#clip3_2_1944)">
<path d="M59.375 7.875H52.2188L50 0.9375L47.7812 7.875H40.625L46.4062 12.1562L44.2188 19.0625L50 14.7812L55.7812 19.0625L53.5625 12.125L59.375 7.875Z" fill="#FFCE31"/>
</g>
<g clip-path="url(#clip4_2_1944)">
<path d="M79.375 7.875H72.2188L70 0.9375L67.7812 7.875H60.625L66.4062 12.1562L64.2188 19.0625L70 14.7812L75.7812 19.0625L73.5625 12.125L79.375 7.875Z" fill="#FFCE31"/>
</g>
</g>
<defs>
<clipPath id="clip0_2_1944">
<rect width="100" height="20" fill="white"/>
</clipPath>
<clipPath id="clip1_2_1944">
<rect width="20" height="20" fill="white"/>
</clipPath>
<clipPath id="clip2_2_1944">
<rect width="20" height="20" fill="white" transform="translate(20)"/>
</clipPath>
<clipPath id="clip3_2_1944">
<rect width="20" height="20" fill="white" transform="translate(40)"/>
</clipPath>
<clipPath id="clip4_2_1944">
<rect width="20" height="20" fill="white" transform="translate(60)"/>
</clipPath>
</defs>
</svg>
