<svg width="250" height="305" viewBox="0 0 250 305" fill="none" xmlns="http://www.w3.org/2000/svg">
<g filter="url(#filter0_d_2_380)">
<rect x="7.22473" y="0.77832" width="235.556" height="289.778" rx="26.6667" fill="white"/>
<rect x="7.66918" y="1.22276" width="234.667" height="288.889" rx="26.2222" stroke="#E2E6F5" stroke-width="0.888889"/>
</g>
<rect x="25.3353" y="19.0001" width="199.111" height="124.444" rx="17.3333" fill="white" stroke="#D8DDEB" stroke-width="0.888889"/>
<path d="M73.0023 47.694V55.6391C73.0023 56.7592 73.9103 57.6672 75.0304 57.6672H94.9062C96.0263 57.6672 96.9344 56.7592 96.9344 55.6391V47.694M84.9683 40.7783H75.0304C73.9103 40.7783 73.0023 41.6863 73.0023 42.8065V43.0919C73.0023 43.7322 73.3047 44.3349 73.818 44.7177L83.4527 51.9029C84.3519 52.5735 85.5848 52.5735 86.4839 51.9029L96.1187 44.7177C96.632 44.3349 96.9344 43.7322 96.9344 43.0919V42.8065C96.9344 41.6863 96.0263 40.7783 94.9062 40.7783H84.9683Z" stroke="url(#paint0_linear_2_380)" stroke-width="1.45043" stroke-linecap="round"/>
<path d="M73.0023 83.2496V91.1947C73.0023 92.3148 73.9103 93.2229 75.0304 93.2229H94.9062C96.0263 93.2229 96.9344 92.3148 96.9344 91.1947V83.2496M84.9683 76.334H75.0304C73.9103 76.334 73.0023 77.242 73.0023 78.3621V78.6475C73.0023 79.2878 73.3047 79.8906 73.818 80.2733L83.4527 87.4586C84.3519 88.1292 85.5848 88.1292 86.4839 87.4586L96.1187 80.2733C96.632 79.8906 96.9344 79.2878 96.9344 78.6475V78.3621C96.9344 77.242 96.0263 76.334 94.9062 76.334H84.9683Z" stroke="url(#paint1_linear_2_380)" stroke-width="1.45043" stroke-linecap="round"/>
<path d="M73.0023 119.694V127.639C73.0023 128.759 73.9103 129.667 75.0304 129.667H94.9062C96.0263 129.667 96.9344 128.759 96.9344 127.639V119.694M84.9683 112.778H75.0304C73.9103 112.778 73.0023 113.686 73.0023 114.806V115.092C73.0023 115.732 73.3047 116.335 73.818 116.718L83.4527 123.903C84.3519 124.573 85.5848 124.573 86.4839 123.903L96.1187 116.718C96.632 116.335 96.9344 115.732 96.9344 115.092V114.806C96.9344 113.686 96.0263 112.778 94.9062 112.778H84.9683Z" stroke="url(#paint2_linear_2_380)" stroke-width="1.45043" stroke-linecap="round"/>
<g filter="url(#filter1_d_2_380)">
<path d="M165.598 60.2353C171.879 60.2353 176.97 55.144 176.97 48.8637C176.97 42.5834 171.879 37.4922 165.598 37.4922C159.318 37.4922 154.227 42.5834 154.227 48.8637C154.227 55.144 159.318 60.2353 165.598 60.2353Z" fill="url(#paint3_linear_2_380)"/>
<path d="M163.975 53.7373C163.545 53.7372 163.132 53.566 162.827 53.2613L161.202 51.6368C160.907 51.3304 160.743 50.92 160.746 50.4941C160.75 50.0682 160.921 49.6607 161.222 49.3595C161.523 49.0583 161.931 48.8875 162.357 48.8838C162.783 48.8801 163.193 49.0438 163.499 49.3397L163.8 49.6403L167.549 44.64C167.677 44.4694 167.838 44.3256 168.021 44.2169C168.205 44.1082 168.408 44.0367 168.619 44.0066C168.83 43.9764 169.046 43.9881 169.252 44.0411C169.459 44.094 169.653 44.1871 169.824 44.3151C169.994 44.4431 170.138 44.6035 170.247 44.7871C170.356 44.9706 170.427 45.1738 170.457 45.385C170.487 45.5962 170.476 45.8113 170.423 46.0179C170.37 46.2246 170.277 46.4188 170.149 46.5894L165.275 53.0875C165.136 53.2744 164.958 53.4292 164.754 53.5413C164.549 53.6534 164.323 53.7203 164.091 53.7373H163.975Z" fill="white"/>
</g>
<g filter="url(#filter2_d_2_380)">
<path d="M165.598 95.9755C171.879 95.9755 176.97 90.8843 176.97 84.604C176.97 78.3236 171.879 73.2324 165.598 73.2324C159.318 73.2324 154.227 78.3236 154.227 84.604C154.227 90.8843 159.318 95.9755 165.598 95.9755Z" fill="url(#paint4_linear_2_380)"/>
<path d="M163.975 89.4775C163.545 89.4774 163.132 89.3062 162.827 89.0015L161.202 87.377C160.907 87.0706 160.743 86.6603 160.746 86.2343C160.75 85.8084 160.921 85.4009 161.222 85.0998C161.523 84.7986 161.931 84.6277 162.357 84.624C162.783 84.6203 163.193 84.784 163.499 85.08L163.8 85.3805L167.549 80.3803C167.677 80.2096 167.838 80.0658 168.021 79.9571C168.205 79.8484 168.408 79.777 168.619 79.7468C168.83 79.7166 169.046 79.7283 169.252 79.7813C169.459 79.8342 169.653 79.9274 169.824 80.0554C169.994 80.1834 170.138 80.3437 170.247 80.5273C170.356 80.7109 170.427 80.914 170.457 81.1252C170.487 81.3364 170.476 81.5515 170.423 81.7581C170.37 81.9648 170.277 82.159 170.149 82.3297L165.275 88.8277C165.136 89.0146 164.958 89.1694 164.754 89.2815C164.549 89.3936 164.323 89.4605 164.091 89.4775H163.975Z" fill="white"/>
</g>
<g filter="url(#filter3_d_2_380)">
<path d="M165.598 131.715C171.879 131.715 176.97 126.624 176.97 120.343C176.97 114.063 171.879 108.972 165.598 108.972C159.318 108.972 154.227 114.063 154.227 120.343C154.227 126.624 159.318 131.715 165.598 131.715Z" fill="url(#paint5_linear_2_380)"/>
<path d="M163.975 125.217C163.545 125.217 163.132 125.045 162.827 124.741L161.202 123.116C160.907 122.81 160.743 122.4 160.746 121.974C160.75 121.548 160.921 121.14 161.222 120.839C161.523 120.538 161.931 120.367 162.357 120.363C162.783 120.36 163.193 120.523 163.499 120.819L163.8 121.12L167.549 116.12C167.677 115.949 167.838 115.805 168.021 115.696C168.205 115.588 168.408 115.516 168.619 115.486C168.83 115.456 169.046 115.468 169.252 115.521C169.459 115.573 169.653 115.667 169.824 115.795C169.994 115.923 170.138 116.083 170.247 116.267C170.356 116.45 170.427 116.653 170.457 116.864C170.487 117.076 170.476 117.291 170.423 117.497C170.37 117.704 170.277 117.898 170.149 118.069L165.275 124.567C165.136 124.754 164.958 124.909 164.754 125.021C164.549 125.133 164.323 125.2 164.091 125.217H163.975Z" fill="white"/>
</g>
<path d="M142.94 45.6113H111.511C110.956 45.6113 110.423 45.4402 110.03 45.1355C109.637 44.8309 109.416 44.4177 109.416 43.9868C109.416 43.556 109.637 43.1428 110.03 42.8381C110.423 42.5335 110.956 42.3623 111.511 42.3623H142.94C143.496 42.3623 144.029 42.5335 144.422 42.8381C144.815 43.1428 145.036 43.556 145.036 43.9868C145.036 44.4177 144.815 44.8309 144.422 45.1355C144.029 45.4402 143.496 45.6113 142.94 45.6113Z" fill="#B9DBFF"/>
<path d="M135.434 55.3574H111.781C111.154 55.3574 110.553 55.1863 110.109 54.8816C109.665 54.5769 109.416 54.1637 109.416 53.7329C109.416 53.3021 109.665 52.8889 110.109 52.5842C110.553 52.2796 111.154 52.1084 111.781 52.1084H135.434C136.062 52.1084 136.663 52.2796 137.107 52.5842C137.551 52.8889 137.8 53.3021 137.8 53.7329C137.8 54.1637 137.551 54.5769 137.107 54.8816C136.663 55.1863 136.062 55.3574 135.434 55.3574Z" fill="#F8DCFF"/>
<path d="M142.94 81.3486H111.511C110.956 81.3486 110.423 81.1775 110.03 80.8728C109.637 80.5682 109.416 80.155 109.416 79.7241C109.416 79.2933 109.637 78.8801 110.03 78.5754C110.423 78.2708 110.956 78.0996 111.511 78.0996H142.94C143.496 78.0996 144.029 78.2708 144.422 78.5754C144.815 78.8801 145.036 79.2933 145.036 79.7241C145.036 80.155 144.815 80.5682 144.422 80.8728C144.029 81.1775 143.496 81.3486 142.94 81.3486Z" fill="#B9DBFF"/>
<path d="M135.434 91.0957H111.781C111.154 91.0957 110.553 90.9245 110.109 90.6199C109.665 90.3152 109.416 89.902 109.416 89.4712C109.416 89.0403 109.665 88.6271 110.109 88.3225C110.553 88.0178 111.154 87.8467 111.781 87.8467H135.434C136.062 87.8467 136.663 88.0178 137.107 88.3225C137.551 88.6271 137.8 89.0403 137.8 89.4712C137.8 89.902 137.551 90.3152 137.107 90.6199C136.663 90.9245 136.062 91.0957 135.434 91.0957Z" fill="#F8DCFF"/>
<path d="M142.94 117.091H111.511C110.956 117.091 110.423 116.92 110.03 116.615C109.637 116.31 109.416 115.897 109.416 115.466C109.416 115.035 109.637 114.622 110.03 114.318C110.423 114.013 110.956 113.842 111.511 113.842H142.94C143.496 113.842 144.029 114.013 144.422 114.318C144.815 114.622 145.036 115.035 145.036 115.466C145.036 115.897 144.815 116.31 144.422 116.615C144.029 116.92 143.496 117.091 142.94 117.091Z" fill="#B9DBFF"/>
<path d="M135.434 126.835H111.781C111.154 126.835 110.553 126.664 110.109 126.359C109.665 126.054 109.416 125.641 109.416 125.21C109.416 124.78 109.665 124.366 110.109 124.062C110.553 123.757 111.154 123.586 111.781 123.586H135.434C136.062 123.586 136.663 123.757 137.107 124.062C137.551 124.366 137.8 124.78 137.8 125.21C137.8 125.641 137.551 126.054 137.107 126.359C136.663 126.664 136.062 126.835 135.434 126.835Z" fill="#F8DCFF"/>
<path d="M28.348 181.974V184.774H32.108V186.55H28.348V189.51H32.588V191.334H26.108V180.15H32.588V181.974H28.348ZM45.6317 182.342C46.7197 182.342 47.5943 182.678 48.2557 183.35C48.9277 184.011 49.2637 184.939 49.2637 186.134V191.334H47.0237V186.438C47.0237 185.745 46.8477 185.217 46.4957 184.854C46.1437 184.481 45.6637 184.294 45.0557 184.294C44.4477 184.294 43.9623 184.481 43.5997 184.854C43.2477 185.217 43.0717 185.745 43.0717 186.438V191.334H40.8317V186.438C40.8317 185.745 40.6557 185.217 40.3037 184.854C39.9517 184.481 39.4717 184.294 38.8637 184.294C38.245 184.294 37.7543 184.481 37.3917 184.854C37.0397 185.217 36.8637 185.745 36.8637 186.438V191.334H34.6237V182.47H36.8637V183.542C37.1517 183.169 37.5197 182.875 37.9677 182.662C38.4263 182.449 38.9277 182.342 39.4717 182.342C40.165 182.342 40.7837 182.491 41.3277 182.79C41.8717 183.078 42.293 183.494 42.5917 184.038C42.8797 183.526 43.2957 183.115 43.8397 182.806C44.3943 182.497 44.9917 182.342 45.6317 182.342ZM50.8133 186.87C50.8133 185.974 50.9893 185.179 51.3413 184.486C51.7039 183.793 52.1893 183.259 52.7973 182.886C53.4159 182.513 54.1039 182.326 54.8613 182.326C55.5226 182.326 56.0986 182.459 56.5893 182.726C57.0906 182.993 57.4906 183.329 57.7893 183.734V182.47H60.0453V191.334H57.7893V190.038C57.5013 190.454 57.1013 190.801 56.5893 191.078C56.0879 191.345 55.5066 191.478 54.8453 191.478C54.0986 191.478 53.4159 191.286 52.7973 190.902C52.1893 190.518 51.7039 189.979 51.3413 189.286C50.9893 188.582 50.8133 187.777 50.8133 186.87ZM57.7893 186.902C57.7893 186.358 57.6826 185.894 57.4693 185.51C57.2559 185.115 56.9679 184.817 56.6053 184.614C56.2426 184.401 55.8533 184.294 55.4373 184.294C55.0213 184.294 54.6373 184.395 54.2853 184.598C53.9333 184.801 53.6453 185.099 53.4213 185.494C53.2079 185.878 53.1013 186.337 53.1013 186.87C53.1013 187.403 53.2079 187.873 53.4213 188.278C53.6453 188.673 53.9333 188.977 54.2853 189.19C54.6479 189.403 55.0319 189.51 55.4373 189.51C55.8533 189.51 56.2426 189.409 56.6053 189.206C56.9679 188.993 57.2559 188.694 57.4693 188.31C57.6826 187.915 57.7893 187.446 57.7893 186.902ZM63.369 181.414C62.9744 181.414 62.6437 181.291 62.377 181.046C62.121 180.79 61.993 180.475 61.993 180.102C61.993 179.729 62.121 179.419 62.377 179.174C62.6437 178.918 62.9744 178.79 63.369 178.79C63.7637 178.79 64.089 178.918 64.345 179.174C64.6117 179.419 64.745 179.729 64.745 180.102C64.745 180.475 64.6117 180.79 64.345 181.046C64.089 181.291 63.7637 181.414 63.369 181.414ZM64.473 182.47V191.334H62.233V182.47H64.473ZM68.9262 179.494V191.334H66.6862V179.494H68.9262ZM84.9838 180.166L80.8878 191.334H78.1678L74.0718 180.166H76.4718L79.5438 189.046L82.5998 180.166H84.9838ZM94.5668 186.71C94.5668 187.03 94.5454 187.318 94.5028 187.574H88.0228C88.0761 188.214 88.3001 188.715 88.6948 189.078C89.0894 189.441 89.5748 189.622 90.1508 189.622C90.9828 189.622 91.5748 189.265 91.9268 188.55H94.3428C94.0868 189.403 93.5961 190.107 92.8708 190.662C92.1454 191.206 91.2548 191.478 90.1988 191.478C89.3454 191.478 88.5774 191.291 87.8948 190.918C87.2228 190.534 86.6948 189.995 86.3108 189.302C85.9374 188.609 85.7508 187.809 85.7508 186.902C85.7508 185.985 85.9374 185.179 86.3108 184.486C86.6841 183.793 87.2068 183.259 87.8788 182.886C88.5508 182.513 89.3241 182.326 90.1988 182.326C91.0414 182.326 91.7934 182.507 92.4548 182.87C93.1268 183.233 93.6441 183.75 94.0068 184.422C94.3801 185.083 94.5668 185.846 94.5668 186.71ZM92.2468 186.07C92.2361 185.494 92.0281 185.035 91.6228 184.694C91.2174 184.342 90.7214 184.166 90.1348 184.166C89.5801 184.166 89.1108 184.337 88.7268 184.678C88.3534 185.009 88.1241 185.473 88.0388 186.07H92.2468ZM98.4418 183.846C98.7298 183.377 99.1031 183.009 99.5618 182.742C100.031 182.475 100.564 182.342 101.162 182.342V184.694H100.57C99.8658 184.694 99.3324 184.859 98.9698 185.19C98.6178 185.521 98.4418 186.097 98.4418 186.918V191.334H96.2018V182.47H98.4418V183.846ZM103.807 181.414C103.412 181.414 103.081 181.291 102.815 181.046C102.559 180.79 102.431 180.475 102.431 180.102C102.431 179.729 102.559 179.419 102.815 179.174C103.081 178.918 103.412 178.79 103.807 178.79C104.201 178.79 104.527 178.918 104.783 179.174C105.049 179.419 105.183 179.729 105.183 180.102C105.183 180.475 105.049 180.79 104.783 181.046C104.527 181.291 104.201 181.414 103.807 181.414ZM104.911 182.47V191.334H102.671V182.47H104.911ZM111.188 184.31H109.636V191.334H107.364V184.31H106.356V182.47H107.364V182.022C107.364 180.934 107.673 180.134 108.292 179.622C108.91 179.11 109.844 178.87 111.092 178.902V180.79C110.548 180.779 110.169 180.87 109.956 181.062C109.742 181.254 109.636 181.601 109.636 182.102V182.47H111.188V184.31ZM113.775 181.414C113.381 181.414 113.05 181.291 112.783 181.046C112.527 180.79 112.399 180.475 112.399 180.102C112.399 179.729 112.527 179.419 112.783 179.174C113.05 178.918 113.381 178.79 113.775 178.79C114.17 178.79 114.495 178.918 114.751 179.174C115.018 179.419 115.151 179.729 115.151 180.102C115.151 180.475 115.018 180.79 114.751 181.046C114.495 181.291 114.17 181.414 113.775 181.414ZM114.879 182.47V191.334H112.639V182.47H114.879ZM125.332 186.71C125.332 187.03 125.311 187.318 125.268 187.574H118.788C118.842 188.214 119.066 188.715 119.46 189.078C119.855 189.441 120.34 189.622 120.916 189.622C121.748 189.622 122.34 189.265 122.692 188.55H125.108C124.852 189.403 124.362 190.107 123.636 190.662C122.911 191.206 122.02 191.478 120.964 191.478C120.111 191.478 119.343 191.291 118.66 190.918C117.988 190.534 117.46 189.995 117.076 189.302C116.703 188.609 116.516 187.809 116.516 186.902C116.516 185.985 116.703 185.179 117.076 184.486C117.45 183.793 117.972 183.259 118.644 182.886C119.316 182.513 120.09 182.326 120.964 182.326C121.807 182.326 122.559 182.507 123.22 182.87C123.892 183.233 124.41 183.75 124.772 184.422C125.146 185.083 125.332 185.846 125.332 186.71ZM123.012 186.07C123.002 185.494 122.794 185.035 122.388 184.694C121.983 184.342 121.487 184.166 120.9 184.166C120.346 184.166 119.876 184.337 119.492 184.678C119.119 185.009 118.89 185.473 118.804 186.07H123.012ZM129.207 183.846C129.495 183.377 129.869 183.009 130.327 182.742C130.797 182.475 131.33 182.342 131.927 182.342V184.694H131.335C130.631 184.694 130.098 184.859 129.735 185.19C129.383 185.521 129.207 186.097 129.207 186.918V191.334H126.967V182.47H129.207V183.846Z" fill="#1F1B2F"/>
<path d="M31.22 220.557L28.896 216.567H27.356V220.557H26.082V210.799H29.232C29.9694 210.799 30.59 210.925 31.094 211.177C31.6074 211.429 31.99 211.769 32.242 212.199C32.494 212.628 32.62 213.118 32.62 213.669C32.62 214.341 32.424 214.933 32.032 215.447C31.6494 215.96 31.0707 216.301 30.296 216.469L32.746 220.557H31.22ZM27.356 215.545H29.232C29.9227 215.545 30.4407 215.377 30.786 215.041C31.1314 214.695 31.304 214.238 31.304 213.669C31.304 213.09 31.1314 212.642 30.786 212.325C30.45 212.007 29.932 211.849 29.232 211.849H27.356V215.545ZM41.4596 216.427C41.4596 216.669 41.4456 216.926 41.4176 217.197H35.2856C35.3323 217.953 35.5889 218.545 36.0556 218.975C36.5316 219.395 37.1056 219.605 37.7776 219.605C38.3283 219.605 38.7856 219.479 39.1496 219.227C39.5229 218.965 39.7843 218.62 39.9336 218.191H41.3056C41.1003 218.928 40.6896 219.53 40.0736 219.997C39.4576 220.454 38.6923 220.683 37.7776 220.683C37.0496 220.683 36.3963 220.519 35.8176 220.193C35.2483 219.866 34.8003 219.404 34.4736 218.807C34.1469 218.2 33.9836 217.5 33.9836 216.707C33.9836 215.913 34.1423 215.218 34.4596 214.621C34.7769 214.023 35.2203 213.566 35.7896 213.249C36.3683 212.922 37.0309 212.759 37.7776 212.759C38.5056 212.759 39.1496 212.917 39.7096 213.235C40.2696 213.552 40.6989 213.991 40.9976 214.551C41.3056 215.101 41.4596 215.727 41.4596 216.427ZM40.1436 216.161C40.1436 215.675 40.0363 215.26 39.8216 214.915C39.6069 214.56 39.3129 214.294 38.9396 214.117C38.5756 213.93 38.1696 213.837 37.7216 213.837C37.0776 213.837 36.5269 214.042 36.0696 214.453C35.6216 214.863 35.3649 215.433 35.2996 216.161H40.1436ZM42.5252 216.693C42.5252 215.909 42.6839 215.223 43.0012 214.635C43.3186 214.037 43.7526 213.575 44.3032 213.249C44.8632 212.922 45.4886 212.759 46.1792 212.759C46.7766 212.759 47.3319 212.899 47.8452 213.179C48.3586 213.449 48.7506 213.809 49.0212 214.257V210.197H50.3092V220.557H49.0212V219.115C48.7692 219.572 48.3959 219.95 47.9012 220.249C47.4066 220.538 46.8279 220.683 46.1652 220.683C45.4839 220.683 44.8632 220.515 44.3032 220.179C43.7526 219.843 43.3186 219.371 43.0012 218.765C42.6839 218.158 42.5252 217.467 42.5252 216.693ZM49.0212 216.707C49.0212 216.128 48.9046 215.624 48.6712 215.195C48.4379 214.765 48.1206 214.439 47.7192 214.215C47.3272 213.981 46.8932 213.865 46.4172 213.865C45.9412 213.865 45.5072 213.977 45.1152 214.201C44.7232 214.425 44.4106 214.751 44.1772 215.181C43.9439 215.61 43.8272 216.114 43.8272 216.693C43.8272 217.281 43.9439 217.794 44.1772 218.233C44.4106 218.662 44.7232 218.993 45.1152 219.227C45.5072 219.451 45.9412 219.563 46.4172 219.563C46.8932 219.563 47.3272 219.451 47.7192 219.227C48.1206 218.993 48.4379 218.662 48.6712 218.233C48.9046 217.794 49.0212 217.285 49.0212 216.707ZM59.1262 212.885V220.557H57.8522V219.423C57.6095 219.815 57.2689 220.123 56.8302 220.347C56.4009 220.561 55.9249 220.669 55.4022 220.669C54.8049 220.669 54.2682 220.547 53.7922 220.305C53.3162 220.053 52.9382 219.679 52.6582 219.185C52.3875 218.69 52.2522 218.088 52.2522 217.379V212.885H53.5122V217.211C53.5122 217.967 53.7035 218.55 54.0862 218.961C54.4689 219.362 54.9915 219.563 55.6542 219.563C56.3355 219.563 56.8722 219.353 57.2642 218.933C57.6562 218.513 57.8522 217.901 57.8522 217.099V212.885H59.1262ZM60.6613 216.707C60.6613 215.913 60.8199 215.223 61.1373 214.635C61.4546 214.037 61.8933 213.575 62.4533 213.249C63.0226 212.922 63.6713 212.759 64.3993 212.759C65.3419 212.759 66.1166 212.987 66.7233 213.445C67.3393 213.902 67.7453 214.537 67.9413 215.349H66.5693C66.4386 214.882 66.1819 214.513 65.7993 214.243C65.4259 213.972 64.9593 213.837 64.3993 213.837C63.6713 213.837 63.0833 214.089 62.6353 214.593C62.1873 215.087 61.9633 215.792 61.9633 216.707C61.9633 217.631 62.1873 218.345 62.6353 218.849C63.0833 219.353 63.6713 219.605 64.3993 219.605C64.9593 219.605 65.4259 219.474 65.7993 219.213C66.1726 218.951 66.4293 218.578 66.5693 218.093H67.9413C67.7359 218.877 67.3253 219.507 66.7093 219.983C66.0933 220.449 65.3233 220.683 64.3993 220.683C63.6713 220.683 63.0226 220.519 62.4533 220.193C61.8933 219.866 61.4546 219.404 61.1373 218.807C60.8199 218.209 60.6613 217.509 60.6613 216.707ZM76.5012 216.427C76.5012 216.669 76.4872 216.926 76.4592 217.197H70.3272C70.3738 217.953 70.6305 218.545 71.0972 218.975C71.5732 219.395 72.1472 219.605 72.8192 219.605C73.3698 219.605 73.8272 219.479 74.1912 219.227C74.5645 218.965 74.8258 218.62 74.9752 218.191H76.3472C76.1418 218.928 75.7312 219.53 75.1152 219.997C74.4992 220.454 73.7338 220.683 72.8192 220.683C72.0912 220.683 71.4378 220.519 70.8592 220.193C70.2898 219.866 69.8418 219.404 69.5152 218.807C69.1885 218.2 69.0252 217.5 69.0252 216.707C69.0252 215.913 69.1838 215.218 69.5012 214.621C69.8185 214.023 70.2618 213.566 70.8312 213.249C71.4098 212.922 72.0725 212.759 72.8192 212.759C73.5472 212.759 74.1912 212.917 74.7512 213.235C75.3112 213.552 75.7405 213.991 76.0392 214.551C76.3472 215.101 76.5012 215.727 76.5012 216.427ZM75.1852 216.161C75.1852 215.675 75.0778 215.26 74.8632 214.915C74.6485 214.56 74.3545 214.294 73.9812 214.117C73.6172 213.93 73.2112 213.837 72.7632 213.837C72.1192 213.837 71.5685 214.042 71.1112 214.453C70.6632 214.863 70.4065 215.433 70.3412 216.161H75.1852ZM82.9092 214.313C83.1706 213.855 83.5532 213.482 84.0572 213.193C84.5612 212.903 85.1352 212.759 85.7792 212.759C86.4699 212.759 87.0906 212.922 87.6412 213.249C88.1919 213.575 88.6259 214.037 88.9432 214.635C89.2606 215.223 89.4192 215.909 89.4192 216.693C89.4192 217.467 89.2606 218.158 88.9432 218.765C88.6259 219.371 88.1872 219.843 87.6272 220.179C87.0766 220.515 86.4606 220.683 85.7792 220.683C85.1166 220.683 84.5332 220.538 84.0292 220.249C83.5346 219.959 83.1612 219.591 82.9092 219.143V220.557H81.6352V210.197H82.9092V214.313ZM88.1172 216.693C88.1172 216.114 88.0006 215.61 87.7672 215.181C87.5339 214.751 87.2166 214.425 86.8152 214.201C86.4232 213.977 85.9892 213.865 85.5132 213.865C85.0466 213.865 84.6126 213.981 84.2112 214.215C83.8192 214.439 83.5019 214.77 83.2592 215.209C83.0259 215.638 82.9092 216.137 82.9092 216.707C82.9092 217.285 83.0259 217.794 83.2592 218.233C83.5019 218.662 83.8192 218.993 84.2112 219.227C84.6126 219.451 85.0466 219.563 85.5132 219.563C85.9892 219.563 86.4232 219.451 86.8152 219.227C87.2166 218.993 87.5339 218.662 87.7672 218.233C88.0006 217.794 88.1172 217.281 88.1172 216.693ZM94.3022 220.683C93.5835 220.683 92.9302 220.519 92.3422 220.193C91.7635 219.866 91.3062 219.404 90.9702 218.807C90.6435 218.2 90.4802 217.5 90.4802 216.707C90.4802 215.923 90.6482 215.232 90.9842 214.635C91.3295 214.028 91.7962 213.566 92.3842 213.249C92.9722 212.922 93.6302 212.759 94.3582 212.759C95.0862 212.759 95.7442 212.922 96.3322 213.249C96.9202 213.566 97.3822 214.023 97.7182 214.621C98.0635 215.218 98.2362 215.913 98.2362 216.707C98.2362 217.5 98.0588 218.2 97.7042 218.807C97.3588 219.404 96.8875 219.866 96.2902 220.193C95.6928 220.519 95.0302 220.683 94.3022 220.683ZM94.3022 219.563C94.7595 219.563 95.1888 219.455 95.5902 219.241C95.9915 219.026 96.3135 218.704 96.5562 218.275C96.8082 217.845 96.9342 217.323 96.9342 216.707C96.9342 216.091 96.8128 215.568 96.5702 215.139C96.3275 214.709 96.0102 214.392 95.6182 214.187C95.2262 213.972 94.8015 213.865 94.3442 213.865C93.8775 213.865 93.4482 213.972 93.0562 214.187C92.6735 214.392 92.3655 214.709 92.1322 215.139C91.8988 215.568 91.7822 216.091 91.7822 216.707C91.7822 217.332 91.8942 217.859 92.1182 218.289C92.3515 218.718 92.6595 219.04 93.0422 219.255C93.4248 219.46 93.8448 219.563 94.3022 219.563ZM106.575 212.885V220.557H105.301V219.423C105.059 219.815 104.718 220.123 104.279 220.347C103.85 220.561 103.374 220.669 102.851 220.669C102.254 220.669 101.717 220.547 101.241 220.305C100.765 220.053 100.387 219.679 100.107 219.185C99.8366 218.69 99.7012 218.088 99.7012 217.379V212.885H100.961V217.211C100.961 217.967 101.153 218.55 101.535 218.961C101.918 219.362 102.441 219.563 103.103 219.563C103.785 219.563 104.321 219.353 104.713 218.933C105.105 218.513 105.301 217.901 105.301 217.099V212.885H106.575ZM112.324 212.745C113.258 212.745 114.014 213.029 114.592 213.599C115.171 214.159 115.46 214.971 115.46 216.035V220.557H114.2V216.217C114.2 215.451 114.009 214.868 113.626 214.467C113.244 214.056 112.721 213.851 112.058 213.851C111.386 213.851 110.85 214.061 110.448 214.481C110.056 214.901 109.86 215.512 109.86 216.315V220.557H108.586V212.885H109.86V213.977C110.112 213.585 110.453 213.281 110.882 213.067C111.321 212.852 111.802 212.745 112.324 212.745ZM116.925 216.707C116.925 215.913 117.084 215.223 117.401 214.635C117.719 214.037 118.157 213.575 118.717 213.249C119.287 212.922 119.935 212.759 120.663 212.759C121.606 212.759 122.381 212.987 122.987 213.445C123.603 213.902 124.009 214.537 124.205 215.349H122.833C122.703 214.882 122.446 214.513 122.063 214.243C121.69 213.972 121.223 213.837 120.663 213.837C119.935 213.837 119.347 214.089 118.899 214.593C118.451 215.087 118.227 215.792 118.227 216.707C118.227 217.631 118.451 218.345 118.899 218.849C119.347 219.353 119.935 219.605 120.663 219.605C121.223 219.605 121.69 219.474 122.063 219.213C122.437 218.951 122.693 218.578 122.833 218.093H124.205C124 218.877 123.589 219.507 122.973 219.983C122.357 220.449 121.587 220.683 120.663 220.683C119.935 220.683 119.287 220.519 118.717 220.193C118.157 219.866 117.719 219.404 117.401 218.807C117.084 218.209 116.925 217.509 116.925 216.707ZM132.765 216.427C132.765 216.669 132.751 216.926 132.723 217.197H126.591C126.638 217.953 126.895 218.545 127.361 218.975C127.837 219.395 128.411 219.605 129.083 219.605C129.634 219.605 130.091 219.479 130.455 219.227C130.829 218.965 131.09 218.62 131.239 218.191H132.611C132.406 218.928 131.995 219.53 131.379 219.997C130.763 220.454 129.998 220.683 129.083 220.683C128.355 220.683 127.702 220.519 127.123 220.193C126.554 219.866 126.106 219.404 125.779 218.807C125.453 218.2 125.289 217.5 125.289 216.707C125.289 215.913 125.448 215.218 125.765 214.621C126.083 214.023 126.526 213.566 127.095 213.249C127.674 212.922 128.337 212.759 129.083 212.759C129.811 212.759 130.455 212.917 131.015 213.235C131.575 213.552 132.005 213.991 132.303 214.551C132.611 215.101 132.765 215.727 132.765 216.427ZM131.449 216.161C131.449 215.675 131.342 215.26 131.127 214.915C130.913 214.56 130.619 214.294 130.245 214.117C129.881 213.93 129.475 213.837 129.027 213.837C128.383 213.837 127.833 214.042 127.375 214.453C126.927 214.863 126.671 215.433 126.605 216.161H131.449ZM137.023 220.683C136.435 220.683 135.908 220.585 135.441 220.389C134.974 220.183 134.606 219.903 134.335 219.549C134.064 219.185 133.915 218.769 133.887 218.303H135.203C135.24 218.685 135.418 218.998 135.735 219.241C136.062 219.483 136.486 219.605 137.009 219.605C137.494 219.605 137.877 219.497 138.157 219.283C138.437 219.068 138.577 218.797 138.577 218.471C138.577 218.135 138.428 217.887 138.129 217.729C137.83 217.561 137.368 217.397 136.743 217.239C136.174 217.089 135.707 216.94 135.343 216.791C134.988 216.632 134.68 216.403 134.419 216.105C134.167 215.797 134.041 215.395 134.041 214.901C134.041 214.509 134.158 214.149 134.391 213.823C134.624 213.496 134.956 213.239 135.385 213.053C135.814 212.857 136.304 212.759 136.855 212.759C137.704 212.759 138.39 212.973 138.913 213.403C139.436 213.832 139.716 214.42 139.753 215.167H138.479C138.451 214.765 138.288 214.443 137.989 214.201C137.7 213.958 137.308 213.837 136.813 213.837C136.356 213.837 135.992 213.935 135.721 214.131C135.45 214.327 135.315 214.583 135.315 214.901C135.315 215.153 135.394 215.363 135.553 215.531C135.721 215.689 135.926 215.82 136.169 215.923C136.421 216.016 136.766 216.123 137.205 216.245C137.756 216.394 138.204 216.543 138.549 216.693C138.894 216.833 139.188 217.047 139.431 217.337C139.683 217.626 139.814 218.004 139.823 218.471C139.823 218.891 139.706 219.269 139.473 219.605C139.24 219.941 138.908 220.207 138.479 220.403C138.059 220.589 137.574 220.683 137.023 220.683ZM155.294 212.885L152.9 220.557H151.584L149.736 214.467L147.888 220.557H146.572L144.164 212.885H145.466L147.23 219.325L149.134 212.885H150.436L152.298 219.339L154.034 212.885H155.294ZM157.076 211.639C156.834 211.639 156.628 211.555 156.46 211.387C156.292 211.219 156.208 211.013 156.208 210.771C156.208 210.528 156.292 210.323 156.46 210.155C156.628 209.987 156.834 209.903 157.076 209.903C157.31 209.903 157.506 209.987 157.664 210.155C157.832 210.323 157.916 210.528 157.916 210.771C157.916 211.013 157.832 211.219 157.664 211.387C157.506 211.555 157.31 211.639 157.076 211.639ZM157.692 212.885V220.557H156.418V212.885H157.692ZM161.278 213.935V218.457C161.278 218.83 161.357 219.096 161.516 219.255C161.674 219.404 161.95 219.479 162.342 219.479H163.28V220.557H162.132C161.422 220.557 160.89 220.393 160.536 220.067C160.181 219.74 160.004 219.203 160.004 218.457V213.935H159.01V212.885H160.004V210.953H161.278V212.885H163.28V213.935H161.278ZM168.491 212.745C169.07 212.745 169.592 212.871 170.059 213.123C170.526 213.365 170.89 213.734 171.151 214.229C171.422 214.723 171.557 215.325 171.557 216.035V220.557H170.297V216.217C170.297 215.451 170.106 214.868 169.723 214.467C169.34 214.056 168.818 213.851 168.155 213.851C167.483 213.851 166.946 214.061 166.545 214.481C166.153 214.901 165.957 215.512 165.957 216.315V220.557H164.683V210.197H165.957V213.977C166.209 213.585 166.554 213.281 166.993 213.067C167.441 212.852 167.94 212.745 168.491 212.745ZM176.545 211.597V210.435H179.177V220.557H177.889V211.597H176.545ZM181.225 215.391C181.225 213.785 181.486 212.535 182.009 211.639C182.532 210.733 183.446 210.281 184.753 210.281C186.05 210.281 186.96 210.733 187.483 211.639C188.006 212.535 188.267 213.785 188.267 215.391C188.267 217.024 188.006 218.293 187.483 219.199C186.96 220.104 186.05 220.557 184.753 220.557C183.446 220.557 182.532 220.104 182.009 219.199C181.486 218.293 181.225 217.024 181.225 215.391ZM187.007 215.391C187.007 214.579 186.951 213.893 186.839 213.333C186.736 212.763 186.517 212.306 186.181 211.961C185.854 211.615 185.378 211.443 184.753 211.443C184.118 211.443 183.633 211.615 183.297 211.961C182.97 212.306 182.751 212.763 182.639 213.333C182.536 213.893 182.485 214.579 182.485 215.391C182.485 216.231 182.536 216.935 182.639 217.505C182.751 218.074 182.97 218.531 183.297 218.877C183.633 219.222 184.118 219.395 184.753 219.395C185.378 219.395 185.854 219.222 186.181 218.877C186.517 218.531 186.736 218.074 186.839 217.505C186.951 216.935 187.007 216.231 187.007 215.391ZM189.876 215.391C189.876 213.785 190.137 212.535 190.66 211.639C191.183 210.733 192.097 210.281 193.404 210.281C194.701 210.281 195.611 210.733 196.134 211.639C196.657 212.535 196.918 213.785 196.918 215.391C196.918 217.024 196.657 218.293 196.134 219.199C195.611 220.104 194.701 220.557 193.404 220.557C192.097 220.557 191.183 220.104 190.66 219.199C190.137 218.293 189.876 217.024 189.876 215.391ZM195.658 215.391C195.658 214.579 195.602 213.893 195.49 213.333C195.387 212.763 195.168 212.306 194.832 211.961C194.505 211.615 194.029 211.443 193.404 211.443C192.769 211.443 192.284 211.615 191.948 211.961C191.621 212.306 191.402 212.763 191.29 213.333C191.187 213.893 191.136 214.579 191.136 215.391C191.136 216.231 191.187 216.935 191.29 217.505C191.402 218.074 191.621 218.531 191.948 218.877C192.284 219.222 192.769 219.395 193.404 219.395C194.029 219.395 194.505 219.222 194.832 218.877C195.168 218.531 195.387 218.074 195.49 217.505C195.602 216.935 195.658 216.231 195.658 215.391ZM198.247 212.717C198.247 212.082 198.438 211.578 198.821 211.205C199.204 210.822 199.694 210.631 200.291 210.631C200.888 210.631 201.378 210.822 201.761 211.205C202.144 211.578 202.335 212.082 202.335 212.717C202.335 213.361 202.144 213.874 201.761 214.257C201.378 214.63 200.888 214.817 200.291 214.817C199.694 214.817 199.204 214.63 198.821 214.257C198.438 213.874 198.247 213.361 198.247 212.717ZM206.423 210.785L200.753 220.557H199.493L205.163 210.785H206.423ZM200.291 211.415C199.974 211.415 199.722 211.527 199.535 211.751C199.358 211.965 199.269 212.287 199.269 212.717C199.269 213.146 199.358 213.473 199.535 213.697C199.722 213.921 199.974 214.033 200.291 214.033C200.608 214.033 200.86 213.921 201.047 213.697C201.234 213.463 201.327 213.137 201.327 212.717C201.327 212.287 201.234 211.965 201.047 211.751C200.86 211.527 200.608 211.415 200.291 211.415ZM203.609 218.625C203.609 217.981 203.8 217.472 204.183 217.099C204.566 216.716 205.056 216.525 205.653 216.525C206.25 216.525 206.736 216.716 207.109 217.099C207.492 217.472 207.683 217.981 207.683 218.625C207.683 219.259 207.492 219.768 207.109 220.151C206.736 220.533 206.25 220.725 205.653 220.725C205.056 220.725 204.566 220.538 204.183 220.165C203.8 219.782 203.609 219.269 203.609 218.625ZM205.639 217.323C205.322 217.323 205.07 217.435 204.883 217.659C204.696 217.873 204.603 218.195 204.603 218.625C204.603 219.045 204.696 219.367 204.883 219.591C205.07 219.805 205.322 219.913 205.639 219.913C205.956 219.913 206.208 219.805 206.395 219.591C206.582 219.367 206.675 219.045 206.675 218.625C206.675 218.195 206.582 217.873 206.395 217.659C206.208 217.435 205.956 217.323 205.639 217.323ZM28.938 237.381L31.318 230.885H32.676L29.666 238.557H28.182L25.172 230.885H26.544L28.938 237.381ZM40.7897 234.427C40.7897 234.669 40.7757 234.926 40.7477 235.197H34.6157C34.6624 235.953 34.919 236.545 35.3857 236.975C35.8617 237.395 36.4357 237.605 37.1077 237.605C37.6584 237.605 38.1157 237.479 38.4797 237.227C38.853 236.965 39.1144 236.62 39.2637 236.191H40.6357C40.4304 236.928 40.0197 237.53 39.4037 237.997C38.7877 238.454 38.0224 238.683 37.1077 238.683C36.3797 238.683 35.7264 238.519 35.1477 238.193C34.5784 237.866 34.1304 237.404 33.8037 236.807C33.477 236.2 33.3137 235.5 33.3137 234.707C33.3137 233.913 33.4724 233.218 33.7897 232.621C34.107 232.023 34.5504 231.566 35.1197 231.249C35.6984 230.922 36.361 230.759 37.1077 230.759C37.8357 230.759 38.4797 230.917 39.0397 231.235C39.5997 231.552 40.029 231.991 40.3277 232.551C40.6357 233.101 40.7897 233.727 40.7897 234.427ZM39.4737 234.161C39.4737 233.675 39.3664 233.26 39.1517 232.915C38.937 232.56 38.643 232.294 38.2697 232.117C37.9057 231.93 37.4997 231.837 37.0517 231.837C36.4077 231.837 35.857 232.042 35.3997 232.453C34.9517 232.863 34.695 233.433 34.6297 234.161H39.4737ZM43.6053 232.131C43.8293 231.692 44.1467 231.351 44.5573 231.109C44.9773 230.866 45.486 230.745 46.0833 230.745V232.061H45.7473C44.3193 232.061 43.6053 232.835 43.6053 234.385V238.557H42.3313V230.885H43.6053V232.131ZM48.072 229.639C47.8293 229.639 47.624 229.555 47.456 229.387C47.288 229.219 47.204 229.013 47.204 228.771C47.204 228.528 47.288 228.323 47.456 228.155C47.624 227.987 47.8293 227.903 48.072 227.903C48.3053 227.903 48.5013 227.987 48.66 228.155C48.828 228.323 48.912 228.528 48.912 228.771C48.912 229.013 48.828 229.219 48.66 229.387C48.5013 229.555 48.3053 229.639 48.072 229.639ZM48.688 230.885V238.557H47.414V230.885H48.688ZM53.8413 231.935H52.2313V238.557H50.9573V231.935H49.9633V230.885H50.9573V230.339C50.9573 229.48 51.1766 228.855 51.6153 228.463C52.0633 228.061 52.7773 227.861 53.7573 227.861V228.925C53.1973 228.925 52.8006 229.037 52.5673 229.261C52.3433 229.475 52.2313 229.835 52.2313 230.339V230.885H53.8413V231.935ZM55.8447 229.639C55.602 229.639 55.3967 229.555 55.2287 229.387C55.0607 229.219 54.9767 229.013 54.9767 228.771C54.9767 228.528 55.0607 228.323 55.2287 228.155C55.3967 227.987 55.602 227.903 55.8447 227.903C56.078 227.903 56.274 227.987 56.4327 228.155C56.6007 228.323 56.6847 228.528 56.6847 228.771C56.6847 229.013 56.6007 229.219 56.4327 229.387C56.274 229.555 56.078 229.639 55.8447 229.639ZM56.4607 230.885V238.557H55.1867V230.885H56.4607ZM65.492 234.427C65.492 234.669 65.478 234.926 65.45 235.197H59.318C59.3647 235.953 59.6214 236.545 60.088 236.975C60.564 237.395 61.138 237.605 61.81 237.605C62.3607 237.605 62.818 237.479 63.182 237.227C63.5554 236.965 63.8167 236.62 63.966 236.191H65.338C65.1327 236.928 64.722 237.53 64.106 237.997C63.49 238.454 62.7247 238.683 61.81 238.683C61.082 238.683 60.4287 238.519 59.85 238.193C59.2807 237.866 58.8327 237.404 58.506 236.807C58.1794 236.2 58.016 235.5 58.016 234.707C58.016 233.913 58.1747 233.218 58.492 232.621C58.8094 232.023 59.2527 231.566 59.822 231.249C60.4007 230.922 61.0634 230.759 61.81 230.759C62.538 230.759 63.182 230.917 63.742 231.235C64.302 231.552 64.7314 231.991 65.03 232.551C65.338 233.101 65.492 233.727 65.492 234.427ZM64.176 234.161C64.176 233.675 64.0687 233.26 63.854 232.915C63.6394 232.56 63.3454 232.294 62.972 232.117C62.608 231.93 62.202 231.837 61.754 231.837C61.11 231.837 60.5594 232.042 60.102 232.453C59.654 232.863 59.3974 233.433 59.332 234.161H64.176ZM66.5577 234.693C66.5577 233.909 66.7163 233.223 67.0337 232.635C67.351 232.037 67.785 231.575 68.3357 231.249C68.8957 230.922 69.521 230.759 70.2117 230.759C70.809 230.759 71.3643 230.899 71.8777 231.179C72.391 231.449 72.783 231.809 73.0537 232.257V228.197H74.3417V238.557H73.0537V237.115C72.8017 237.572 72.4283 237.95 71.9337 238.249C71.439 238.538 70.8603 238.683 70.1977 238.683C69.5163 238.683 68.8957 238.515 68.3357 238.179C67.785 237.843 67.351 237.371 67.0337 236.765C66.7163 236.158 66.5577 235.467 66.5577 234.693ZM73.0537 234.707C73.0537 234.128 72.937 233.624 72.7037 233.195C72.4703 232.765 72.153 232.439 71.7517 232.215C71.3597 231.981 70.9257 231.865 70.4497 231.865C69.9737 231.865 69.5397 231.977 69.1477 232.201C68.7557 232.425 68.443 232.751 68.2097 233.181C67.9763 233.61 67.8597 234.114 67.8597 234.693C67.8597 235.281 67.9763 235.794 68.2097 236.233C68.443 236.662 68.7557 236.993 69.1477 237.227C69.5397 237.451 69.9737 237.563 70.4497 237.563C70.9257 237.563 71.3597 237.451 71.7517 237.227C72.153 236.993 72.4703 236.662 72.7037 236.233C72.937 235.794 73.0537 235.285 73.0537 234.707ZM86.947 234.427C86.947 234.669 86.933 234.926 86.905 235.197H80.773C80.8197 235.953 81.0764 236.545 81.543 236.975C82.019 237.395 82.593 237.605 83.265 237.605C83.8157 237.605 84.273 237.479 84.637 237.227C85.0104 236.965 85.2717 236.62 85.421 236.191H86.793C86.5877 236.928 86.177 237.53 85.561 237.997C84.945 238.454 84.1797 238.683 83.265 238.683C82.537 238.683 81.8837 238.519 81.305 238.193C80.7357 237.866 80.2877 237.404 79.961 236.807C79.6344 236.2 79.471 235.5 79.471 234.707C79.471 233.913 79.6297 233.218 79.947 232.621C80.2644 232.023 80.7077 231.566 81.277 231.249C81.8557 230.922 82.5184 230.759 83.265 230.759C83.993 230.759 84.637 230.917 85.197 231.235C85.757 231.552 86.1864 231.991 86.485 232.551C86.793 233.101 86.947 233.727 86.947 234.427ZM85.631 234.161C85.631 233.675 85.5237 233.26 85.309 232.915C85.0944 232.56 84.8004 232.294 84.427 232.117C84.063 231.93 83.657 231.837 83.209 231.837C82.565 231.837 82.0144 232.042 81.557 232.453C81.109 232.863 80.8524 233.433 80.787 234.161H85.631ZM97.7147 230.745C98.312 230.745 98.844 230.871 99.3107 231.123C99.7773 231.365 100.146 231.734 100.417 232.229C100.687 232.723 100.823 233.325 100.823 234.035V238.557H99.5627V234.217C99.5627 233.451 99.3713 232.868 98.9887 232.467C98.6153 232.056 98.1067 231.851 97.4627 231.851C96.8 231.851 96.2727 232.065 95.8807 232.495C95.4887 232.915 95.2927 233.526 95.2927 234.329V238.557H94.0327V234.217C94.0327 233.451 93.8413 232.868 93.4587 232.467C93.0853 232.056 92.5767 231.851 91.9327 231.851C91.27 231.851 90.7427 232.065 90.3507 232.495C89.9587 232.915 89.7627 233.526 89.7627 234.329V238.557H88.4887V230.885H89.7627V231.991C90.0147 231.589 90.3507 231.281 90.7707 231.067C91.2 230.852 91.6713 230.745 92.1847 230.745C92.8287 230.745 93.398 230.889 93.8927 231.179C94.3873 231.468 94.756 231.893 94.9987 232.453C95.2133 231.911 95.568 231.491 96.0627 231.193C96.5573 230.894 97.108 230.745 97.7147 230.745ZM102.296 234.693C102.296 233.909 102.455 233.223 102.772 232.635C103.09 232.037 103.524 231.575 104.074 231.249C104.634 230.922 105.255 230.759 105.936 230.759C106.608 230.759 107.192 230.903 107.686 231.193C108.181 231.482 108.55 231.846 108.792 232.285V230.885H110.08V238.557H108.792V237.129C108.54 237.577 108.162 237.95 107.658 238.249C107.164 238.538 106.585 238.683 105.922 238.683C105.241 238.683 104.625 238.515 104.074 238.179C103.524 237.843 103.09 237.371 102.772 236.765C102.455 236.158 102.296 235.467 102.296 234.693ZM108.792 234.707C108.792 234.128 108.676 233.624 108.442 233.195C108.209 232.765 107.892 232.439 107.49 232.215C107.098 231.981 106.664 231.865 106.188 231.865C105.712 231.865 105.278 231.977 104.886 232.201C104.494 232.425 104.182 232.751 103.948 233.181C103.715 233.61 103.598 234.114 103.598 234.693C103.598 235.281 103.715 235.794 103.948 236.233C104.182 236.662 104.494 236.993 104.886 237.227C105.278 237.451 105.712 237.563 106.188 237.563C106.664 237.563 107.098 237.451 107.49 237.227C107.892 236.993 108.209 236.662 108.442 236.233C108.676 235.794 108.792 235.285 108.792 234.707ZM112.751 229.639C112.509 229.639 112.303 229.555 112.135 229.387C111.967 229.219 111.883 229.013 111.883 228.771C111.883 228.528 111.967 228.323 112.135 228.155C112.303 227.987 112.509 227.903 112.751 227.903C112.985 227.903 113.181 227.987 113.339 228.155C113.507 228.323 113.591 228.528 113.591 228.771C113.591 229.013 113.507 229.219 113.339 229.387C113.181 229.555 112.985 229.639 112.751 229.639ZM113.367 230.885V238.557H112.093V230.885H113.367ZM116.673 228.197V238.557H115.399V228.197H116.673ZM121.42 238.683C120.832 238.683 120.305 238.585 119.838 238.389C119.371 238.183 119.003 237.903 118.732 237.549C118.461 237.185 118.312 236.769 118.284 236.303H119.6C119.637 236.685 119.815 236.998 120.132 237.241C120.459 237.483 120.883 237.605 121.406 237.605C121.891 237.605 122.274 237.497 122.554 237.283C122.834 237.068 122.974 236.797 122.974 236.471C122.974 236.135 122.825 235.887 122.526 235.729C122.227 235.561 121.765 235.397 121.14 235.239C120.571 235.089 120.104 234.94 119.74 234.791C119.385 234.632 119.077 234.403 118.816 234.105C118.564 233.797 118.438 233.395 118.438 232.901C118.438 232.509 118.555 232.149 118.788 231.823C119.021 231.496 119.353 231.239 119.782 231.053C120.211 230.857 120.701 230.759 121.252 230.759C122.101 230.759 122.787 230.973 123.31 231.403C123.833 231.832 124.113 232.42 124.15 233.167H122.876C122.848 232.765 122.685 232.443 122.386 232.201C122.097 231.958 121.705 231.837 121.21 231.837C120.753 231.837 120.389 231.935 120.118 232.131C119.847 232.327 119.712 232.583 119.712 232.901C119.712 233.153 119.791 233.363 119.95 233.531C120.118 233.689 120.323 233.82 120.566 233.923C120.818 234.016 121.163 234.123 121.602 234.245C122.153 234.394 122.601 234.543 122.946 234.693C123.291 234.833 123.585 235.047 123.828 235.337C124.08 235.626 124.211 236.004 124.22 236.471C124.22 236.891 124.103 237.269 123.87 237.605C123.637 237.941 123.305 238.207 122.876 238.403C122.456 238.589 121.971 238.683 121.42 238.683Z" fill="#758282"/>
<defs>
<filter id="filter0_d_2_380" x="0.11362" y="0.77832" width="249.778" height="304" filterUnits="userSpaceOnUse" color-interpolation-filters="sRGB">
<feFlood flood-opacity="0" result="BackgroundImageFix"/>
<feColorMatrix in="SourceAlpha" type="matrix" values="0 0 0 0 0 0 0 0 0 0 0 0 0 0 0 0 0 0 127 0" result="hardAlpha"/>
<feMorphology radius="1.77778" operator="erode" in="SourceAlpha" result="effect1_dropShadow_2_380"/>
<feOffset dy="7.11111"/>
<feGaussianBlur stdDeviation="4.44444"/>
<feComposite in2="hardAlpha" operator="out"/>
<feColorMatrix type="matrix" values="0 0 0 0 0.403715 0 0 0 0 0.522691 0 0 0 0 0.641667 0 0 0 0.22 0"/>
<feBlend mode="normal" in2="BackgroundImageFix" result="effect1_dropShadow_2_380"/>
<feBlend mode="normal" in="SourceGraphic" in2="effect1_dropShadow_2_380" result="shape"/>
</filter>
<filter id="filter1_d_2_380" x="151.79" y="36.6799" width="29.2411" height="29.2412" filterUnits="userSpaceOnUse" color-interpolation-filters="sRGB">
<feFlood flood-opacity="0" result="BackgroundImageFix"/>
<feColorMatrix in="SourceAlpha" type="matrix" values="0 0 0 0 0 0 0 0 0 0 0 0 0 0 0 0 0 0 127 0" result="hardAlpha"/>
<feOffset dx="0.812252" dy="2.43676"/>
<feGaussianBlur stdDeviation="1.6245"/>
<feComposite in2="hardAlpha" operator="out"/>
<feColorMatrix type="matrix" values="0 0 0 0 0.192157 0 0 0 0 0.172549 0 0 0 0 0.27451 0 0 0 0.18 0"/>
<feBlend mode="normal" in2="BackgroundImageFix" result="effect1_dropShadow_2_380"/>
<feBlend mode="normal" in="SourceGraphic" in2="effect1_dropShadow_2_380" result="shape"/>
</filter>
<filter id="filter2_d_2_380" x="151.79" y="72.4202" width="29.2411" height="29.2412" filterUnits="userSpaceOnUse" color-interpolation-filters="sRGB">
<feFlood flood-opacity="0" result="BackgroundImageFix"/>
<feColorMatrix in="SourceAlpha" type="matrix" values="0 0 0 0 0 0 0 0 0 0 0 0 0 0 0 0 0 0 127 0" result="hardAlpha"/>
<feOffset dx="0.812252" dy="2.43676"/>
<feGaussianBlur stdDeviation="1.6245"/>
<feComposite in2="hardAlpha" operator="out"/>
<feColorMatrix type="matrix" values="0 0 0 0 0.192157 0 0 0 0 0.172549 0 0 0 0 0.27451 0 0 0 0.18 0"/>
<feBlend mode="normal" in2="BackgroundImageFix" result="effect1_dropShadow_2_380"/>
<feBlend mode="normal" in="SourceGraphic" in2="effect1_dropShadow_2_380" result="shape"/>
</filter>
<filter id="filter3_d_2_380" x="151.79" y="108.159" width="29.2411" height="29.2412" filterUnits="userSpaceOnUse" color-interpolation-filters="sRGB">
<feFlood flood-opacity="0" result="BackgroundImageFix"/>
<feColorMatrix in="SourceAlpha" type="matrix" values="0 0 0 0 0 0 0 0 0 0 0 0 0 0 0 0 0 0 127 0" result="hardAlpha"/>
<feOffset dx="0.812252" dy="2.43676"/>
<feGaussianBlur stdDeviation="1.6245"/>
<feComposite in2="hardAlpha" operator="out"/>
<feColorMatrix type="matrix" values="0 0 0 0 0.192157 0 0 0 0 0.172549 0 0 0 0 0.27451 0 0 0 0.18 0"/>
<feBlend mode="normal" in2="BackgroundImageFix" result="effect1_dropShadow_2_380"/>
<feBlend mode="normal" in="SourceGraphic" in2="effect1_dropShadow_2_380" result="shape"/>
</filter>
<linearGradient id="paint0_linear_2_380" x1="65.8573" y1="38.1117" x2="96.9684" y2="57.6672" gradientUnits="userSpaceOnUse">
<stop stop-color="#949CED"/>
<stop offset="1" stop-color="#97BAFF"/>
</linearGradient>
<linearGradient id="paint1_linear_2_380" x1="65.8573" y1="73.6673" x2="96.9684" y2="93.2229" gradientUnits="userSpaceOnUse">
<stop stop-color="#949CED"/>
<stop offset="1" stop-color="#97BAFF"/>
</linearGradient>
<linearGradient id="paint2_linear_2_380" x1="65.8573" y1="110.112" x2="96.9684" y2="129.667" gradientUnits="userSpaceOnUse">
<stop stop-color="#949CED"/>
<stop offset="1" stop-color="#97BAFF"/>
</linearGradient>
<linearGradient id="paint3_linear_2_380" x1="165.598" y1="37.4922" x2="165.598" y2="60.2353" gradientUnits="userSpaceOnUse">
<stop stop-color="#33A0FF"/>
<stop offset="1" stop-color="#36D5EB"/>
</linearGradient>
<linearGradient id="paint4_linear_2_380" x1="165.598" y1="73.2324" x2="165.598" y2="95.9755" gradientUnits="userSpaceOnUse">
<stop stop-color="#33A0FF"/>
<stop offset="1" stop-color="#36D5EB"/>
</linearGradient>
<linearGradient id="paint5_linear_2_380" x1="165.598" y1="108.972" x2="165.598" y2="131.715" gradientUnits="userSpaceOnUse">
<stop stop-color="#33A0FF"/>
<stop offset="1" stop-color="#36D5EB"/>
</linearGradient>
</defs>
</svg>
