<svg width="249" height="305" viewBox="0 0 249 305" fill="none" xmlns="http://www.w3.org/2000/svg">
<g filter="url(#filter0_d_2_324)">
<rect x="7.22266" y="0.77832" width="234.667" height="289.778" rx="26.6667" fill="white"/>
<rect x="7.6671" y="1.22276" width="233.778" height="288.889" rx="26.2222" stroke="#E2E6F5" stroke-width="0.888889"/>
</g>
<rect x="24.3353" y="19.0001" width="199.111" height="124.444" rx="17.3333" fill="white" stroke="#D8DDEB" stroke-width="0.888889"/>
<circle cx="4.44444" cy="4.44444" r="4.44444" transform="matrix(-1 0 0 1 83.7832 37.2227)" stroke="#8475F5" stroke-width="1.33333"/>
<path d="M80.0165 46.1113C81.5554 46.2249 82.8808 46.507 83.9835 46.9234M74.1977 47.1798C72.4037 48.1991 70.8543 48.9738 70.8543 51.3387V52.4803C70.8543 53.3811 71.5845 54.1113 72.4852 54.1113H84.5547" stroke="#8475F5" stroke-width="1.33333" stroke-linecap="round"/>
<path d="M98.11 49.2223C98.11 52.536 95.4237 55.2223 92.11 55.2223C88.7963 55.2223 86.11 52.536 86.11 49.2223C86.11 45.9086 88.7963 43.2223 92.11 43.2223C95.4237 43.2223 98.11 45.9086 98.11 49.2223Z" stroke="url(#paint0_linear_2_324)" stroke-width="1.33333"/>
<circle cx="4.44444" cy="4.44444" r="4.44444" transform="matrix(-1 0 0 1 83.7812 72.7783)" stroke="#8475F5" stroke-width="1.33333"/>
<path d="M80.0146 81.667C81.5534 81.7805 82.8788 82.0626 83.9816 82.479M74.1958 82.7355C72.4018 83.7548 70.8524 84.5295 70.8524 86.8943V88.036C70.8524 88.9368 71.5826 89.6669 72.4833 89.6669H84.5527" stroke="#8475F5" stroke-width="1.33333" stroke-linecap="round"/>
<path d="M98.1081 84.778C98.1081 88.0917 95.4218 90.778 92.1081 90.778C88.7944 90.778 86.1081 88.0917 86.1081 84.778C86.1081 81.4643 88.7944 78.778 92.1081 78.778C95.4218 78.778 98.1081 81.4643 98.1081 84.778Z" stroke="url(#paint1_linear_2_324)" stroke-width="1.33333"/>
<circle cx="4.44444" cy="4.44444" r="4.44444" transform="matrix(-1 0 0 1 83.7832 108.334)" stroke="#8475F5" stroke-width="1.33333"/>
<path d="M80.0165 117.223C81.5554 117.336 82.8808 117.618 83.9835 118.035M74.1977 118.291C72.4037 119.31 70.8543 120.085 70.8543 122.45V123.592C70.8543 124.492 71.5845 125.223 72.4852 125.223H84.5547" stroke="#8475F5" stroke-width="1.33333" stroke-linecap="round"/>
<path d="M98.11 120.335C98.11 123.648 95.4237 126.335 92.11 126.335C88.7963 126.335 86.11 123.648 86.11 120.335C86.11 117.021 88.7963 114.335 92.11 114.335C95.4237 114.335 98.11 117.021 98.11 120.335Z" stroke="url(#paint2_linear_2_324)" stroke-width="1.33333"/>
<g filter="url(#filter1_d_2_324)">
<path d="M165.598 57.5683C171.878 57.5683 176.97 52.4771 176.97 46.1967C176.97 39.9164 171.878 34.8252 165.598 34.8252C159.318 34.8252 154.227 39.9164 154.227 46.1967C154.227 52.4771 159.318 57.5683 165.598 57.5683Z" fill="url(#paint3_linear_2_324)"/>
<path d="M165.448 40.4105L160.004 42.5297V45.1058C160.004 48.4398 162.156 51.4423 165.448 52.7021C168.741 51.4423 170.893 48.4398 170.893 45.1058V42.5297L165.448 40.4105Z" fill="#35B9F6" stroke="white" stroke-width="1.77778" stroke-miterlimit="10" stroke-linecap="round" stroke-linejoin="round"/>
<path d="M163.283 46.1421L164.836 47.5977L167.616 44.9908" fill="#35B9F6"/>
<path d="M163.283 46.1421L164.836 47.5977L167.616 44.9908" stroke="white" stroke-width="1.77778" stroke-miterlimit="10" stroke-linecap="round" stroke-linejoin="round"/>
</g>
<g filter="url(#filter2_d_2_324)">
<path d="M165.598 93.1239C171.878 93.1239 176.97 88.0327 176.97 81.7524C176.97 75.4721 171.878 70.3809 165.598 70.3809C159.318 70.3809 154.227 75.4721 154.227 81.7524C154.227 88.0327 159.318 93.1239 165.598 93.1239Z" fill="url(#paint4_linear_2_324)"/>
<path d="M165.448 75.9652L160.004 78.0844V80.6605C160.004 83.9945 162.156 86.9969 165.448 88.2568C168.741 86.9969 170.893 83.9945 170.893 80.6605V78.0844L165.448 75.9652Z" fill="#35B9F6" stroke="white" stroke-width="1.77778" stroke-miterlimit="10" stroke-linecap="round" stroke-linejoin="round"/>
<path d="M163.283 81.6968L164.836 83.1523L167.616 80.5454" fill="#35B9F6"/>
<path d="M163.283 81.6968L164.836 83.1523L167.616 80.5454" stroke="white" stroke-width="1.77778" stroke-miterlimit="10" stroke-linecap="round" stroke-linejoin="round"/>
</g>
<g filter="url(#filter3_d_2_324)">
<path d="M165.598 128.68C171.878 128.68 176.97 123.588 176.97 117.308C176.97 111.028 171.878 105.937 165.598 105.937C159.318 105.937 154.227 111.028 154.227 117.308C154.227 123.588 159.318 128.68 165.598 128.68Z" fill="url(#paint5_linear_2_324)"/>
<path d="M165.448 111.522L160.004 113.641V116.217C160.004 119.551 162.156 122.554 165.448 123.813C168.741 122.554 170.893 119.551 170.893 116.217V113.641L165.448 111.522Z" fill="#35B9F6" stroke="white" stroke-width="1.77778" stroke-miterlimit="10" stroke-linecap="round" stroke-linejoin="round"/>
<path d="M163.283 117.253L164.836 118.709L167.616 116.102" fill="#35B9F6"/>
<path d="M163.283 117.253L164.836 118.709L167.616 116.102" stroke="white" stroke-width="1.77778" stroke-miterlimit="10" stroke-linecap="round" stroke-linejoin="round"/>
</g>
<path d="M135.464 42.9131H111.811C111.183 42.9131 110.582 42.7419 110.138 42.4373C109.695 42.1326 109.445 41.7194 109.445 41.2886C109.445 40.8577 109.695 40.4445 110.138 40.1399C110.582 39.8352 111.183 39.6641 111.811 39.6641H135.464C136.091 39.6641 136.692 39.8352 137.136 40.1399C137.58 40.4445 137.829 40.8577 137.829 41.2886C137.829 41.7194 137.58 42.1326 137.136 42.4373C136.692 42.7419 136.091 42.9131 135.464 42.9131Z" fill="#D9E8FF"/>
<path d="M142.969 52.9043H111.541C110.985 52.9043 110.452 52.7331 110.059 52.4285C109.666 52.1238 109.445 51.7106 109.445 51.2798C109.445 50.8489 109.666 50.4357 110.059 50.1311C110.452 49.8264 110.985 49.6553 111.541 49.6553H142.969C143.525 49.6553 144.058 49.8264 144.451 50.1311C144.844 50.4357 145.065 50.8489 145.065 51.2798C145.065 51.7106 144.844 52.1238 144.451 52.4285C144.058 52.7331 143.525 52.9043 142.969 52.9043Z" fill="#ABEDFF"/>
<path d="M135.464 78.4687H111.811C111.183 78.4687 110.582 78.2976 110.138 77.9929C109.695 77.6883 109.445 77.2751 109.445 76.8442C109.445 76.4134 109.695 76.0002 110.138 75.6955C110.582 75.3909 111.183 75.2197 111.811 75.2197H135.464C136.091 75.2197 136.692 75.3909 137.136 75.6955C137.58 76.0002 137.829 76.4134 137.829 76.8442C137.829 77.2751 137.58 77.6883 137.136 77.9929C136.692 78.2976 136.091 78.4687 135.464 78.4687Z" fill="#D9E8FF"/>
<path d="M142.969 88.4599H111.541C110.985 88.4599 110.452 88.2888 110.059 87.9841C109.666 87.6795 109.445 87.2663 109.445 86.8354C109.445 86.4046 109.666 85.9914 110.059 85.6867C110.452 85.3821 110.985 85.2109 111.541 85.2109H142.969C143.525 85.2109 144.058 85.3821 144.451 85.6867C144.844 85.9914 145.065 86.4046 145.065 86.8354C145.065 87.2663 144.844 87.6795 144.451 87.9841C144.058 88.2888 143.525 88.4599 142.969 88.4599Z" fill="#ABEDFF"/>
<path d="M135.464 114.024H111.811C111.183 114.024 110.582 113.853 110.138 113.549C109.695 113.244 109.445 112.831 109.445 112.4C109.445 111.969 109.695 111.556 110.138 111.251C110.582 110.947 111.183 110.775 111.811 110.775H135.464C136.091 110.775 136.692 110.947 137.136 111.251C137.58 111.556 137.829 111.969 137.829 112.4C137.829 112.831 137.58 113.244 137.136 113.549C136.692 113.853 136.091 114.024 135.464 114.024Z" fill="#D9E8FF"/>
<path d="M142.969 124.016H111.541C110.985 124.016 110.452 123.844 110.059 123.54C109.666 123.235 109.445 122.822 109.445 122.391C109.445 121.96 109.666 121.547 110.059 121.242C110.452 120.938 110.985 120.767 111.541 120.767H142.969C143.525 120.767 144.058 120.938 144.451 121.242C144.844 121.547 145.065 121.96 145.065 122.391C145.065 122.822 144.844 123.235 144.451 123.54C144.058 123.844 143.525 124.016 142.969 124.016Z" fill="#ABEDFF"/>
<path d="M31.5533 185.606C32.1826 185.723 32.6999 186.038 33.1053 186.55C33.5106 187.062 33.7133 187.649 33.7133 188.31C33.7133 188.907 33.5639 189.435 33.2653 189.894C32.9773 190.342 32.5559 190.694 32.0013 190.95C31.4466 191.206 30.7906 191.334 30.0333 191.334H25.2173V180.166H29.8253C30.5826 180.166 31.2333 180.289 31.7773 180.534C32.3319 180.779 32.7479 181.121 33.0253 181.558C33.3133 181.995 33.4573 182.491 33.4573 183.046C33.4573 183.697 33.2813 184.241 32.9293 184.678C32.5879 185.115 32.1293 185.425 31.5533 185.606ZM27.4573 184.774H29.5053C30.0386 184.774 30.4493 184.657 30.7373 184.422C31.0253 184.177 31.1693 183.83 31.1693 183.382C31.1693 182.934 31.0253 182.587 30.7373 182.342C30.4493 182.097 30.0386 181.974 29.5053 181.974H27.4573V184.774ZM29.7133 189.51C30.2573 189.51 30.6786 189.382 30.9773 189.126C31.2866 188.87 31.4413 188.507 31.4413 188.038C31.4413 187.558 31.2813 187.185 30.9613 186.918C30.6413 186.641 30.2093 186.502 29.6653 186.502H27.4573V189.51H29.7133ZM37.7385 179.494V191.334H35.4985V179.494H37.7385ZM39.3757 186.87C39.3757 185.974 39.5517 185.179 39.9037 184.486C40.2663 183.793 40.7517 183.259 41.3597 182.886C41.9783 182.513 42.6663 182.326 43.4237 182.326C44.085 182.326 44.661 182.459 45.1517 182.726C45.653 182.993 46.053 183.329 46.3517 183.734V182.47H48.6077V191.334H46.3517V190.038C46.0637 190.454 45.6637 190.801 45.1517 191.078C44.6503 191.345 44.069 191.478 43.4077 191.478C42.661 191.478 41.9783 191.286 41.3597 190.902C40.7517 190.518 40.2663 189.979 39.9037 189.286C39.5517 188.582 39.3757 187.777 39.3757 186.87ZM46.3517 186.902C46.3517 186.358 46.245 185.894 46.0317 185.51C45.8183 185.115 45.5303 184.817 45.1677 184.614C44.805 184.401 44.4157 184.294 43.9997 184.294C43.5837 184.294 43.1997 184.395 42.8477 184.598C42.4957 184.801 42.2077 185.099 41.9837 185.494C41.7703 185.878 41.6637 186.337 41.6637 186.87C41.6637 187.403 41.7703 187.873 41.9837 188.278C42.2077 188.673 42.4957 188.977 42.8477 189.19C43.2103 189.403 43.5943 189.51 43.9997 189.51C44.4157 189.51 44.805 189.409 45.1677 189.206C45.5303 188.993 45.8183 188.694 46.0317 188.31C46.245 187.915 46.3517 187.446 46.3517 186.902ZM50.2194 186.902C50.2194 185.985 50.4061 185.185 50.7794 184.502C51.1527 183.809 51.6701 183.275 52.3314 182.902C52.9927 182.518 53.7501 182.326 54.6034 182.326C55.7021 182.326 56.6087 182.603 57.3234 183.158C58.0487 183.702 58.5341 184.47 58.7794 185.462H56.3634C56.2354 185.078 56.0167 184.779 55.7074 184.566C55.4087 184.342 55.0354 184.23 54.5874 184.23C53.9474 184.23 53.4407 184.465 53.0674 184.934C52.6941 185.393 52.5074 186.049 52.5074 186.902C52.5074 187.745 52.6941 188.401 53.0674 188.87C53.4407 189.329 53.9474 189.558 54.5874 189.558C55.4941 189.558 56.0861 189.153 56.3634 188.342H58.7794C58.5341 189.302 58.0487 190.065 57.3234 190.63C56.5981 191.195 55.6914 191.478 54.6034 191.478C53.7501 191.478 52.9927 191.291 52.3314 190.918C51.6701 190.534 51.1527 190.001 50.7794 189.318C50.4061 188.625 50.2194 187.819 50.2194 186.902ZM65.6684 191.334L62.6604 187.558V191.334H60.4204V179.494H62.6604V186.23L65.6364 182.47H68.5484L64.6444 186.918L68.5804 191.334H65.6684ZM72.0042 179.494V191.334H69.7642V179.494H72.0042ZM75.3533 181.414C74.9586 181.414 74.6279 181.291 74.3613 181.046C74.1053 180.79 73.9773 180.475 73.9773 180.102C73.9773 179.729 74.1053 179.419 74.3613 179.174C74.6279 178.918 74.9586 178.79 75.3533 178.79C75.7479 178.79 76.0733 178.918 76.3293 179.174C76.5959 179.419 76.7293 179.729 76.7293 180.102C76.7293 180.475 76.5959 180.79 76.3293 181.046C76.0733 181.291 75.7479 181.414 75.3533 181.414ZM76.4573 182.47V191.334H74.2173V182.47H76.4573ZM82.0624 191.478C81.3371 191.478 80.6864 191.35 80.1104 191.094C79.5344 190.827 79.0757 190.47 78.7344 190.022C78.4037 189.574 78.2224 189.078 78.1904 188.534H80.4464C80.4891 188.875 80.6544 189.158 80.9424 189.382C81.2411 189.606 81.6091 189.718 82.0464 189.718C82.4731 189.718 82.8037 189.633 83.0384 189.462C83.2837 189.291 83.4064 189.073 83.4064 188.806C83.4064 188.518 83.2571 188.305 82.9584 188.166C82.6704 188.017 82.2064 187.857 81.5664 187.686C80.9051 187.526 80.3611 187.361 79.9344 187.19C79.5184 187.019 79.1557 186.758 78.8464 186.406C78.5477 186.054 78.3984 185.579 78.3984 184.982C78.3984 184.491 78.5371 184.043 78.8144 183.638C79.1024 183.233 79.5077 182.913 80.0304 182.678C80.5637 182.443 81.1877 182.326 81.9024 182.326C82.9584 182.326 83.8011 182.593 84.4304 183.126C85.0597 183.649 85.4064 184.358 85.4704 185.254H83.3264C83.2944 184.902 83.1451 184.625 82.8784 184.422C82.6224 184.209 82.2757 184.102 81.8384 184.102C81.4331 184.102 81.1184 184.177 80.8944 184.326C80.6811 184.475 80.5744 184.683 80.5744 184.95C80.5744 185.249 80.7237 185.478 81.0224 185.638C81.3211 185.787 81.7851 185.942 82.4144 186.102C83.0544 186.262 83.5824 186.427 83.9984 186.598C84.4144 186.769 84.7717 187.035 85.0704 187.398C85.3797 187.75 85.5397 188.219 85.5504 188.806C85.5504 189.318 85.4064 189.777 85.1184 190.182C84.8411 190.587 84.4357 190.907 83.9024 191.142C83.3797 191.366 82.7664 191.478 82.0624 191.478ZM89.9972 184.31V188.598C89.9972 188.897 90.0665 189.115 90.2052 189.254C90.3545 189.382 90.5998 189.446 90.9412 189.446H91.9812V191.334H90.5732C88.6852 191.334 87.7412 190.417 87.7412 188.582V184.31H86.6852V182.47H87.7412V180.278H89.9972V182.47H91.9812V184.31H89.9972ZM101.261 191.446C100.482 191.446 99.7781 191.313 99.1488 191.046C98.5301 190.779 98.0394 190.395 97.6768 189.894C97.3141 189.393 97.1274 188.801 97.1168 188.118H99.5168C99.5488 188.577 99.7088 188.939 99.9968 189.206C100.295 189.473 100.701 189.606 101.213 189.606C101.735 189.606 102.146 189.483 102.445 189.238C102.743 188.982 102.893 188.651 102.893 188.246C102.893 187.915 102.791 187.643 102.589 187.43C102.386 187.217 102.13 187.051 101.821 186.934C101.522 186.806 101.106 186.667 100.573 186.518C99.8474 186.305 99.2554 186.097 98.7968 185.894C98.3488 185.681 97.9594 185.366 97.6288 184.95C97.3088 184.523 97.1488 183.958 97.1488 183.254C97.1488 182.593 97.3141 182.017 97.6448 181.526C97.9754 181.035 98.4394 180.662 99.0368 180.406C99.6341 180.139 100.317 180.006 101.085 180.006C102.237 180.006 103.17 180.289 103.885 180.854C104.61 181.409 105.01 182.187 105.085 183.19H102.621C102.599 182.806 102.434 182.491 102.125 182.246C101.826 181.99 101.426 181.862 100.925 181.862C100.487 181.862 100.135 181.974 99.8688 182.198C99.6128 182.422 99.4848 182.747 99.4848 183.174C99.4848 183.473 99.5808 183.723 99.7728 183.926C99.9754 184.118 100.221 184.278 100.509 184.406C100.807 184.523 101.223 184.662 101.757 184.822C102.482 185.035 103.074 185.249 103.533 185.462C103.991 185.675 104.386 185.995 104.717 186.422C105.047 186.849 105.213 187.409 105.213 188.102C105.213 188.699 105.058 189.254 104.749 189.766C104.439 190.278 103.986 190.689 103.389 190.998C102.791 191.297 102.082 191.446 101.261 191.446ZM112.147 182.342C112.819 182.342 113.416 182.491 113.939 182.79C114.461 183.078 114.867 183.51 115.155 184.086C115.453 184.651 115.603 185.334 115.603 186.134V191.334H113.363V186.438C113.363 185.734 113.187 185.195 112.835 184.822C112.483 184.438 112.003 184.246 111.395 184.246C110.776 184.246 110.285 184.438 109.923 184.822C109.571 185.195 109.395 185.734 109.395 186.438V191.334H107.155V179.494H109.395V183.574C109.683 183.19 110.067 182.891 110.547 182.678C111.027 182.454 111.56 182.342 112.147 182.342ZM118.869 181.414C118.474 181.414 118.144 181.291 117.877 181.046C117.621 180.79 117.493 180.475 117.493 180.102C117.493 179.729 117.621 179.419 117.877 179.174C118.144 178.918 118.474 178.79 118.869 178.79C119.264 178.79 119.589 178.918 119.845 179.174C120.112 179.419 120.245 179.729 120.245 180.102C120.245 180.475 120.112 180.79 119.845 181.046C119.589 181.291 119.264 181.414 118.869 181.414ZM119.973 182.47V191.334H117.733V182.47H119.973ZM130.426 186.71C130.426 187.03 130.405 187.318 130.362 187.574H123.882C123.935 188.214 124.159 188.715 124.554 189.078C124.949 189.441 125.434 189.622 126.01 189.622C126.842 189.622 127.434 189.265 127.786 188.55H130.202C129.946 189.403 129.455 190.107 128.73 190.662C128.005 191.206 127.114 191.478 126.058 191.478C125.205 191.478 124.437 191.291 123.754 190.918C123.082 190.534 122.554 189.995 122.17 189.302C121.797 188.609 121.61 187.809 121.61 186.902C121.61 185.985 121.797 185.179 122.17 184.486C122.543 183.793 123.066 183.259 123.738 182.886C124.41 182.513 125.183 182.326 126.058 182.326C126.901 182.326 127.653 182.507 128.314 182.87C128.986 183.233 129.503 183.75 129.866 184.422C130.239 185.083 130.426 185.846 130.426 186.71ZM128.106 186.07C128.095 185.494 127.887 185.035 127.482 184.694C127.077 184.342 126.581 184.166 125.994 184.166C125.439 184.166 124.97 184.337 124.586 184.678C124.213 185.009 123.983 185.473 123.898 186.07H128.106ZM134.301 179.494V191.334H132.061V179.494H134.301ZM135.938 186.87C135.938 185.974 136.114 185.179 136.466 184.486C136.829 183.793 137.319 183.259 137.938 182.886C138.557 182.513 139.245 182.326 140.002 182.326C140.578 182.326 141.127 182.454 141.65 182.71C142.173 182.955 142.589 183.286 142.898 183.702V179.494H145.17V191.334H142.898V190.022C142.621 190.459 142.231 190.811 141.73 191.078C141.229 191.345 140.647 191.478 139.986 191.478C139.239 191.478 138.557 191.286 137.938 190.902C137.319 190.518 136.829 189.979 136.466 189.286C136.114 188.582 135.938 187.777 135.938 186.87ZM142.914 186.902C142.914 186.358 142.807 185.894 142.594 185.51C142.381 185.115 142.093 184.817 141.73 184.614C141.367 184.401 140.978 184.294 140.562 184.294C140.146 184.294 139.762 184.395 139.41 184.598C139.058 184.801 138.77 185.099 138.546 185.494C138.333 185.878 138.226 186.337 138.226 186.87C138.226 187.403 138.333 187.873 138.546 188.278C138.77 188.673 139.058 188.977 139.41 189.19C139.773 189.403 140.157 189.51 140.562 189.51C140.978 189.51 141.367 189.409 141.73 189.206C142.093 188.993 142.381 188.694 142.594 188.31C142.807 187.915 142.914 187.446 142.914 186.902Z" fill="#1F1B2F"/>
<path d="M35.0893 210.869V220.557H33.8153V213.333L30.5953 220.557H29.6993L26.4653 213.319V220.557H25.1913V210.869H26.5633L30.1473 218.877L33.7313 210.869H35.0893ZM40.4559 220.683C39.7372 220.683 39.0839 220.519 38.4959 220.193C37.9172 219.866 37.4599 219.404 37.1239 218.807C36.7972 218.2 36.6339 217.5 36.6339 216.707C36.6339 215.923 36.8019 215.232 37.1379 214.635C37.4832 214.028 37.9499 213.566 38.5379 213.249C39.1259 212.922 39.7839 212.759 40.5119 212.759C41.2399 212.759 41.8979 212.922 42.4859 213.249C43.0739 213.566 43.5359 214.023 43.8719 214.621C44.2172 215.218 44.3899 215.913 44.3899 216.707C44.3899 217.5 44.2125 218.2 43.8579 218.807C43.5125 219.404 43.0412 219.866 42.4439 220.193C41.8465 220.519 41.1839 220.683 40.4559 220.683ZM40.4559 219.563C40.9132 219.563 41.3425 219.455 41.7439 219.241C42.1452 219.026 42.4672 218.704 42.7099 218.275C42.9619 217.845 43.0879 217.323 43.0879 216.707C43.0879 216.091 42.9665 215.568 42.7239 215.139C42.4812 214.709 42.1639 214.392 41.7719 214.187C41.3799 213.972 40.9552 213.865 40.4979 213.865C40.0312 213.865 39.6019 213.972 39.2099 214.187C38.8272 214.392 38.5192 214.709 38.2859 215.139C38.0525 215.568 37.9359 216.091 37.9359 216.707C37.9359 217.332 38.0479 217.859 38.2719 218.289C38.5052 218.718 38.8132 219.04 39.1959 219.255C39.5785 219.46 39.9985 219.563 40.4559 219.563ZM49.663 212.745C50.5963 212.745 51.3523 213.029 51.931 213.599C52.5096 214.159 52.799 214.971 52.799 216.035V220.557H51.539V216.217C51.539 215.451 51.3476 214.868 50.965 214.467C50.5823 214.056 50.0596 213.851 49.397 213.851C48.725 213.851 48.1883 214.061 47.787 214.481C47.395 214.901 47.199 215.512 47.199 216.315V220.557H45.925V212.885H47.199V213.977C47.451 213.585 47.7916 213.281 48.221 213.067C48.6596 212.852 49.1403 212.745 49.663 212.745ZM55.398 211.639C55.1554 211.639 54.95 211.555 54.782 211.387C54.614 211.219 54.53 211.013 54.53 210.771C54.53 210.528 54.614 210.323 54.782 210.155C54.95 209.987 55.1554 209.903 55.398 209.903C55.6314 209.903 55.8274 209.987 55.986 210.155C56.154 210.323 56.238 210.528 56.238 210.771C56.238 211.013 56.154 211.219 55.986 211.387C55.8274 211.555 55.6314 211.639 55.398 211.639ZM56.014 212.885V220.557H54.74V212.885H56.014ZM59.5993 213.935V218.457C59.5993 218.83 59.6787 219.096 59.8373 219.255C59.996 219.404 60.2713 219.479 60.6633 219.479H61.6013V220.557H60.4533C59.744 220.557 59.212 220.393 58.8573 220.067C58.5027 219.74 58.3253 219.203 58.3253 218.457V213.935H57.3313V212.885H58.3253V210.953H59.5993V212.885H61.6013V213.935H59.5993ZM66.351 220.683C65.6323 220.683 64.979 220.519 64.391 220.193C63.8123 219.866 63.355 219.404 63.019 218.807C62.6923 218.2 62.529 217.5 62.529 216.707C62.529 215.923 62.697 215.232 63.033 214.635C63.3783 214.028 63.845 213.566 64.433 213.249C65.021 212.922 65.679 212.759 66.407 212.759C67.135 212.759 67.793 212.922 68.381 213.249C68.969 213.566 69.431 214.023 69.767 214.621C70.1123 215.218 70.285 215.913 70.285 216.707C70.285 217.5 70.1076 218.2 69.753 218.807C69.4076 219.404 68.9363 219.866 68.339 220.193C67.7416 220.519 67.079 220.683 66.351 220.683ZM66.351 219.563C66.8083 219.563 67.2376 219.455 67.639 219.241C68.0403 219.026 68.3623 218.704 68.605 218.275C68.857 217.845 68.983 217.323 68.983 216.707C68.983 216.091 68.8616 215.568 68.619 215.139C68.3763 214.709 68.059 214.392 67.667 214.187C67.275 213.972 66.8503 213.865 66.393 213.865C65.9263 213.865 65.497 213.972 65.105 214.187C64.7223 214.392 64.4143 214.709 64.181 215.139C63.9476 215.568 63.831 216.091 63.831 216.707C63.831 217.332 63.943 217.859 64.167 218.289C64.4003 218.718 64.7083 219.04 65.091 219.255C65.4736 219.46 65.8936 219.563 66.351 219.563ZM73.094 214.131C73.318 213.692 73.6354 213.351 74.046 213.109C74.466 212.866 74.9747 212.745 75.572 212.745V214.061H75.236C73.808 214.061 73.094 214.835 73.094 216.385V220.557H71.82V212.885H73.094V214.131ZM80.0191 216.693C80.0191 215.909 80.1778 215.223 80.4951 214.635C80.8124 214.037 81.2464 213.575 81.7971 213.249C82.3571 212.922 82.9778 212.759 83.6591 212.759C84.3311 212.759 84.9144 212.903 85.4091 213.193C85.9038 213.482 86.2724 213.846 86.5151 214.285V212.885H87.8031V220.557H86.5151V219.129C86.2631 219.577 85.8851 219.95 85.3811 220.249C84.8864 220.538 84.3078 220.683 83.6451 220.683C82.9638 220.683 82.3478 220.515 81.7971 220.179C81.2464 219.843 80.8124 219.371 80.4951 218.765C80.1778 218.158 80.0191 217.467 80.0191 216.693ZM86.5151 216.707C86.5151 216.128 86.3984 215.624 86.1651 215.195C85.9318 214.765 85.6144 214.439 85.2131 214.215C84.8211 213.981 84.3871 213.865 83.9111 213.865C83.4351 213.865 83.0011 213.977 82.6091 214.201C82.2171 214.425 81.9044 214.751 81.6711 215.181C81.4378 215.61 81.3211 216.114 81.3211 216.693C81.3211 217.281 81.4378 217.794 81.6711 218.233C81.9044 218.662 82.2171 218.993 82.6091 219.227C83.0011 219.451 83.4351 219.563 83.9111 219.563C84.3871 219.563 84.8211 219.451 85.2131 219.227C85.6144 218.993 85.9318 218.662 86.1651 218.233C86.3984 217.794 86.5151 217.285 86.5151 216.707ZM93.554 212.745C94.4874 212.745 95.2434 213.029 95.822 213.599C96.4007 214.159 96.69 214.971 96.69 216.035V220.557H95.43V216.217C95.43 215.451 95.2387 214.868 94.856 214.467C94.4734 214.056 93.9507 213.851 93.288 213.851C92.616 213.851 92.0794 214.061 91.678 214.481C91.286 214.901 91.09 215.512 91.09 216.315V220.557H89.816V212.885H91.09V213.977C91.342 213.585 91.6827 213.281 92.112 213.067C92.5507 212.852 93.0314 212.745 93.554 212.745ZM98.1551 216.693C98.1551 215.909 98.3138 215.223 98.6311 214.635C98.9485 214.037 99.3825 213.575 99.9331 213.249C100.493 212.922 101.118 212.759 101.809 212.759C102.406 212.759 102.962 212.899 103.475 213.179C103.988 213.449 104.38 213.809 104.651 214.257V210.197H105.939V220.557H104.651V219.115C104.399 219.572 104.026 219.95 103.531 220.249C103.036 220.538 102.458 220.683 101.795 220.683C101.114 220.683 100.493 220.515 99.9331 220.179C99.3825 219.843 98.9485 219.371 98.6311 218.765C98.3138 218.158 98.1551 217.467 98.1551 216.693ZM104.651 216.707C104.651 216.128 104.534 215.624 104.301 215.195C104.068 214.765 103.75 214.439 103.349 214.215C102.957 213.981 102.523 213.865 102.047 213.865C101.571 213.865 101.137 213.977 100.745 214.201C100.353 214.425 100.04 214.751 99.8071 215.181C99.5738 215.61 99.4571 216.114 99.4571 216.693C99.4571 217.281 99.5738 217.794 99.8071 218.233C100.04 218.662 100.353 218.993 100.745 219.227C101.137 219.451 101.571 219.563 102.047 219.563C102.523 219.563 102.957 219.451 103.349 219.227C103.75 218.993 104.068 218.662 104.301 218.233C104.534 217.794 104.651 217.285 104.651 216.707ZM112.818 214.313C113.08 213.855 113.462 213.482 113.966 213.193C114.47 212.903 115.044 212.759 115.688 212.759C116.379 212.759 117 212.922 117.55 213.249C118.101 213.575 118.535 214.037 118.852 214.635C119.17 215.223 119.328 215.909 119.328 216.693C119.328 217.467 119.17 218.158 118.852 218.765C118.535 219.371 118.096 219.843 117.536 220.179C116.986 220.515 116.37 220.683 115.688 220.683C115.026 220.683 114.442 220.538 113.938 220.249C113.444 219.959 113.07 219.591 112.818 219.143V220.557H111.544V210.197H112.818V214.313ZM118.026 216.693C118.026 216.114 117.91 215.61 117.676 215.181C117.443 214.751 117.126 214.425 116.724 214.201C116.332 213.977 115.898 213.865 115.422 213.865C114.956 213.865 114.522 213.981 114.12 214.215C113.728 214.439 113.411 214.77 113.168 215.209C112.935 215.638 112.818 216.137 112.818 216.707C112.818 217.285 112.935 217.794 113.168 218.233C113.411 218.662 113.728 218.993 114.12 219.227C114.522 219.451 114.956 219.563 115.422 219.563C115.898 219.563 116.332 219.451 116.724 219.227C117.126 218.993 117.443 218.662 117.676 218.233C117.91 217.794 118.026 217.281 118.026 216.693ZM124.211 220.683C123.493 220.683 122.839 220.519 122.251 220.193C121.673 219.866 121.215 219.404 120.879 218.807C120.553 218.2 120.389 217.5 120.389 216.707C120.389 215.923 120.557 215.232 120.893 214.635C121.239 214.028 121.705 213.566 122.293 213.249C122.881 212.922 123.539 212.759 124.267 212.759C124.995 212.759 125.653 212.922 126.241 213.249C126.829 213.566 127.291 214.023 127.627 214.621C127.973 215.218 128.145 215.913 128.145 216.707C128.145 217.5 127.968 218.2 127.613 218.807C127.268 219.404 126.797 219.866 126.199 220.193C125.602 220.519 124.939 220.683 124.211 220.683ZM124.211 219.563C124.669 219.563 125.098 219.455 125.499 219.241C125.901 219.026 126.223 218.704 126.465 218.275C126.717 217.845 126.843 217.323 126.843 216.707C126.843 216.091 126.722 215.568 126.479 215.139C126.237 214.709 125.919 214.392 125.527 214.187C125.135 213.972 124.711 213.865 124.253 213.865C123.787 213.865 123.357 213.972 122.965 214.187C122.583 214.392 122.275 214.709 122.041 215.139C121.808 215.568 121.691 216.091 121.691 216.707C121.691 217.332 121.803 217.859 122.027 218.289C122.261 218.718 122.569 219.04 122.951 219.255C123.334 219.46 123.754 219.563 124.211 219.563ZM133.027 220.683C132.308 220.683 131.655 220.519 131.067 220.193C130.488 219.866 130.031 219.404 129.695 218.807C129.368 218.2 129.205 217.5 129.205 216.707C129.205 215.923 129.373 215.232 129.709 214.635C130.054 214.028 130.521 213.566 131.109 213.249C131.697 212.922 132.355 212.759 133.083 212.759C133.811 212.759 134.469 212.922 135.057 213.249C135.645 213.566 136.107 214.023 136.443 214.621C136.788 215.218 136.961 215.913 136.961 216.707C136.961 217.5 136.783 218.2 136.429 218.807C136.083 219.404 135.612 219.866 135.015 220.193C134.417 220.519 133.755 220.683 133.027 220.683ZM133.027 219.563C133.484 219.563 133.913 219.455 134.315 219.241C134.716 219.026 135.038 218.704 135.281 218.275C135.533 217.845 135.659 217.323 135.659 216.707C135.659 216.091 135.537 215.568 135.295 215.139C135.052 214.709 134.735 214.392 134.343 214.187C133.951 213.972 133.526 213.865 133.069 213.865C132.602 213.865 132.173 213.972 131.781 214.187C131.398 214.392 131.09 214.709 130.857 215.139C130.623 215.568 130.507 216.091 130.507 216.707C130.507 217.332 130.619 217.859 130.843 218.289C131.076 218.718 131.384 219.04 131.767 219.255C132.149 219.46 132.569 219.563 133.027 219.563ZM141.212 220.683C140.624 220.683 140.096 220.585 139.63 220.389C139.163 220.183 138.794 219.903 138.524 219.549C138.253 219.185 138.104 218.769 138.076 218.303H139.392C139.429 218.685 139.606 218.998 139.924 219.241C140.25 219.483 140.675 219.605 141.198 219.605C141.683 219.605 142.066 219.497 142.346 219.283C142.626 219.068 142.766 218.797 142.766 218.471C142.766 218.135 142.616 217.887 142.318 217.729C142.019 217.561 141.557 217.397 140.932 217.239C140.362 217.089 139.896 216.94 139.532 216.791C139.177 216.632 138.869 216.403 138.608 216.105C138.356 215.797 138.23 215.395 138.23 214.901C138.23 214.509 138.346 214.149 138.58 213.823C138.813 213.496 139.144 213.239 139.574 213.053C140.003 212.857 140.493 212.759 141.044 212.759C141.893 212.759 142.579 212.973 143.102 213.403C143.624 213.832 143.904 214.42 143.942 215.167H142.668C142.64 214.765 142.476 214.443 142.178 214.201C141.888 213.958 141.496 213.837 141.002 213.837C140.544 213.837 140.18 213.935 139.91 214.131C139.639 214.327 139.504 214.583 139.504 214.901C139.504 215.153 139.583 215.363 139.742 215.531C139.91 215.689 140.115 215.82 140.358 215.923C140.61 216.016 140.955 216.123 141.394 216.245C141.944 216.394 142.392 216.543 142.738 216.693C143.083 216.833 143.377 217.047 143.62 217.337C143.872 217.626 144.002 218.004 144.012 218.471C144.012 218.891 143.895 219.269 143.662 219.605C143.428 219.941 143.097 220.207 142.668 220.403C142.248 220.589 141.762 220.683 141.212 220.683ZM147.224 213.935V218.457C147.224 218.83 147.303 219.096 147.462 219.255C147.621 219.404 147.896 219.479 148.288 219.479H149.226V220.557H148.078C147.369 220.557 146.837 220.393 146.482 220.067C146.127 219.74 145.95 219.203 145.95 218.457V213.935H144.956V212.885H145.95V210.953H147.224V212.885H149.226V213.935H147.224ZM160.83 212.885L156.21 224.169H154.894L156.406 220.473L153.312 212.885H154.726L157.134 219.101L159.514 212.885H160.83ZM165.317 220.683C164.598 220.683 163.945 220.519 163.357 220.193C162.778 219.866 162.321 219.404 161.985 218.807C161.658 218.2 161.495 217.5 161.495 216.707C161.495 215.923 161.663 215.232 161.999 214.635C162.344 214.028 162.811 213.566 163.399 213.249C163.987 212.922 164.645 212.759 165.373 212.759C166.101 212.759 166.759 212.922 167.347 213.249C167.935 213.566 168.397 214.023 168.733 214.621C169.078 215.218 169.251 215.913 169.251 216.707C169.251 217.5 169.073 218.2 168.719 218.807C168.373 219.404 167.902 219.866 167.305 220.193C166.707 220.519 166.045 220.683 165.317 220.683ZM165.317 219.563C165.774 219.563 166.203 219.455 166.605 219.241C167.006 219.026 167.328 218.704 167.571 218.275C167.823 217.845 167.949 217.323 167.949 216.707C167.949 216.091 167.827 215.568 167.585 215.139C167.342 214.709 167.025 214.392 166.633 214.187C166.241 213.972 165.816 213.865 165.359 213.865C164.892 213.865 164.463 213.972 164.071 214.187C163.688 214.392 163.38 214.709 163.147 215.139C162.913 215.568 162.797 216.091 162.797 216.707C162.797 217.332 162.909 217.859 163.133 218.289C163.366 218.718 163.674 219.04 164.057 219.255C164.439 219.46 164.859 219.563 165.317 219.563ZM177.59 212.885V220.557H176.316V219.423C176.073 219.815 175.732 220.123 175.294 220.347C174.864 220.561 174.388 220.669 173.866 220.669C173.268 220.669 172.732 220.547 172.256 220.305C171.78 220.053 171.402 219.679 171.122 219.185C170.851 218.69 170.716 218.088 170.716 217.379V212.885H171.976V217.211C171.976 217.967 172.167 218.55 172.55 218.961C172.932 219.362 173.455 219.563 174.118 219.563C174.799 219.563 175.336 219.353 175.728 218.933C176.12 218.513 176.316 217.901 176.316 217.099V212.885H177.59ZM180.875 214.131C181.099 213.692 181.416 213.351 181.827 213.109C182.247 212.866 182.756 212.745 183.353 212.745V214.061H183.017C181.589 214.061 180.875 214.835 180.875 216.385V220.557H179.601V212.885H180.875V214.131ZM32.1913 234.427C32.1913 234.669 32.1773 234.926 32.1493 235.197H26.0173C26.0639 235.953 26.3206 236.545 26.7873 236.975C27.2633 237.395 27.8373 237.605 28.5093 237.605C29.0599 237.605 29.5173 237.479 29.8813 237.227C30.2546 236.965 30.5159 236.62 30.6653 236.191H32.0373C31.8319 236.928 31.4213 237.53 30.8053 237.997C30.1893 238.454 29.4239 238.683 28.5093 238.683C27.7813 238.683 27.1279 238.519 26.5493 238.193C25.9799 237.866 25.5319 237.404 25.2053 236.807C24.8786 236.2 24.7153 235.5 24.7153 234.707C24.7153 233.913 24.8739 233.218 25.1913 232.621C25.5086 232.023 25.9519 231.566 26.5213 231.249C27.0999 230.922 27.7626 230.759 28.5093 230.759C29.2373 230.759 29.8813 230.917 30.4413 231.235C31.0013 231.552 31.4306 231.991 31.7293 232.551C32.0373 233.101 32.1913 233.727 32.1913 234.427ZM30.8753 234.161C30.8753 233.675 30.7679 233.26 30.5533 232.915C30.3386 232.56 30.0446 232.294 29.6713 232.117C29.3073 231.93 28.9013 231.837 28.4533 231.837C27.8093 231.837 27.2586 232.042 26.8013 232.453C26.3533 232.863 26.0966 233.433 26.0313 234.161H30.8753ZM42.9589 230.745C43.5563 230.745 44.0883 230.871 44.5549 231.123C45.0216 231.365 45.3903 231.734 45.6609 232.229C45.9316 232.723 46.0669 233.325 46.0669 234.035V238.557H44.8069V234.217C44.8069 233.451 44.6156 232.868 44.2329 232.467C43.8596 232.056 43.3509 231.851 42.7069 231.851C42.0443 231.851 41.5169 232.065 41.1249 232.495C40.7329 232.915 40.5369 233.526 40.5369 234.329V238.557H39.2769V234.217C39.2769 233.451 39.0856 232.868 38.7029 232.467C38.3296 232.056 37.8209 231.851 37.1769 231.851C36.5143 231.851 35.9869 232.065 35.5949 232.495C35.2029 232.915 35.0069 233.526 35.0069 234.329V238.557H33.7329V230.885H35.0069V231.991C35.2589 231.589 35.5949 231.281 36.0149 231.067C36.4443 230.852 36.9156 230.745 37.4289 230.745C38.0729 230.745 38.6423 230.889 39.1369 231.179C39.6316 231.468 40.0003 231.893 40.2429 232.453C40.4576 231.911 40.8123 231.491 41.3069 231.193C41.8016 230.894 42.3523 230.745 42.9589 230.745ZM47.5407 234.693C47.5407 233.909 47.6994 233.223 48.0167 232.635C48.3341 232.037 48.7681 231.575 49.3187 231.249C49.8787 230.922 50.4994 230.759 51.1807 230.759C51.8527 230.759 52.4361 230.903 52.9307 231.193C53.4254 231.482 53.7941 231.846 54.0367 232.285V230.885H55.3247V238.557H54.0367V237.129C53.7847 237.577 53.4067 237.95 52.9027 238.249C52.4081 238.538 51.8294 238.683 51.1667 238.683C50.4854 238.683 49.8694 238.515 49.3187 238.179C48.7681 237.843 48.3341 237.371 48.0167 236.765C47.6994 236.158 47.5407 235.467 47.5407 234.693ZM54.0367 234.707C54.0367 234.128 53.9201 233.624 53.6867 233.195C53.4534 232.765 53.1361 232.439 52.7347 232.215C52.3427 231.981 51.9087 231.865 51.4327 231.865C50.9567 231.865 50.5227 231.977 50.1307 232.201C49.7387 232.425 49.4261 232.751 49.1927 233.181C48.9594 233.61 48.8427 234.114 48.8427 234.693C48.8427 235.281 48.9594 235.794 49.1927 236.233C49.4261 236.662 49.7387 236.993 50.1307 237.227C50.5227 237.451 50.9567 237.563 51.4327 237.563C51.9087 237.563 52.3427 237.451 52.7347 237.227C53.1361 236.993 53.4534 236.662 53.6867 236.233C53.9201 235.794 54.0367 235.285 54.0367 234.707ZM57.9957 229.639C57.753 229.639 57.5477 229.555 57.3797 229.387C57.2117 229.219 57.1277 229.013 57.1277 228.771C57.1277 228.528 57.2117 228.323 57.3797 228.155C57.5477 227.987 57.753 227.903 57.9957 227.903C58.229 227.903 58.425 227.987 58.5837 228.155C58.7517 228.323 58.8357 228.528 58.8357 228.771C58.8357 229.013 58.7517 229.219 58.5837 229.387C58.425 229.555 58.229 229.639 57.9957 229.639ZM58.6117 230.885V238.557H57.3377V230.885H58.6117ZM61.917 228.197V238.557H60.643V228.197H61.917ZM67.0647 234.693C67.0647 233.909 67.2234 233.223 67.5407 232.635C67.8581 232.037 68.2921 231.575 68.8427 231.249C69.4027 230.922 70.0281 230.759 70.7187 230.759C71.3161 230.759 71.8714 230.899 72.3847 231.179C72.8981 231.449 73.2901 231.809 73.5607 232.257V228.197H74.8487V238.557H73.5607V237.115C73.3087 237.572 72.9354 237.95 72.4407 238.249C71.9461 238.538 71.3674 238.683 70.7047 238.683C70.0234 238.683 69.4027 238.515 68.8427 238.179C68.2921 237.843 67.8581 237.371 67.5407 236.765C67.2234 236.158 67.0647 235.467 67.0647 234.693ZM73.5607 234.707C73.5607 234.128 73.4441 233.624 73.2107 233.195C72.9774 232.765 72.6601 232.439 72.2587 232.215C71.8667 231.981 71.4327 231.865 70.9567 231.865C70.4807 231.865 70.0467 231.977 69.6547 232.201C69.2627 232.425 68.9501 232.751 68.7167 233.181C68.4834 233.61 68.3667 234.114 68.3667 234.693C68.3667 235.281 68.4834 235.794 68.7167 236.233C68.9501 236.662 69.2627 236.993 69.6547 237.227C70.0467 237.451 70.4807 237.563 70.9567 237.563C71.4327 237.563 71.8667 237.451 72.2587 237.227C72.6601 236.993 72.9774 236.662 73.2107 236.233C73.4441 235.794 73.5607 235.285 73.5607 234.707ZM83.8617 234.427C83.8617 234.669 83.8477 234.926 83.8197 235.197H77.6877C77.7343 235.953 77.991 236.545 78.4577 236.975C78.9337 237.395 79.5077 237.605 80.1797 237.605C80.7303 237.605 81.1877 237.479 81.5517 237.227C81.925 236.965 82.1863 236.62 82.3357 236.191H83.7077C83.5023 236.928 83.0917 237.53 82.4757 237.997C81.8597 238.454 81.0943 238.683 80.1797 238.683C79.4517 238.683 78.7983 238.519 78.2197 238.193C77.6503 237.866 77.2023 237.404 76.8757 236.807C76.549 236.2 76.3857 235.5 76.3857 234.707C76.3857 233.913 76.5443 233.218 76.8617 232.621C77.179 232.023 77.6223 231.566 78.1917 231.249C78.7703 230.922 79.433 230.759 80.1797 230.759C80.9077 230.759 81.5517 230.917 82.1117 231.235C82.6717 231.552 83.101 231.991 83.3997 232.551C83.7077 233.101 83.8617 233.727 83.8617 234.427ZM82.5457 234.161C82.5457 233.675 82.4383 233.26 82.2237 232.915C82.009 232.56 81.715 232.294 81.3417 232.117C80.9777 231.93 80.5717 231.837 80.1237 231.837C79.4797 231.837 78.929 232.042 78.4717 232.453C78.0237 232.863 77.767 233.433 77.7017 234.161H82.5457ZM86.6773 228.197V238.557H85.4033V228.197H86.6773ZM89.3666 229.639C89.124 229.639 88.9186 229.555 88.7506 229.387C88.5826 229.219 88.4986 229.013 88.4986 228.771C88.4986 228.528 88.5826 228.323 88.7506 228.155C88.9186 227.987 89.124 227.903 89.3666 227.903C89.6 227.903 89.796 227.987 89.9546 228.155C90.1226 228.323 90.2066 228.528 90.2066 228.771C90.2066 229.013 90.1226 229.219 89.9546 229.387C89.796 229.555 89.6 229.639 89.3666 229.639ZM89.9826 230.885V238.557H88.7086V230.885H89.9826ZM94.8699 237.381L97.2499 230.885H98.6079L95.5979 238.557H94.1139L91.1039 230.885H92.4759L94.8699 237.381ZM106.722 234.427C106.722 234.669 106.708 234.926 106.68 235.197H100.548C100.594 235.953 100.851 236.545 101.318 236.975C101.794 237.395 102.368 237.605 103.04 237.605C103.59 237.605 104.048 237.479 104.412 237.227C104.785 236.965 105.046 236.62 105.196 236.191H106.568C106.362 236.928 105.952 237.53 105.336 237.997C104.72 238.454 103.954 238.683 103.04 238.683C102.312 238.683 101.658 238.519 101.08 238.193C100.51 237.866 100.062 237.404 99.7356 236.807C99.4089 236.2 99.2456 235.5 99.2456 234.707C99.2456 233.913 99.4043 233.218 99.7216 232.621C100.039 232.023 100.482 231.566 101.052 231.249C101.63 230.922 102.293 230.759 103.04 230.759C103.768 230.759 104.412 230.917 104.972 231.235C105.532 231.552 105.961 231.991 106.26 232.551C106.568 233.101 106.722 233.727 106.722 234.427ZM105.406 234.161C105.406 233.675 105.298 233.26 105.084 232.915C104.869 232.56 104.575 232.294 104.202 232.117C103.838 231.93 103.432 231.837 102.984 231.837C102.34 231.837 101.789 232.042 101.332 232.453C100.884 232.863 100.627 233.433 100.562 234.161H105.406ZM109.537 232.131C109.761 231.692 110.079 231.351 110.489 231.109C110.909 230.866 111.418 230.745 112.015 230.745V232.061H111.679C110.251 232.061 109.537 232.835 109.537 234.385V238.557H108.263V230.885H109.537V232.131ZM112.87 234.693C112.87 233.909 113.029 233.223 113.346 232.635C113.663 232.037 114.097 231.575 114.648 231.249C115.208 230.922 115.829 230.759 116.51 230.759C117.182 230.759 117.765 230.903 118.26 231.193C118.755 231.482 119.123 231.846 119.366 232.285V230.885H120.654V238.557H119.366V237.129C119.114 237.577 118.736 237.95 118.232 238.249C117.737 238.538 117.159 238.683 116.496 238.683C115.815 238.683 115.199 238.515 114.648 238.179C114.097 237.843 113.663 237.371 113.346 236.765C113.029 236.158 112.87 235.467 112.87 234.693ZM119.366 234.707C119.366 234.128 119.249 233.624 119.016 233.195C118.783 232.765 118.465 232.439 118.064 232.215C117.672 231.981 117.238 231.865 116.762 231.865C116.286 231.865 115.852 231.977 115.46 232.201C115.068 232.425 114.755 232.751 114.522 233.181C114.289 233.61 114.172 234.114 114.172 234.693C114.172 235.281 114.289 235.794 114.522 236.233C114.755 236.662 115.068 236.993 115.46 237.227C115.852 237.451 116.286 237.563 116.762 237.563C117.238 237.563 117.672 237.451 118.064 237.227C118.465 236.993 118.783 236.662 119.016 236.233C119.249 235.794 119.366 235.285 119.366 234.707ZM123.941 232.313C124.202 231.855 124.585 231.482 125.089 231.193C125.593 230.903 126.167 230.759 126.811 230.759C127.501 230.759 128.122 230.922 128.673 231.249C129.223 231.575 129.657 232.037 129.975 232.635C130.292 233.223 130.451 233.909 130.451 234.693C130.451 235.467 130.292 236.158 129.975 236.765C129.657 237.371 129.219 237.843 128.659 238.179C128.108 238.515 127.492 238.683 126.811 238.683C126.148 238.683 125.565 238.538 125.061 238.249C124.566 237.959 124.193 237.591 123.941 237.143V238.557H122.667V228.197H123.941V232.313ZM129.149 234.693C129.149 234.114 129.032 233.61 128.799 233.181C128.565 232.751 128.248 232.425 127.847 232.201C127.455 231.977 127.021 231.865 126.545 231.865C126.078 231.865 125.644 231.981 125.243 232.215C124.851 232.439 124.533 232.77 124.291 233.209C124.057 233.638 123.941 234.137 123.941 234.707C123.941 235.285 124.057 235.794 124.291 236.233C124.533 236.662 124.851 236.993 125.243 237.227C125.644 237.451 126.078 237.563 126.545 237.563C127.021 237.563 127.455 237.451 127.847 237.227C128.248 236.993 128.565 236.662 128.799 236.233C129.032 235.794 129.149 235.281 129.149 234.693ZM132.646 229.639C132.403 229.639 132.198 229.555 132.03 229.387C131.862 229.219 131.778 229.013 131.778 228.771C131.778 228.528 131.862 228.323 132.03 228.155C132.198 227.987 132.403 227.903 132.646 227.903C132.879 227.903 133.075 227.987 133.234 228.155C133.402 228.323 133.486 228.528 133.486 228.771C133.486 229.013 133.402 229.219 133.234 229.387C133.075 229.555 132.879 229.639 132.646 229.639ZM133.262 230.885V238.557H131.988V230.885H133.262ZM136.567 228.197V238.557H135.293V228.197H136.567ZM139.256 229.639C139.014 229.639 138.808 229.555 138.64 229.387C138.472 229.219 138.388 229.013 138.388 228.771C138.388 228.528 138.472 228.323 138.64 228.155C138.808 227.987 139.014 227.903 139.256 227.903C139.49 227.903 139.686 227.987 139.844 228.155C140.012 228.323 140.096 228.528 140.096 228.771C140.096 229.013 140.012 229.219 139.844 229.387C139.686 229.555 139.49 229.639 139.256 229.639ZM139.872 230.885V238.557H138.598V230.885H139.872ZM143.458 231.935V236.457C143.458 236.83 143.537 237.096 143.696 237.255C143.854 237.404 144.13 237.479 144.522 237.479H145.46V238.557H144.312C143.602 238.557 143.07 238.393 142.716 238.067C142.361 237.74 142.184 237.203 142.184 236.457V231.935H141.19V230.885H142.184V228.953H143.458V230.885H145.46V231.935H143.458ZM153.471 230.885L148.851 242.169H147.535L149.047 238.473L145.953 230.885H147.367L149.775 237.101L152.155 230.885H153.471Z" fill="#758282"/>
<defs>
<filter id="filter0_d_2_324" x="0.111545" y="0.77832" width="248.889" height="304" filterUnits="userSpaceOnUse" color-interpolation-filters="sRGB">
<feFlood flood-opacity="0" result="BackgroundImageFix"/>
<feColorMatrix in="SourceAlpha" type="matrix" values="0 0 0 0 0 0 0 0 0 0 0 0 0 0 0 0 0 0 127 0" result="hardAlpha"/>
<feMorphology radius="1.77778" operator="erode" in="SourceAlpha" result="effect1_dropShadow_2_324"/>
<feOffset dy="7.11111"/>
<feGaussianBlur stdDeviation="4.44444"/>
<feComposite in2="hardAlpha" operator="out"/>
<feColorMatrix type="matrix" values="0 0 0 0 0.403715 0 0 0 0 0.522691 0 0 0 0 0.641667 0 0 0 0.22 0"/>
<feBlend mode="normal" in2="BackgroundImageFix" result="effect1_dropShadow_2_324"/>
<feBlend mode="normal" in="SourceGraphic" in2="effect1_dropShadow_2_324" result="shape"/>
</filter>
<filter id="filter1_d_2_324" x="151.79" y="34.0129" width="29.2411" height="29.2412" filterUnits="userSpaceOnUse" color-interpolation-filters="sRGB">
<feFlood flood-opacity="0" result="BackgroundImageFix"/>
<feColorMatrix in="SourceAlpha" type="matrix" values="0 0 0 0 0 0 0 0 0 0 0 0 0 0 0 0 0 0 127 0" result="hardAlpha"/>
<feOffset dx="0.812252" dy="2.43676"/>
<feGaussianBlur stdDeviation="1.6245"/>
<feComposite in2="hardAlpha" operator="out"/>
<feColorMatrix type="matrix" values="0 0 0 0 0.192157 0 0 0 0 0.172549 0 0 0 0 0.27451 0 0 0 0.18 0"/>
<feBlend mode="normal" in2="BackgroundImageFix" result="effect1_dropShadow_2_324"/>
<feBlend mode="normal" in="SourceGraphic" in2="effect1_dropShadow_2_324" result="shape"/>
</filter>
<filter id="filter2_d_2_324" x="151.79" y="69.5686" width="29.2411" height="29.2412" filterUnits="userSpaceOnUse" color-interpolation-filters="sRGB">
<feFlood flood-opacity="0" result="BackgroundImageFix"/>
<feColorMatrix in="SourceAlpha" type="matrix" values="0 0 0 0 0 0 0 0 0 0 0 0 0 0 0 0 0 0 127 0" result="hardAlpha"/>
<feOffset dx="0.812252" dy="2.43676"/>
<feGaussianBlur stdDeviation="1.6245"/>
<feComposite in2="hardAlpha" operator="out"/>
<feColorMatrix type="matrix" values="0 0 0 0 0.192157 0 0 0 0 0.172549 0 0 0 0 0.27451 0 0 0 0.18 0"/>
<feBlend mode="normal" in2="BackgroundImageFix" result="effect1_dropShadow_2_324"/>
<feBlend mode="normal" in="SourceGraphic" in2="effect1_dropShadow_2_324" result="shape"/>
</filter>
<filter id="filter3_d_2_324" x="151.79" y="105.124" width="29.2411" height="29.2412" filterUnits="userSpaceOnUse" color-interpolation-filters="sRGB">
<feFlood flood-opacity="0" result="BackgroundImageFix"/>
<feColorMatrix in="SourceAlpha" type="matrix" values="0 0 0 0 0 0 0 0 0 0 0 0 0 0 0 0 0 0 127 0" result="hardAlpha"/>
<feOffset dx="0.812252" dy="2.43676"/>
<feGaussianBlur stdDeviation="1.6245"/>
<feComposite in2="hardAlpha" operator="out"/>
<feColorMatrix type="matrix" values="0 0 0 0 0.192157 0 0 0 0 0.172549 0 0 0 0 0.27451 0 0 0 0.18 0"/>
<feBlend mode="normal" in2="BackgroundImageFix" result="effect1_dropShadow_2_324"/>
<feBlend mode="normal" in="SourceGraphic" in2="effect1_dropShadow_2_324" result="shape"/>
</filter>
<linearGradient id="paint0_linear_2_324" x1="92.11" y1="42.5557" x2="92.11" y2="56.7779" gradientUnits="userSpaceOnUse">
<stop stop-color="#95A4F2"/>
<stop offset="1" stop-color="#9150EB"/>
</linearGradient>
<linearGradient id="paint1_linear_2_324" x1="92.1081" y1="78.1113" x2="92.1081" y2="92.3336" gradientUnits="userSpaceOnUse">
<stop stop-color="#95A4F2"/>
<stop offset="1" stop-color="#9150EB"/>
</linearGradient>
<linearGradient id="paint2_linear_2_324" x1="92.11" y1="113.668" x2="92.11" y2="127.89" gradientUnits="userSpaceOnUse">
<stop stop-color="#95A4F2"/>
<stop offset="1" stop-color="#9150EB"/>
</linearGradient>
<linearGradient id="paint3_linear_2_324" x1="165.598" y1="34.8252" x2="165.598" y2="57.5683" gradientUnits="userSpaceOnUse">
<stop stop-color="#33A0FF"/>
<stop offset="1" stop-color="#36D5EB"/>
</linearGradient>
<linearGradient id="paint4_linear_2_324" x1="165.598" y1="70.3809" x2="165.598" y2="93.1239" gradientUnits="userSpaceOnUse">
<stop stop-color="#33A0FF"/>
<stop offset="1" stop-color="#36D5EB"/>
</linearGradient>
<linearGradient id="paint5_linear_2_324" x1="165.598" y1="105.937" x2="165.598" y2="128.68" gradientUnits="userSpaceOnUse">
<stop stop-color="#33A0FF"/>
<stop offset="1" stop-color="#36D5EB"/>
</linearGradient>
</defs>
</svg>
