<svg width="110" height="110" viewBox="0 0 110 110" fill="none" xmlns="http://www.w3.org/2000/svg">
<g filter="url(#filter0_d_2_2383)">
<rect x="20" y="10" width="70" height="70" rx="20" fill="url(#paint0_linear_2_2383)"/>
</g>
<path d="M36.6 59.7059C36.6 60.2912 37.0736 60.7646 37.6588 60.7646H71.5411C72.1264 60.7646 72.5999 60.291 72.5999 59.7059V39.5882H36.6V59.7059ZM55.6588 43.8235C55.6588 43.2382 56.1324 42.7648 56.7175 42.7648H65.1881C65.7734 42.7648 66.2469 43.2384 66.2469 43.8235V56.5294C66.2469 57.1146 65.7733 57.5882 65.1881 57.5882H56.7175C56.1322 57.5882 55.6588 57.1146 55.6588 56.5294V43.8235ZM42.9529 43.8235C42.9529 43.2382 43.4265 42.7648 44.0117 42.7648H52.4823C53.0676 42.7648 53.5411 43.2384 53.5411 43.8235V48.0588C53.5411 48.6441 53.0675 49.1176 52.4823 49.1176H44.0117C43.4264 49.1176 42.9529 48.644 42.9529 48.0588V43.8235ZM44.0117 51.2352H52.4823C53.0676 51.2352 53.5411 51.7088 53.5411 52.294C53.5411 52.8792 53.0675 53.3528 52.4823 53.3528H44.0117C43.4264 53.3528 42.9529 52.8792 42.9529 52.294C42.9529 51.7088 43.4265 51.2352 44.0117 51.2352ZM44.0117 55.4705H52.4823C53.0676 55.4705 53.5411 55.9441 53.5411 56.5294C53.5411 57.1146 53.0675 57.5882 52.4823 57.5882H44.0117C43.4264 57.5882 42.9529 57.1146 42.9529 56.5294C42.9529 55.9441 43.4265 55.4705 44.0117 55.4705ZM64.1294 44.8823H57.7764V55.4705H64.1294V44.8823ZM51.4235 44.8823H45.0706V47H51.4235V44.8823ZM71.5412 29H37.6588C37.0735 29 36.6 29.4736 36.6 30.0588V37.4705H72.6V30.0588C72.6 29.4735 72.1264 29 71.5412 29ZM41.8941 34.294C41.3094 34.294 40.8353 33.8199 40.8353 33.2352C40.8353 32.6504 41.3094 32.1765 41.8941 32.1765C42.4788 32.1765 42.9529 32.6504 42.9529 33.2352C42.9529 33.8199 42.4788 34.294 41.8941 34.294ZM46.1294 34.294C45.5447 34.294 45.0706 33.8199 45.0706 33.2352C45.0706 32.6504 45.5447 32.1765 46.1294 32.1765C46.7141 32.1765 47.1881 32.6504 47.1881 33.2352C47.1883 33.8199 46.7141 34.294 46.1294 34.294ZM50.3647 34.294C49.78 34.294 49.3059 33.8199 49.3059 33.2352C49.3059 32.6504 49.78 32.1765 50.3647 32.1765C50.9494 32.1765 51.4235 32.6504 51.4235 33.2352C51.4235 33.8199 50.9494 34.294 50.3647 34.294ZM67.3058 34.294H58.8352C58.2499 34.294 57.7764 33.8204 57.7764 33.2352C57.7764 32.6501 58.25 32.1765 58.8352 32.1765H67.3058C67.8911 32.1765 68.3646 32.6501 68.3646 33.2352C68.3647 33.8205 67.8911 34.294 67.3058 34.294Z" fill="white"/>
<defs>
<filter id="filter0_d_2_2383" x="0" y="0" width="110" height="110" filterUnits="userSpaceOnUse" color-interpolation-filters="sRGB">
<feFlood flood-opacity="0" result="BackgroundImageFix"/>
<feColorMatrix in="SourceAlpha" type="matrix" values="0 0 0 0 0 0 0 0 0 0 0 0 0 0 0 0 0 0 127 0" result="hardAlpha"/>
<feMorphology radius="2" operator="erode" in="SourceAlpha" result="effect1_dropShadow_2_2383"/>
<feOffset dy="10"/>
<feGaussianBlur stdDeviation="11"/>
<feComposite in2="hardAlpha" operator="out"/>
<feColorMatrix type="matrix" values="0 0 0 0 0.427451 0 0 0 0 0.670588 0 0 0 0 1 0 0 0 0.36 0"/>
<feBlend mode="normal" in2="BackgroundImageFix" result="effect1_dropShadow_2_2383"/>
<feBlend mode="normal" in="SourceGraphic" in2="effect1_dropShadow_2_2383" result="shape"/>
</filter>
<linearGradient id="paint0_linear_2_2383" x1="20" y1="10" x2="90" y2="80" gradientUnits="userSpaceOnUse">
<stop stop-color="#5CA1FE"/>
<stop offset="1" stop-color="#217BF4"/>
</linearGradient>
</defs>
</svg>
