<svg width="110" height="110" viewBox="0 0 110 110" fill="none" xmlns="http://www.w3.org/2000/svg">
<g filter="url(#filter0_d_2_2397)">
<rect x="20" y="10" width="70" height="70" rx="20" fill="url(#paint0_linear_2_2397)"/>
</g>
<path d="M60.9444 41.4409C61.1775 41.9235 61.3356 42.4083 61.56 42.8713C61.7379 43.1806 61.999 43.4338 62.3136 43.602C62.6282 43.7702 62.9838 43.8467 63.3397 43.8227C63.6957 43.7988 64.0378 43.6755 64.3271 43.4667C64.6164 43.258 64.8413 42.9722 64.9762 42.6419C65.8254 40.4579 66.9145 38.3749 68.2234 36.4313C68.6803 35.6861 68.965 34.8483 69.0569 33.979C69.1487 33.1097 69.0454 32.2309 68.7544 31.4066C68.4635 30.5823 67.9922 29.8334 67.3749 29.2144C66.7577 28.5955 66.0101 28.1221 65.1867 27.8288C64.3632 27.5355 63.4847 27.4297 62.6152 27.5191C61.7456 27.6085 60.907 27.8909 60.1605 28.3456C59.414 28.8003 58.7783 29.416 58.3 30.1476C57.8216 30.8792 57.5126 31.7084 57.3955 32.5746C57.2031 33.9419 57.5049 35.333 58.2465 36.4977C59.2668 38.0764 60.1686 39.7287 60.9444 41.4409ZM63.2138 29.8404C63.7993 29.8396 64.3757 29.9846 64.8911 30.2623C65.4065 30.54 65.8446 30.9417 66.1659 31.4311C66.4873 31.9205 66.6817 32.4822 66.7316 33.0655C66.7815 33.6488 66.6855 34.2354 66.452 34.7722C66.2185 35.3091 65.8551 35.7794 65.3944 36.1407C64.9337 36.502 64.3903 36.7429 63.8133 36.8416C63.2362 36.9403 62.6436 36.8938 62.089 36.7063C61.5345 36.5187 61.0353 36.196 60.6366 35.7673C60.176 35.2626 59.8712 34.6355 59.7591 33.9614C59.647 33.2874 59.7323 32.5954 60.0048 31.9687C60.2772 31.3421 60.7252 30.8078 61.2946 30.4301C61.8641 30.0525 62.5306 29.8477 63.2138 29.8404ZM63.2138 31.0475C63.8261 31.0523 64.4117 31.299 64.843 31.7336C65.2743 32.1683 65.5163 32.7558 65.5163 33.3682C65.5163 33.9805 65.2743 34.5681 64.843 35.0027C64.4118 35.4374 63.8262 35.6841 63.2138 35.6889C62.6015 35.6841 62.0159 35.4375 61.5846 35.0028C61.1533 34.5681 60.9113 33.9806 60.9113 33.3682C60.9113 32.7559 61.1533 32.1684 61.5846 31.7337C62.0159 31.299 62.6015 31.0524 63.2138 31.0475ZM71.2171 48.0801C70.8429 51.4111 69.4424 54.5433 67.2093 57.043C66.0003 54.0239 64.2292 50.0554 60.4374 50.0839C59.2517 50.0929 58.1059 50.5139 57.1964 51.2747C56.2869 52.0356 55.6702 53.089 55.452 54.2545L55.1381 55.9988C55.056 56.4622 54.8257 56.8863 54.4817 57.2075C54.1377 57.5286 53.6988 57.7293 53.2309 57.7794L52.4523 57.8638C51.4262 57.9664 49.5733 58.1596 48.7042 59.928C48.5318 60.2962 48.41 60.686 48.342 61.0869C47.4166 60.68 46.5314 60.1869 45.6984 59.6142L45.6985 58.1174C45.6551 57.2142 45.7062 56.1951 46.4167 55.5401C46.6983 55.2619 47.0403 55.0524 47.4161 54.9278C47.7919 54.8033 48.1914 54.767 48.5835 54.8219C49.1389 54.8214 49.6838 54.6701 50.16 54.3841C50.6362 54.0982 51.0259 53.6883 51.2874 53.1983C51.7539 52.3254 51.885 51.3121 51.656 50.3493C51.4269 49.3865 50.8536 48.5407 50.0441 47.9714L45.8855 45.0502C45.8264 45.009 45.7809 44.9511 45.755 44.8839C45.7291 44.8167 45.724 44.7433 45.7402 44.6731C45.7565 44.603 45.7934 44.5393 45.8461 44.4903C45.8989 44.4413 45.9652 44.4093 46.0364 44.3983C46.4276 44.3431 46.8027 44.2061 47.1375 43.9964C47.4722 43.7866 47.7591 43.5088 47.9794 43.1809C48.1997 42.853 48.3486 42.4824 48.4162 42.0931C48.4839 41.7039 48.4689 41.3048 48.3722 40.9218C48.3138 40.6917 48.3072 40.4515 48.3528 40.2186C48.3985 39.9856 48.4952 39.7657 48.636 39.5746C48.7769 39.3835 48.9584 39.2261 49.1674 39.1136C49.3764 39.0011 49.6078 38.9363 49.8449 38.924L51.4382 38.8455C52.2159 38.7991 52.9507 38.4734 53.5072 37.9282C54.0637 37.3831 54.4046 36.6552 54.4671 35.8787C54.5295 35.1021 54.3094 34.3292 53.8471 33.7021C53.3848 33.075 52.7116 32.636 51.9513 32.4659C50.9432 32.1994 48.9038 31.6597 47.9015 31.3916C50.6728 30.0563 53.7657 29.5331 56.8221 29.8826L57.0394 29.9188C56.4155 31.0278 56.1035 32.285 56.1365 33.557C56.1694 34.8289 56.5461 36.0683 57.2265 37.1435C58.4305 38.9889 59.4552 40.9454 60.2865 42.986C60.0347 44.1241 60.1185 45.3108 60.5279 46.4021C62.2988 50.4142 66.5139 49.8334 69.9436 48.5146L71.2171 48.0801ZM71.3257 46.7463C68.2122 47.8356 63.5251 49.9969 61.6506 45.9555C61.4628 45.4679 61.3626 44.951 61.3548 44.4285C61.7376 44.7119 62.1803 44.9037 62.6489 44.9892C63.1175 45.0747 63.5994 45.0515 64.0576 44.9215C64.5159 44.7915 64.9382 44.5582 65.292 44.2393C65.6459 43.9205 65.9219 43.5248 66.0988 43.0826C66.846 41.1494 67.7948 39.3003 68.9295 37.566L69.7625 39.1413C70.9026 41.5086 71.4397 44.1212 71.3257 46.7463ZM44.4913 57.3267L44.4915 58.7028C35.9189 51.7357 37.008 37.8456 46.3684 32.2305C47.4518 32.5227 50.546 33.3451 51.6736 33.6429C52.042 33.7239 52.3807 33.9057 52.6518 34.168C52.923 34.4302 53.1159 34.7627 53.2092 35.1282C53.3025 35.4937 53.2924 35.8779 53.18 36.238C53.0677 36.5981 52.8575 36.92 52.573 37.1676C51.9611 37.7774 50.5755 37.649 49.7906 37.7169C49.3756 37.7386 48.9704 37.8518 48.6042 38.0484C48.238 38.2449 47.9198 38.52 47.6724 38.854C47.4249 39.1879 47.2544 39.5724 47.1729 39.98C47.0915 40.3876 47.1012 40.8081 47.2013 41.2115C47.2576 41.4307 47.2671 41.6593 47.229 41.8823C47.1909 42.1054 47.1061 42.3179 46.9802 42.5059C46.8543 42.694 46.6901 42.8533 46.4983 42.9735C46.3066 43.0936 46.0916 43.172 45.8675 43.2033C45.5598 43.2535 45.2739 43.3935 45.0456 43.6058C44.8173 43.8182 44.657 44.0932 44.5847 44.3965C44.5124 44.6997 44.5315 45.0176 44.6394 45.31C44.7474 45.6025 44.9395 45.8565 45.1915 46.04L49.3499 48.9553C51.1842 50.0849 50.9278 53.686 48.4386 53.6087C47.9313 53.5768 47.4228 53.6494 46.9447 53.822C46.4665 53.9945 46.0289 54.2634 45.6589 54.6119C45.2889 54.9605 44.9943 55.3812 44.7935 55.8482C44.5926 56.3151 44.4898 56.8184 44.4913 57.3267ZM66.298 57.9844C64.1423 60.0226 61.4764 61.4411 58.5816 62.0902C55.6868 62.7393 52.6705 62.5949 49.8509 61.6723C49.2014 61.6145 49.6169 60.947 49.8328 60.3867C50.4243 59.2882 51.5892 59.1675 52.5851 59.0649L53.3576 58.9804C54.0854 58.9014 54.7681 58.5888 55.3034 58.0894C55.8387 57.59 56.1978 56.9306 56.3271 56.2101L56.641 54.4718C56.8057 53.5831 57.2747 52.7795 57.9675 52.1991C58.6603 51.6186 59.5336 51.2975 60.4374 51.2911C62.5753 51.2444 64.0536 53.1446 64.946 54.8762C65.2531 55.604 66.0041 57.2712 66.298 57.9844Z" fill="white"/>
<defs>
<filter id="filter0_d_2_2397" x="0" y="0" width="110" height="110" filterUnits="userSpaceOnUse" color-interpolation-filters="sRGB">
<feFlood flood-opacity="0" result="BackgroundImageFix"/>
<feColorMatrix in="SourceAlpha" type="matrix" values="0 0 0 0 0 0 0 0 0 0 0 0 0 0 0 0 0 0 127 0" result="hardAlpha"/>
<feMorphology radius="2" operator="erode" in="SourceAlpha" result="effect1_dropShadow_2_2397"/>
<feOffset dy="10"/>
<feGaussianBlur stdDeviation="11"/>
<feComposite in2="hardAlpha" operator="out"/>
<feColorMatrix type="matrix" values="0 0 0 0 0.427451 0 0 0 0 0.670588 0 0 0 0 1 0 0 0 0.36 0"/>
<feBlend mode="normal" in2="BackgroundImageFix" result="effect1_dropShadow_2_2397"/>
<feBlend mode="normal" in="SourceGraphic" in2="effect1_dropShadow_2_2397" result="shape"/>
</filter>
<linearGradient id="paint0_linear_2_2397" x1="20" y1="10" x2="90" y2="80" gradientUnits="userSpaceOnUse">
<stop stop-color="#5CA1FE"/>
<stop offset="1" stop-color="#217BF4"/>
</linearGradient>
</defs>
</svg>
