<svg width="16" height="16" viewBox="0 0 16 16" fill="none" xmlns="http://www.w3.org/2000/svg">
<path d="M13.6 2.28613H2.4C1.76348 2.28613 1.15303 2.53899 0.702944 2.98908C0.252856 3.43916 0 4.04961 0 4.68613V11.8861C0 12.5227 0.252856 13.1331 0.702944 13.5832C1.15303 14.0333 1.76348 14.2861 2.4 14.2861H13.6C14.2365 14.2861 14.847 14.0333 15.2971 13.5832C15.7471 13.1331 16 12.5227 16 11.8861V4.68613C16 4.04961 15.7471 3.43916 15.2971 2.98908C14.847 2.53899 14.2365 2.28613 13.6 2.28613ZM14.4 11.8861C14.4 12.0983 14.3157 12.3018 14.1657 12.4518C14.0157 12.6018 13.8122 12.6861 13.6 12.6861H2.4C2.18783 12.6861 1.98434 12.6018 1.83431 12.4518C1.68429 12.3018 1.6 12.0983 1.6 11.8861V7.08613H14.4V11.8861ZM14.4 5.48613H1.6V4.68613C1.6 4.47396 1.68429 4.27048 1.83431 4.12045C1.98434 3.97042 2.18783 3.88613 2.4 3.88613H13.6C13.8122 3.88613 14.0157 3.97042 14.1657 4.12045C14.3157 4.27048 14.4 4.47396 14.4 4.68613V5.48613Z" fill="#8A8A8A"/>
</svg>
