<svg width="110" height="110" viewBox="0 0 110 110" fill="none" xmlns="http://www.w3.org/2000/svg">
<g filter="url(#filter0_d_2_2377)">
<rect x="20" y="10" width="70" height="70" rx="20" fill="url(#paint0_linear_2_2377)"/>
</g>
<path d="M42.3672 47.4203C43.9594 47.4203 45.4008 46.7734 46.4445 45.7305C47.4898 44.6875 48.1343 43.2461 48.1343 41.6531C48.1343 40.0602 47.4898 38.6195 46.4445 37.5742C45.4015 36.5312 43.9601 35.8867 42.3672 35.8867C40.7742 35.8867 39.3336 36.5312 38.2898 37.5742C37.2445 38.6195 36.6 40.0609 36.6 41.6531C36.6 43.2453 37.2445 44.6867 38.2898 45.7305C39.3328 46.7742 40.775 47.4203 42.3672 47.4203ZM40.407 42.3672C40.7461 42.2273 41.1359 42.3867 41.2773 42.7258C41.3218 42.8344 41.3726 42.932 41.432 43.0203C41.6336 43.3281 41.9039 43.5055 42.1804 43.5805C42.464 43.6578 42.7515 43.6336 42.9867 43.5359C43.0398 43.5141 43.0906 43.4875 43.1398 43.4539C43.182 43.4273 43.2172 43.3984 43.2461 43.3695C43.3328 43.2812 43.3875 43.1703 43.4031 43.0594C43.4164 42.9594 43.3945 42.8555 43.332 42.7586C43.3078 42.7234 43.2812 42.6875 43.25 42.6586C43.1281 42.5391 42.8023 42.4641 42.4594 42.382C41.8633 42.2422 41.2281 42.0922 40.7273 41.5758C40.539 41.3828 40.4015 41.1531 40.3179 40.907C40.207 40.5813 40.1875 40.225 40.2625 39.8859C40.3375 39.543 40.5101 39.2102 40.7851 38.9445C40.982 38.7516 41.2304 38.5945 41.5289 38.493C41.582 38.475 41.6398 38.4578 41.6992 38.4422V37.8711C41.6992 37.5031 41.9984 37.2047 42.3656 37.2047C42.7336 37.2047 43.032 37.5039 43.032 37.8711V38.4156C43.1383 38.4398 43.2445 38.4711 43.3445 38.5086C43.9047 38.7148 44.3742 39.118 44.5867 39.7484C44.6047 39.7992 44.6219 39.8547 44.6375 39.9164C44.7242 40.2727 44.507 40.6336 44.15 40.7203C43.7937 40.8086 43.4328 40.5898 43.3437 40.2328C43.339 40.2148 43.3351 40.1953 43.3258 40.1727C43.257 39.9688 43.089 39.8313 42.8875 39.7563C42.739 39.7031 42.5773 39.6766 42.4133 39.6789H42.3515C42.2515 39.6836 42.1547 39.6992 42.0617 39.7211C42.0265 39.7297 41.9906 39.7406 41.9531 39.7523C41.8515 39.7875 41.7695 39.8391 41.7093 39.8961C41.6343 39.9711 41.5851 40.0664 41.5633 40.1664C41.539 40.2727 41.5453 40.3813 41.5765 40.4789C41.5984 40.543 41.6344 40.6031 41.6781 40.6492C41.9062 40.8836 42.3469 40.9883 42.7586 41.0852C43.2875 41.2094 43.7859 41.3266 44.1734 41.7055C44.282 41.8094 44.3703 41.918 44.4437 42.0289C44.6914 42.4078 44.7734 42.8305 44.7179 43.2359C44.6648 43.6305 44.4812 44.0047 44.1953 44.2945C44.0953 44.3984 43.9851 44.4898 43.8672 44.5672C43.7523 44.6422 43.6281 44.7086 43.4953 44.7641C43.3492 44.8242 43.1922 44.8727 43.0304 44.9055V45.4344C43.0304 45.8023 42.7312 46.1008 42.364 46.1008C41.9961 46.1008 41.6976 45.8016 41.6976 45.4344V44.8258C41.175 44.6531 40.6789 44.3055 40.3133 43.7477C40.2133 43.5945 40.1226 43.4242 40.0453 43.2359C39.9062 42.8984 40.0679 42.5086 40.407 42.3672ZM36.9461 50.7648C36.7336 50.5523 36.6008 50.2578 36.6008 49.9344C36.6008 49.6086 36.7336 49.3141 36.9461 49.1016C37.1609 48.8867 37.4554 48.7539 37.7789 48.7539H46.9562C47.2797 48.7539 47.5742 48.8867 47.789 49.1016C48.0015 49.3141 48.1343 49.6086 48.1343 49.9344C48.1343 50.2578 48.0015 50.5523 47.789 50.7648C47.5742 50.9797 47.2797 51.1125 46.9562 51.1125H37.7781C37.4554 51.1125 37.1609 50.9797 36.9461 50.7648ZM45.3211 54.1195C45.1594 54.3453 45.0133 54.5734 44.8804 54.8039H37.7781C37.4547 54.8039 37.1601 54.6711 36.9453 54.4563C36.7328 54.2438 36.6 53.9492 36.6 53.6258C36.6 53.3 36.7328 53.0055 36.9453 52.793C37.1601 52.5781 37.4547 52.4453 37.7781 52.4453H46.9711C46.6695 52.6687 46.3843 52.9148 46.1203 53.1781C45.8304 53.4664 45.5648 53.7828 45.3211 54.1195ZM37.7781 56.1367H44.2804C44.1695 56.4648 44.0812 56.7992 44.0172 57.1352C43.9289 57.5844 43.8797 58.0391 43.8734 58.4945H37.7781C37.4547 58.4945 37.1601 58.3617 36.9453 58.1469C36.7328 57.9344 36.6 57.6398 36.6 57.3164C36.6 56.9906 36.7328 56.6961 36.9453 56.4836C37.1609 56.2695 37.4554 56.1367 37.7781 56.1367ZM69.9758 38.3609C68.2148 35.9383 65.75 33.8945 62.9375 32.5281C62.4992 32.668 62.0187 32.7781 61.5109 32.8539C60.9883 32.9313 60.4328 32.9734 59.8586 32.9734C59.2851 32.9734 58.7289 32.9313 58.2062 32.8539C57.6992 32.7789 57.2211 32.668 56.7797 32.5281C55.2031 33.2945 53.7304 34.2773 52.4281 35.425C51.1101 36.5852 49.9703 37.9117 49.0797 39.3445C49.1883 39.6609 49.2742 39.9844 49.339 40.3148C49.4211 40.7531 49.4656 41.2008 49.4656 41.6547C49.4656 42.7711 49.2062 43.8312 48.7414 44.7773C48.3117 45.65 47.7117 46.4203 46.9804 47.0477C46.9875 47.1477 46.9961 47.2516 47.0047 47.3625L47.0117 47.4227C47.6804 47.4383 48.2851 47.7172 48.7281 48.1602C49.1844 48.6141 49.4656 49.243 49.4656 49.9359C49.4656 50.4633 49.2992 50.957 49.0179 51.3625C50.2203 50.9438 51.507 50.8313 52.7539 51.0211C54.3195 51.2625 55.8234 51.982 57.0234 53.1805C57.8203 53.9773 58.4054 54.9148 58.7797 55.918C59.0898 56.7461 59.2539 57.6164 59.2687 58.4867C59.4367 58.493 59.632 58.4977 59.8578 58.4977C63.4273 58.4977 66.6586 57.1336 68.9953 54.9258C71.3187 52.7289 72.7554 49.6953 72.7554 46.3445C72.7578 43.507 71.7148 40.75 69.9758 38.3609ZM63.0867 48.1578C63.0156 48.6828 62.7703 49.1813 62.3914 49.5688C62.2562 49.7086 62.1078 49.8297 61.9484 49.9344C61.7937 50.0359 61.6226 50.1273 61.4437 50.2023C61.1578 50.3195 60.8476 50.4016 60.5265 50.4414V51.5352C60.5265 51.9031 60.2273 52.2016 59.8601 52.2016C59.4922 52.2016 59.1937 51.9023 59.1937 51.5352V50.3547C59.1781 50.35 59.1625 50.3461 59.1468 50.3414C58.3539 50.1289 57.5945 49.6352 57.0429 48.7938C56.9015 48.5789 56.775 48.3375 56.6617 48.0719C56.5218 47.7328 56.682 47.343 57.0226 47.2039C57.3617 47.0625 57.7515 47.2242 57.8906 47.5625C57.9679 47.7461 58.057 47.9125 58.1562 48.0633C58.5109 48.6055 58.9929 48.9227 59.4914 49.0578C59.9922 49.193 60.5078 49.1508 60.9312 48.9734C61.0328 48.9312 61.1281 48.8805 61.2195 48.8203C61.3015 48.7672 61.3742 48.707 61.4367 48.643C61.6179 48.457 61.7359 48.2219 61.7687 47.9805C61.8 47.7523 61.7531 47.5109 61.6093 47.2914C61.5609 47.2164 61.5031 47.1477 61.4367 47.0813C61.1843 46.8352 60.6461 46.7094 60.0773 46.5766C59.2226 46.3727 58.3125 46.1578 57.6211 45.4492C57.3734 45.1969 57.1937 44.8914 57.0828 44.5633C56.9343 44.1289 56.9078 43.6531 57.0078 43.2016C57.1078 42.743 57.3375 42.3023 57.7031 41.9484C57.9664 41.6891 58.2992 41.4812 58.7 41.3438C58.7953 41.3125 58.8968 41.282 59.0015 41.257C59.0656 41.2414 59.1297 41.2258 59.1945 41.2148V40.0742C59.1945 39.7063 59.4937 39.4078 59.8609 39.4078C60.2289 39.4078 60.5273 39.707 60.5273 40.0742V41.1859C60.7664 41.2211 61.0031 41.2789 61.2273 41.3633C61.9828 41.6422 62.6156 42.1828 62.9039 43.0289C62.9258 43.1 62.9484 43.175 62.9679 43.257C63.0562 43.6133 62.8398 43.9742 62.4804 44.0609C62.1242 44.1492 61.7648 43.9305 61.6765 43.5734C61.6679 43.5359 61.6562 43.4961 61.6414 43.4563C61.5 43.0352 61.1672 42.7609 60.7687 42.6125C60.4984 42.5125 60.2015 42.4688 59.9054 42.4727C59.8922 42.4727 59.8765 42.475 59.8609 42.475H59.8523C59.6711 42.482 59.4914 42.5063 59.3187 42.5484C59.257 42.5641 59.1922 42.582 59.1281 42.6039C58.9219 42.675 58.7586 42.7766 58.6297 42.9008C58.4633 43.0625 58.357 43.2687 58.3109 43.4836C58.2625 43.7047 58.2734 43.9328 58.3445 44.1367C58.3929 44.2828 58.4711 44.4156 58.5773 44.5242C58.9937 44.9516 59.7093 45.1203 60.382 45.2797C61.1351 45.457 61.8461 45.625 62.3664 46.1305C62.5078 46.2703 62.6273 46.4164 62.725 46.5648C63.0508 47.0641 63.1593 47.6219 63.0867 48.1578ZM55.3468 26.4328C55.2515 26.2094 55.2297 25.9742 55.2781 25.7555C55.325 25.5359 55.4398 25.3328 55.6148 25.175C55.7258 25.0734 55.8609 25.018 55.9961 25.007C56.1359 24.9961 56.2773 25.0289 56.4039 25.1086L56.8867 25.4188C57.2164 25.6289 57.5844 25.7352 57.9539 25.7352V25.7375C58.3195 25.7375 58.6867 25.6313 59.0187 25.4188L59.5078 25.1039C59.6187 25.0328 59.7383 25 59.8601 25C59.982 25 60.1015 25.0336 60.2125 25.1039L60.7015 25.4188C61.0359 25.6313 61.4015 25.7375 61.7687 25.7375C62.1343 25.7375 62.5015 25.6313 62.8336 25.4188L63.3164 25.1086C63.4429 25.0289 63.5843 24.9953 63.7242 25.007C63.8593 25.018 63.9945 25.0734 64.1054 25.175C64.2804 25.332 64.3953 25.5359 64.4422 25.7555C64.4906 25.975 64.4711 26.2094 64.3734 26.4328L62.2515 31.3445C61.9633 31.4219 61.6539 31.4859 61.3195 31.5352C60.8656 31.6016 60.3742 31.6391 59.8601 31.6391C59.3461 31.6391 58.8547 31.6016 58.4008 31.5352C58.0687 31.4867 57.7562 31.4219 57.4703 31.3445L55.3468 26.4328ZM51.5726 52.2617C49.9359 52.2617 48.3015 52.882 47.0617 54.1219C45.8234 55.3602 45.2039 56.9961 45.2039 58.6305C45.2039 60.2648 45.8242 61.9016 47.0617 63.1391C48.3023 64.3797 49.9367 65 51.5726 65C53.207 65 54.8414 64.3797 56.0812 63.1398C57.3211 61.9016 57.939 60.2656 57.939 58.6313C57.939 56.9969 57.3211 55.3602 56.0812 54.1227C54.8414 52.8812 53.207 52.2617 51.5726 52.2617ZM55.3218 57.2L51.5148 61.0047C51.2554 61.2664 50.8328 61.2664 50.5734 61.0047L47.8211 58.2539C47.5617 57.993 47.5617 57.5719 47.8211 57.3102C48.082 57.0508 48.5031 57.0508 48.7648 57.3102L51.0437 59.5914L54.3789 56.2562C54.6398 55.9953 55.0609 55.9953 55.3226 56.2562C55.5836 56.5156 55.5836 56.9391 55.3218 57.2Z" fill="white"/>
<defs>
<filter id="filter0_d_2_2377" x="0" y="0" width="110" height="110" filterUnits="userSpaceOnUse" color-interpolation-filters="sRGB">
<feFlood flood-opacity="0" result="BackgroundImageFix"/>
<feColorMatrix in="SourceAlpha" type="matrix" values="0 0 0 0 0 0 0 0 0 0 0 0 0 0 0 0 0 0 127 0" result="hardAlpha"/>
<feMorphology radius="2" operator="erode" in="SourceAlpha" result="effect1_dropShadow_2_2377"/>
<feOffset dy="10"/>
<feGaussianBlur stdDeviation="11"/>
<feComposite in2="hardAlpha" operator="out"/>
<feColorMatrix type="matrix" values="0 0 0 0 0.427451 0 0 0 0 0.670588 0 0 0 0 1 0 0 0 0.36 0"/>
<feBlend mode="normal" in2="BackgroundImageFix" result="effect1_dropShadow_2_2377"/>
<feBlend mode="normal" in="SourceGraphic" in2="effect1_dropShadow_2_2377" result="shape"/>
</filter>
<linearGradient id="paint0_linear_2_2377" x1="20" y1="10" x2="90" y2="80" gradientUnits="userSpaceOnUse">
<stop stop-color="#5CA1FE"/>
<stop offset="1" stop-color="#217BF4"/>
</linearGradient>
</defs>
</svg>
