<svg width="110" height="110" viewBox="0 0 110 110" fill="none" xmlns="http://www.w3.org/2000/svg">
<g filter="url(#filter0_d_2_2410)">
<rect x="20" y="10" width="70" height="70" rx="20" fill="url(#paint0_linear_2_2410)"/>
</g>
<path d="M38.2812 37.7783V36.5283C38.2812 35.8408 38.8438 35.2783 39.5312 35.2783H43.2812C43.9687 35.2783 44.5312 35.8408 44.5312 36.5283V37.7783C44.5356 38.4733 43.9501 39.0272 43.2813 39.0283C43.2533 39.0123 39.0417 39.0704 39.2188 38.9846C38.6813 38.847 38.2812 38.3595 38.2812 37.7783ZM39.5312 40.2783C39.425 40.2783 39.3187 40.272 39.2188 40.2533V46.1095H43.5938V40.2533C43.5963 40.3028 39.6508 40.2693 39.5312 40.2783ZM41.4143 34.0293C41.7595 34.0293 42.0393 33.7495 42.0393 33.4043V32.7793C42.0393 32.0899 42.5999 31.5293 43.2893 31.5293H47.6643C48.6983 31.5293 49.5393 30.6882 49.5393 29.6543C49.5393 28.6204 48.6983 27.7793 47.6643 27.7793H43.9143C43.5692 27.7793 43.2893 28.0591 43.2893 28.4043C43.2893 28.7495 43.5692 29.0293 43.9143 29.0293H47.6643C48.0089 29.0293 48.2893 29.3098 48.2893 29.6543C48.2893 29.9988 48.0089 30.2793 47.6643 30.2793H43.2893C41.9109 30.2793 40.7893 31.4008 40.7893 32.7793V33.4043C40.7893 33.7495 41.0692 34.0293 41.4143 34.0293ZM72.5 43.6721V62.222H64.6875V47.1408L72.5 43.6721ZM69.6 59.0033C69.6 59.0033 67.5875 59.0033 67.5875 59.0033C66.7661 59.0146 66.7663 60.238 67.5875 60.2533H69.6C70.4222 60.2378 70.4204 59.0145 69.6 59.0033ZM69.6 55.7783C69.6 55.7783 67.5875 55.7783 67.5875 55.7783C66.7661 55.794 66.7671 57.0127 67.5875 57.0283H69.6C70.4214 57.0126 70.4204 55.7939 69.6 55.7783ZM69.6 52.5533C69.6 52.5533 67.5875 52.5533 67.5875 52.5533C66.7653 52.5688 66.7671 53.7921 67.5875 53.8033H69.6C70.4214 53.792 70.4212 52.5686 69.6 52.5533ZM69.6 49.3346C69.6 49.3346 67.5875 49.3346 67.5875 49.3346C66.7661 49.3503 66.7671 50.569 67.5875 50.5846H69.6C70.4214 50.5688 70.4204 49.3501 69.6 49.3346ZM55.625 47.1408L63.4375 43.6721V62.2221H55.625V47.1408ZM58.525 50.5846C58.525 50.5846 60.5375 50.5846 60.5375 50.5846C61.3589 50.5688 61.3579 49.3501 60.5375 49.3346H58.525C57.7036 49.3503 57.7046 50.569 58.525 50.5846ZM58.525 53.8033C58.525 53.8033 60.5375 53.8033 60.5375 53.8033C61.3589 53.792 61.3587 52.5686 60.5375 52.5533H58.525C57.7028 52.5688 57.7046 53.7921 58.525 53.8033ZM58.525 57.0283C58.525 57.0283 60.5375 57.0283 60.5375 57.0283C61.3589 57.0126 61.3579 55.7939 60.5375 55.7783H58.525C57.7036 55.794 57.7046 57.0127 58.525 57.0283ZM58.525 60.2533C58.525 60.2533 60.5375 60.2533 60.5375 60.2533C61.3597 60.2378 61.3579 59.0145 60.5375 59.0033H58.525C57.7036 59.0146 57.7038 60.238 58.525 60.2533ZM46.5625 47.1408L54.375 43.6721V62.222H46.5625V47.1408ZM49.4625 50.5846C49.4625 50.5846 51.475 50.5846 51.475 50.5846C52.2964 50.5688 52.2954 49.3501 51.475 49.3346H49.4625C48.6411 49.3503 48.6421 50.569 49.4625 50.5846ZM49.4625 53.8033C49.4625 53.8033 51.475 53.8033 51.475 53.8033C52.2964 53.792 52.2962 52.5686 51.475 52.5533H49.4625C48.6403 52.5688 48.6421 53.7921 49.4625 53.8033ZM49.4625 57.0283C49.4625 57.0283 51.475 57.0283 51.475 57.0283C52.2964 57.0126 52.2954 55.7939 51.475 55.7783H49.4625C48.6411 55.794 48.6421 57.0127 49.4625 57.0283ZM49.4625 60.2533C49.4625 60.2533 51.475 60.2533 51.475 60.2533C52.2972 60.2378 52.2954 59.0145 51.475 59.0033H49.4625C48.6411 59.0146 48.6413 60.238 49.4625 60.2533ZM45.3125 47.9845V62.222H37.5V47.9845C37.5 47.6393 37.7798 47.3595 38.125 47.3595H44.6875C45.0327 47.3595 45.3125 47.6393 45.3125 47.9845ZM43.875 56.1346C43.875 55.7908 43.6 55.5096 43.25 55.5096H39.5625C39.2125 55.5096 38.9375 55.7908 38.9375 56.1346V60.1596C38.9375 60.5096 39.2125 60.7846 39.5625 60.7846H43.25C43.6 60.7846 43.875 60.5096 43.875 60.1596V56.1346ZM43.875 49.4221C43.875 49.0783 43.6 48.7971 43.25 48.7971H39.5625C39.2125 48.7971 38.9375 49.0783 38.9375 49.4221V53.4471C38.9375 53.7971 39.2125 54.0721 39.5625 54.0721H43.25C43.6 54.0721 43.875 53.7971 43.875 53.4471V49.4221ZM40.1875 59.5346H42.625V56.7596H40.1875V59.5346ZM40.1875 52.8221H42.625V50.0471H40.1875V52.8221Z" fill="white"/>
<defs>
<filter id="filter0_d_2_2410" x="0" y="0" width="110" height="110" filterUnits="userSpaceOnUse" color-interpolation-filters="sRGB">
<feFlood flood-opacity="0" result="BackgroundImageFix"/>
<feColorMatrix in="SourceAlpha" type="matrix" values="0 0 0 0 0 0 0 0 0 0 0 0 0 0 0 0 0 0 127 0" result="hardAlpha"/>
<feMorphology radius="2" operator="erode" in="SourceAlpha" result="effect1_dropShadow_2_2410"/>
<feOffset dy="10"/>
<feGaussianBlur stdDeviation="11"/>
<feComposite in2="hardAlpha" operator="out"/>
<feColorMatrix type="matrix" values="0 0 0 0 0.427451 0 0 0 0 0.670588 0 0 0 0 1 0 0 0 0.36 0"/>
<feBlend mode="normal" in2="BackgroundImageFix" result="effect1_dropShadow_2_2410"/>
<feBlend mode="normal" in="SourceGraphic" in2="effect1_dropShadow_2_2410" result="shape"/>
</filter>
<linearGradient id="paint0_linear_2_2410" x1="20" y1="10" x2="90" y2="80" gradientUnits="userSpaceOnUse">
<stop stop-color="#5CA1FE"/>
<stop offset="1" stop-color="#217BF4"/>
</linearGradient>
</defs>
</svg>
