<svg width="272" height="231" viewBox="0 0 272 231" fill="none" xmlns="http://www.w3.org/2000/svg">
<rect x="10.295" y="24.7646" width="120.652" height="197.897" rx="6.22222" fill="#E2DAEA"/>
<rect x="15.08" y="30.917" width="111.424" height="186.276" rx="2.66667" fill="#F5FAFA"/>
<rect x="17.3038" y="49.543" width="106.639" height="35.888" rx="3.24701" stroke="#EFF2F7" stroke-width="0.34179"/>
<g filter="url(#filter0_d_2_516)">
<rect x="23.2833" y="55.5244" width="23.9253" height="23.9253" rx="3.4179" fill="#0F8CE9"/>
</g>
<g clip-path="url(#clip0_2_516)">
<path d="M41.0359 60.724C41.0942 60.763 41.142 60.8157 41.1751 60.8776C41.2082 60.9394 41.2255 61.0085 41.2256 61.0786V67.4872C41.2256 67.5725 41.2 67.6559 41.1522 67.7265C41.1044 67.7972 41.0365 67.8519 40.9573 67.8836L40.7983 67.4872L40.9573 67.8836L40.9547 67.8845L40.9496 67.8871L40.9299 67.8948C40.8176 67.9394 40.7045 67.9821 40.5907 68.0229C40.3651 68.1041 40.0515 68.2135 39.6961 68.322C38.9988 68.5373 38.0905 68.7689 37.3804 68.7689C36.6567 68.7689 36.0577 68.5296 35.5365 68.3203L35.5126 68.3117C34.9708 68.0938 34.5094 67.9144 33.9625 67.9144C33.3644 67.9144 32.5629 68.1109 31.8802 68.322C31.5745 68.4173 31.2716 68.5213 30.9719 68.6339V73.8957C30.9719 74.009 30.9269 74.1177 30.8467 74.1978C30.7666 74.278 30.6579 74.323 30.5446 74.323C30.4313 74.323 30.3227 74.278 30.2425 74.1978C30.1624 74.1177 30.1174 74.009 30.1174 73.8957V61.0786C30.1174 60.9653 30.1624 60.8566 30.2425 60.7765C30.3227 60.6964 30.4313 60.6514 30.5446 60.6514C30.6579 60.6514 30.7666 60.6964 30.8467 60.7765C30.9269 60.8566 30.9719 60.9653 30.9719 61.0786V61.3196C31.165 61.2521 31.3957 61.1743 31.6469 61.0974C32.3442 60.8838 33.2533 60.6514 33.9625 60.6514C34.6803 60.6514 35.2648 60.8881 35.7749 61.0948L35.8116 61.1102C36.3431 61.3247 36.8062 61.5058 37.3804 61.5058C37.9786 61.5058 38.7801 61.3093 39.4628 61.0983C39.8519 60.9768 40.2363 60.8411 40.6155 60.6915L40.6317 60.6855L40.6351 60.6838H40.636" fill="#DBE5FA"/>
</g>
<rect x="57.463" y="75.0059" width="64.9401" height="3.4179" rx="1.70895" fill="#DBE5FA"/>
<rect x="57.463" y="75.0059" width="31.4447" height="3.4179" rx="1.70895" fill="#2196F3"/>
<rect x="57.4633" y="67.4873" width="35.5462" height="2.05074" rx="1.02537" fill="#DBE5FA"/>
<rect x="57.463" y="56.5498" width="64.9401" height="5.46864" rx="2.73432" fill="#DBE5FA"/>
<rect x="17.3038" y="135.676" width="106.639" height="35.888" rx="3.24701" stroke="#EFF2F7" stroke-width="0.34179"/>
<g filter="url(#filter1_d_2_516)">
<rect x="23.2833" y="141.658" width="23.9253" height="23.9253" rx="3.4179" fill="#2DC8A8"/>
</g>
<mask id="mask0_2_516" style="mask-type:alpha" maskUnits="userSpaceOnUse" x="28" y="146" width="15" height="15">
<rect x="28.4103" y="146.785" width="13.6716" height="13.6716" fill="#D9D9D9"/>
</mask>
<g mask="url(#mask0_2_516)">
<path d="M32.1135 155.316V154.746H30.6894V153.607H33.5376V152.468H31.259C31.0976 152.468 30.9623 152.413 30.8529 152.304C30.7439 152.195 30.6894 152.06 30.6894 151.898V149.62C30.6894 149.458 30.7439 149.323 30.8529 149.213C30.9623 149.104 31.0976 149.05 31.259 149.05H32.1135V148.48H33.2528V149.05H34.6769V150.189H31.8287V151.328H34.1073C34.2687 151.328 34.4041 151.383 34.5135 151.492C34.6224 151.601 34.6769 151.737 34.6769 151.898V154.177C34.6769 154.338 34.6224 154.474 34.5135 154.583C34.4041 154.692 34.2687 154.746 34.1073 154.746H33.2528V155.316H32.1135ZM36.3574 158.734L33.9364 156.313L34.7339 155.515L36.3574 157.139L39.5759 153.92L40.3734 154.718L36.3574 158.734Z" fill="#DEF8ED"/>
</g>
<rect x="57.463" y="161.141" width="64.9401" height="3.4179" rx="1.70895" fill="#DEF8ED"/>
<rect x="57.463" y="161.141" width="31.4447" height="3.4179" rx="1.70895" fill="#2DC8A8"/>
<rect x="57.4632" y="153.619" width="35.5462" height="2.05074" rx="1.02537" fill="#DEF8ED"/>
<rect x="57.463" y="142.682" width="64.9401" height="5.46864" rx="2.73432" fill="#DEF8ED"/>
<rect x="17.2999" y="178.741" width="106.639" height="35.888" rx="3.24701" stroke="#EFF2F7" stroke-width="0.34179"/>
<g filter="url(#filter2_d_2_516)">
<rect x="23.2794" y="184.724" width="23.9253" height="23.9253" rx="3.4179" fill="#FAAD13"/>
</g>
<path d="M33.6234 191.217C32.1906 191.217 31.0258 192.382 31.0258 193.815C31.0258 195.22 32.125 196.358 33.5577 196.407C33.6015 196.401 33.6452 196.401 33.678 196.407C33.689 196.407 33.6945 196.407 33.7054 196.407C33.7109 196.407 33.7109 196.407 33.7163 196.407C35.1163 196.358 36.2155 195.22 36.221 193.815C36.221 192.382 35.0561 191.217 33.6234 191.217Z" fill="#DEF8ED"/>
<path d="M36.4014 197.861C34.8757 196.844 32.3874 196.844 30.8508 197.861C30.1562 198.326 29.7734 198.955 29.7734 199.628C29.7734 200.3 30.1562 200.924 30.8453 201.383C31.6109 201.897 32.6171 202.154 33.6234 202.154C34.6296 202.154 35.6358 201.897 36.4014 201.383C37.0905 200.918 37.4733 200.295 37.4733 199.617C37.4678 198.944 37.0905 198.321 36.4014 197.861Z" fill="#DEF8ED"/>
<path d="M39.6334 194.137C39.7209 195.198 38.9662 196.128 37.9217 196.254C37.9162 196.254 37.9162 196.254 37.9108 196.254H37.8944C37.8616 196.254 37.8287 196.254 37.8014 196.265C37.2709 196.292 36.7842 196.122 36.4178 195.811C36.9811 195.308 37.3038 194.553 37.2381 193.733C37.1999 193.29 37.0467 192.885 36.817 192.54C37.0249 192.437 37.2655 192.371 37.5116 192.349C38.5834 192.256 39.5404 193.055 39.6334 194.137Z" fill="#DEF8ED"/>
<path d="M40.7271 199.196C40.6834 199.726 40.3443 200.186 39.7756 200.497C39.2287 200.798 38.5397 200.94 37.8561 200.924C38.2498 200.568 38.4795 200.125 38.5233 199.655C38.578 198.977 38.2553 198.326 37.61 197.807C37.2436 197.517 36.817 197.287 36.3522 197.118C37.5608 196.768 39.0811 197.003 40.0162 197.758C40.5193 198.162 40.7763 198.671 40.7271 199.196Z" fill="#DEF8ED"/>
<rect x="57.463" y="204.205" width="64.9401" height="3.4179" rx="1.70895" fill="#FFF2D9"/>
<rect x="57.463" y="204.205" width="31.4447" height="3.4179" rx="1.70895" fill="#FF9900"/>
<rect x="57.4611" y="196.684" width="35.5462" height="2.05074" rx="1.02537" fill="#FFF2D9"/>
<rect x="57.4611" y="185.747" width="64.9401" height="5.46864" rx="2.73432" fill="#FFF2D9"/>
<g filter="url(#filter3_d_2_516)">
<rect x="2.77161" y="187.139" width="34.9373" height="11.4686" rx="5.73432" transform="rotate(-20.2935 2.77161 187.139)" fill="white"/>
<path d="M11.0058 190.829L10.4367 189.29L10.7429 189.176L11.312 190.715L11.0058 190.829ZM10.1618 190.439L10.0489 190.134L11.5881 189.565L11.7009 189.87L10.1618 190.439ZM12.6182 188.027L13.4804 190.359L13.1274 190.489L12.3958 188.511L12.3822 188.516L11.959 189.086L11.8344 188.749L12.2756 188.154L12.6182 188.027ZM13.2808 187.782L13.7077 187.625L15.1201 189.162L15.1474 189.152L15.2195 187.065L15.6464 186.908L16.5085 189.239L16.1738 189.363L15.55 187.676L15.5283 187.684L15.4633 189.622L15.1856 189.724L13.8749 188.294L13.8533 188.302L14.4776 189.99L14.1429 190.114L13.2808 187.782ZM17.8683 188.736L17.0062 186.405L18.452 185.87L18.564 186.173L17.4699 186.578L17.7326 187.288L18.723 186.922L18.8346 187.223L17.8442 187.59L18.2201 188.606L17.8683 188.736ZM20.3406 187.862C20.1767 187.923 20.0197 187.938 19.8698 187.908C19.7198 187.878 19.5861 187.808 19.4686 187.698C19.3511 187.588 19.2589 187.443 19.1921 187.262C19.125 187.081 19.1002 186.909 19.1175 186.749C19.1348 186.588 19.1906 186.447 19.2851 186.327C19.3795 186.207 19.5086 186.116 19.6726 186.055C19.8365 185.995 19.9934 185.98 20.1434 186.009C20.2934 186.039 20.4273 186.11 20.545 186.221C20.6628 186.332 20.7552 186.478 20.8223 186.659C20.8891 186.84 20.9137 187.01 20.8961 187.17C20.8785 187.33 20.8225 187.47 20.7281 187.591C20.6337 187.711 20.5046 187.802 20.3406 187.862ZM20.2361 187.576C20.3423 187.537 20.42 187.476 20.4691 187.394C20.5181 187.312 20.5421 187.218 20.5409 187.113C20.5406 187.007 20.5196 186.897 20.4781 186.785C20.4368 186.674 20.3819 186.577 20.3132 186.497C20.245 186.415 20.1655 186.358 20.0746 186.327C19.9837 186.296 19.8852 186.3 19.7789 186.34C19.6719 186.379 19.5937 186.441 19.5441 186.524C19.4953 186.606 19.4713 186.701 19.4719 186.808C19.4731 186.913 19.4942 187.022 19.5355 187.134C19.577 187.246 19.6318 187.343 19.6997 187.424C19.7683 187.504 19.848 187.56 19.9386 187.59C20.0299 187.62 20.1291 187.616 20.2361 187.576ZM21.0009 184.928L21.863 187.259L21.5226 187.385L20.6605 185.053L21.0009 184.928ZM21.7992 184.632L22.6613 186.964L22.3209 187.09L21.4588 184.758L21.7992 184.632ZM23.8688 186.557C23.7049 186.618 23.5479 186.633 23.398 186.603C23.248 186.574 23.1143 186.503 22.9968 186.393C22.8793 186.283 22.7871 186.138 22.7203 185.957C22.6532 185.776 22.6284 185.605 22.6457 185.444C22.663 185.283 22.7188 185.143 22.8133 185.022C22.9077 184.902 23.0368 184.811 23.2008 184.751C23.3647 184.69 23.5216 184.675 23.6716 184.705C23.8216 184.735 23.9555 184.805 24.0732 184.916C24.191 185.027 24.2834 185.173 24.3505 185.354C24.4173 185.535 24.4419 185.705 24.4243 185.865C24.4067 186.026 24.3507 186.166 24.2563 186.286C24.1619 186.406 24.0328 186.497 23.8688 186.557ZM23.7643 186.271C23.8705 186.232 23.9482 186.171 23.9973 186.089C24.0463 186.007 24.0703 185.914 24.0691 185.808C24.0688 185.702 24.0478 185.593 24.0063 185.48C23.965 185.369 23.9101 185.273 23.8414 185.192C23.7732 185.11 23.6937 185.054 23.6028 185.023C23.5119 184.992 23.4134 184.996 23.3071 185.035C23.2001 185.075 23.1219 185.136 23.0723 185.219C23.0235 185.302 22.9995 185.396 23.0001 185.503C23.0013 185.609 23.0224 185.717 23.0637 185.829C23.1052 185.941 23.16 186.038 23.2279 186.119C23.2965 186.2 23.3762 186.255 23.4668 186.286C23.5581 186.316 23.6573 186.311 23.7643 186.271ZM25.3767 185.96L24.2155 184.401L24.5673 184.271L25.3848 185.429L25.4019 185.422L25.2708 184.011L25.6226 183.881L26.4369 185.033L26.4539 185.027L26.3216 183.623L26.6733 183.493L26.8065 185.431L26.4593 185.559L25.6373 184.428L25.6111 184.438L25.7228 185.832L25.3767 185.96ZM28.3564 184.898C28.1841 184.962 28.0221 184.98 27.8705 184.952C27.7193 184.924 27.585 184.855 27.4678 184.745C27.3511 184.635 27.2592 184.489 27.1921 184.308C27.1259 184.128 27.1009 183.958 27.1172 183.797C27.1342 183.635 27.1889 183.494 27.2812 183.373C27.3743 183.251 27.502 183.16 27.6644 183.1C27.7631 183.064 27.8648 183.045 27.9694 183.043C28.0741 183.041 28.1761 183.062 28.2756 183.105C28.375 183.147 28.4666 183.216 28.5503 183.312C28.6338 183.407 28.7049 183.534 28.7635 183.693L28.8082 183.813L27.4182 184.327L27.3239 184.072L28.3803 183.682C28.3472 183.592 28.2997 183.52 28.2377 183.464C28.1754 183.408 28.1039 183.372 28.023 183.356C27.9428 183.34 27.8587 183.348 27.7707 183.381C27.6751 183.416 27.6003 183.47 27.5463 183.544C27.4929 183.616 27.4607 183.697 27.4498 183.787C27.4393 183.875 27.4502 183.963 27.4825 184.05L27.5562 184.249C27.5994 184.366 27.6567 184.458 27.7279 184.525C27.8 184.591 27.8812 184.632 27.9716 184.648C28.0617 184.663 28.1564 184.652 28.2558 184.616C28.3204 184.592 28.3758 184.561 28.4222 184.523C28.4683 184.484 28.5038 184.439 28.5288 184.388C28.5537 184.336 28.5664 184.279 28.5667 184.217L28.9103 184.156C28.9196 184.261 28.904 184.361 28.8636 184.457C28.8237 184.552 28.7609 184.638 28.6753 184.714C28.5902 184.79 28.4839 184.851 28.3564 184.898ZM29.4712 184.446L28.8246 182.697L29.1536 182.575L29.2564 182.853L29.2746 182.846C29.2716 182.741 29.3004 182.646 29.361 182.562C29.422 182.477 29.5037 182.416 29.6061 182.378C29.6274 182.37 29.6527 182.362 29.6821 182.353C29.7123 182.343 29.7361 182.337 29.7537 182.333L29.8741 182.658C29.859 182.66 29.8332 182.664 29.7966 182.673C29.7597 182.68 29.7238 182.691 29.6889 182.704C29.6084 182.733 29.543 182.777 29.4927 182.834C29.4428 182.891 29.4107 182.956 29.3965 183.029C29.3819 183.102 29.3887 183.176 29.4168 183.252L29.8116 184.32L29.4712 184.446ZM31.5231 182.185L31.2348 182.353C31.2073 182.319 31.173 182.289 31.1317 182.263C31.0912 182.238 31.0432 182.222 30.9877 182.217C30.9322 182.211 30.8692 182.222 30.7986 182.248C30.7022 182.284 30.6298 182.335 30.5813 182.402C30.5325 182.468 30.5206 182.535 30.5456 182.603C30.5672 182.661 30.6062 182.7 30.6626 182.72C30.7191 182.74 30.7997 182.743 30.9045 182.73L31.2059 182.691C31.3805 182.669 31.5216 182.682 31.6292 182.73C31.7367 182.778 31.8134 182.864 31.8591 182.988C31.8978 183.093 31.902 183.197 31.8716 183.302C31.8417 183.405 31.7814 183.5 31.6907 183.586C31.6008 183.672 31.4853 183.741 31.3442 183.793C31.1483 183.866 30.9732 183.883 30.8186 183.845C30.6637 183.807 30.5436 183.715 30.4583 183.571L30.7688 183.399C30.821 183.477 30.8871 183.527 30.9671 183.547C31.0469 183.567 31.138 183.558 31.2404 183.52C31.352 183.478 31.4326 183.422 31.4823 183.351C31.5317 183.28 31.5439 183.21 31.5189 183.142C31.4987 183.088 31.4612 183.049 31.4065 183.027C31.3525 183.005 31.2803 183 31.1898 183.012L30.8698 183.056C30.6929 183.079 30.5503 183.065 30.4421 183.013C30.3347 182.96 30.2579 182.871 30.2119 182.747C30.1737 182.644 30.1692 182.543 30.1982 182.444C30.2273 182.345 30.2847 182.256 30.3704 182.175C30.4558 182.093 30.5641 182.028 30.6954 181.979C30.8844 181.91 31.0483 181.896 31.1872 181.937C31.3257 181.978 31.4377 182.061 31.5231 182.185Z" fill="#183B56"/>
</g>
<mask id="mask1_2_516" style="mask-type:alpha" maskUnits="userSpaceOnUse" x="28" y="174" width="8" height="8">
<rect x="28.8087" y="176.428" width="5.46864" height="5.46864" transform="rotate(-20.29 28.8087 176.428)" fill="#FF4E39"/>
</mask>
<g mask="url(#mask1_2_516)">
<path d="M33.0326 179.968L32.62 179.805C31.8764 179.513 31.2716 179.244 30.8057 178.997C30.34 178.75 30.0315 178.422 29.88 178.012C29.7562 177.677 29.7651 177.356 29.9065 177.049C30.0479 176.741 30.2861 176.526 30.6209 176.402C30.8097 176.332 31.0026 176.306 31.1996 176.325C31.3967 176.343 31.5797 176.4 31.7486 176.495C31.8148 176.313 31.9167 176.151 32.0545 176.009C32.1923 175.867 32.3556 175.761 32.5444 175.691C32.8792 175.567 33.2003 175.576 33.5077 175.717C33.8151 175.859 34.0307 176.097 34.1544 176.432C34.3059 176.841 34.285 177.291 34.0919 177.782C33.8987 178.272 33.6146 178.87 33.2398 179.576L33.0326 179.968ZM32.8192 179.391C33.1574 178.74 33.4223 178.188 33.6138 177.737C33.8051 177.286 33.8429 176.903 33.727 176.59C33.648 176.376 33.5109 176.224 33.3157 176.135C33.1206 176.045 32.9161 176.039 32.7024 176.118C32.535 176.18 32.3975 176.285 32.2899 176.432C32.1823 176.579 32.1288 176.735 32.1294 176.901L31.7233 177.051C31.6159 176.925 31.4735 176.841 31.2961 176.799C31.1187 176.758 30.9463 176.768 30.7789 176.83C30.5652 176.909 30.4134 177.046 30.3236 177.241C30.2338 177.436 30.2284 177.64 30.3075 177.854C30.4234 178.168 30.7008 178.433 31.1399 178.652C31.5789 178.87 32.1387 179.117 32.8192 179.391Z" fill="#FF4E39"/>
</g>
<mask id="mask2_2_516" style="mask-type:alpha" maskUnits="userSpaceOnUse" x="27" y="175" width="3" height="3">
<rect x="27.5177" y="176.639" width="1.36716" height="1.36716" transform="rotate(-31.0837 27.5177 176.639)" fill="#FF4E39"/>
</mask>
<g mask="url(#mask2_2_516)">
<path d="M28.7204 177.309L28.6115 177.288C28.4154 177.251 28.2544 177.213 28.1285 177.174C28.0027 177.136 27.9116 177.07 27.8553 176.976C27.8092 176.9 27.7964 176.821 27.8167 176.738C27.837 176.656 27.8854 176.592 27.9617 176.546C28.0048 176.52 28.0509 176.505 28.1001 176.5C28.1493 176.496 28.1969 176.501 28.2428 176.517C28.2505 176.469 28.268 176.424 28.2951 176.383C28.3223 176.341 28.3574 176.308 28.4005 176.282C28.4768 176.236 28.5561 176.223 28.6381 176.243C28.7201 176.264 28.7842 176.312 28.8302 176.388C28.8865 176.482 28.9025 176.593 28.878 176.723C28.8536 176.852 28.8118 177.012 28.7528 177.203L28.7204 177.309ZM28.641 177.177C28.6935 177.001 28.7327 176.854 28.7586 176.734C28.7845 176.614 28.7758 176.519 28.7327 176.447C28.7033 176.398 28.6626 176.368 28.6105 176.355C28.5584 176.342 28.508 176.35 28.4592 176.379C28.4211 176.402 28.3922 176.434 28.3727 176.476C28.3532 176.517 28.3474 176.558 28.3553 176.598L28.2626 176.654C28.2304 176.628 28.1915 176.614 28.146 176.612C28.1005 176.61 28.0587 176.621 28.0205 176.644C27.9718 176.673 27.9409 176.714 27.928 176.766C27.9151 176.818 27.9234 176.869 27.9528 176.917C27.9959 176.989 28.0764 177.041 28.1944 177.074C28.3123 177.107 28.4612 177.141 28.641 177.177Z" fill="#FF4E39"/>
</g>
<mask id="mask3_2_516" style="mask-type:alpha" maskUnits="userSpaceOnUse" x="28" y="173" width="2" height="3">
<rect x="28.3829" y="173.792" width="1.36716" height="1.36716" transform="rotate(-5.88218 28.3829 173.792)" fill="#FF4E39"/>
</mask>
<g mask="url(#mask3_2_516)">
<path d="M29.185 174.913L29.0953 174.848C28.9336 174.731 28.804 174.628 28.7066 174.539C28.6093 174.451 28.555 174.352 28.5439 174.244C28.5347 174.155 28.5568 174.078 28.6101 174.012C28.6635 173.947 28.7345 173.909 28.8232 173.9C28.8732 173.895 28.9215 173.901 28.968 173.917C29.0146 173.934 29.0553 173.959 29.0902 173.993C29.1176 173.953 29.1523 173.92 29.1945 173.894C29.2367 173.868 29.2828 173.853 29.3328 173.848C29.4215 173.838 29.4986 173.86 29.5642 173.914C29.6298 173.967 29.6671 174.038 29.6763 174.127C29.6875 174.235 29.6544 174.343 29.5772 174.45C29.5 174.556 29.3941 174.683 29.2595 174.831L29.185 174.913ZM29.1693 174.76C29.2916 174.623 29.3899 174.506 29.4643 174.409C29.5387 174.312 29.5716 174.222 29.563 174.139C29.5572 174.082 29.5335 174.037 29.4918 174.003C29.4502 173.969 29.4011 173.955 29.3444 173.961C29.3001 173.965 29.2603 173.982 29.2252 174.011C29.19 174.04 29.1673 174.074 29.1572 174.115L29.0496 174.126C29.0314 174.088 29.0022 174.059 28.9619 174.038C28.9216 174.017 28.8792 174.009 28.8349 174.013C28.7782 174.019 28.733 174.043 28.6991 174.084C28.6653 174.126 28.6513 174.175 28.6571 174.232C28.6657 174.315 28.7163 174.396 28.8089 174.477C28.9016 174.557 29.0217 174.651 29.1693 174.76Z" fill="#FF4E39"/>
</g>
<g filter="url(#filter4_d_2_516)">
<rect x="7.72961" y="92.6103" width="125.779" height="35.888" rx="3.24701" fill="white" stroke="#EFF2F7" stroke-width="0.34179"/>
<g filter="url(#filter5_d_2_516)">
<rect x="13.7111" y="98.5918" width="23.9253" height="23.9253" rx="3.4179" fill="white"/>
</g>
<g clip-path="url(#clip1_2_516)">
<path d="M28.0519 109.375H23.3005C23.0309 109.375 22.8124 109.594 22.8124 109.864C22.8124 110.133 23.0309 110.352 23.3005 110.352V110.677C23.3005 110.947 23.5191 111.165 23.7887 111.165C24.0583 111.165 24.2768 110.947 24.2768 110.677V110.352H27.0755V110.677C27.0755 110.947 27.2941 111.165 27.5637 111.165C27.8333 111.165 28.0518 110.947 28.0518 110.677V110.352C28.3214 110.352 28.54 110.133 28.54 109.864C28.54 109.594 28.3215 109.375 28.0519 109.375Z" fill="#2196F3"/>
<path d="M25.6773 107.097C25.1381 107.097 24.701 107.534 24.701 108.073H26.6537C26.6536 107.534 26.2165 107.097 25.6773 107.097Z" fill="#2196F3"/>
<path d="M25.6755 103.718C21.9002 103.718 18.8397 106.779 18.8397 110.554C18.8397 114.329 21.9002 117.39 25.6755 117.39C29.4508 117.39 32.5113 114.329 32.5113 110.554C32.5113 106.779 29.4508 103.718 25.6755 103.718ZM29.8411 113.476C29.8411 114.015 29.404 114.453 28.8648 114.453H22.4862C21.9471 114.453 21.51 114.015 21.51 113.476V109.05C21.51 108.511 21.9471 108.074 22.4862 108.074H23.7229C23.7229 106.996 24.5971 106.121 25.6755 106.121C26.7539 106.121 27.6281 106.996 27.6281 108.074H28.8648C29.404 108.074 29.8411 108.511 29.8411 109.05V113.476H29.8411Z" fill="#2196F3"/>
</g>
<rect x="47.8888" y="118.072" width="77.9282" height="3.4179" rx="1.70895" fill="#DBE5FA"/>
<rect x="47.8888" y="118.072" width="55.7802" height="3.4179" rx="1.70895" fill="#2196F3"/>
<rect x="47.8888" y="110.553" width="42.6554" height="2.05074" rx="1.02537" fill="#DBE5FA"/>
<rect x="47.8888" y="99.6152" width="77.9282" height="5.46864" rx="2.73432" fill="#DBE5FA"/>
</g>
<g clip-path="url(#clip2_2_516)" filter="url(#filter6_d_2_516)">
<g clip-path="url(#clip3_2_516)">
<g filter="url(#filter7_d_2_516)">
<rect x="17.4747" y="2.88965" width="103.562" height="38.6223" rx="2.05074" fill="white"/>
</g>
<mask id="mask4_2_516" style="mask-type:luminance" maskUnits="userSpaceOnUse" x="17" y="2" width="105" height="40">
<rect x="17.4747" y="2.88965" width="103.562" height="38.6223" rx="2.05074" fill="white"/>
</mask>
<g mask="url(#mask4_2_516)">
</g>
</g>
<path d="M31.5496 15.0043L30.9718 18.4844H30.4893L29.1452 15.9321H29.1146L28.6881 18.4844H28.163L28.7407 15.0043H29.2267L30.5725 17.56H30.6048L31.0296 15.0043H31.5496ZM33.5305 17.402L33.7854 15.8743H34.2951L33.8601 18.4844H33.3605L33.437 18.0324H33.4098C33.3283 18.1717 33.2127 18.2878 33.0632 18.3807C32.9148 18.4725 32.7426 18.5184 32.5466 18.5184C32.379 18.5184 32.2368 18.4815 32.1201 18.4079C32.0046 18.3331 31.9224 18.2227 31.8737 18.0766C31.825 17.9304 31.8182 17.7497 31.8533 17.5345L32.132 15.8743H32.6401L32.3733 17.4733C32.345 17.6512 32.3716 17.7928 32.4532 17.8981C32.5347 18.0035 32.6537 18.0562 32.81 18.0562C32.9052 18.0562 33.0037 18.0324 33.1057 17.9848C33.2076 17.9372 33.2977 17.8653 33.3758 17.769C33.4551 17.6727 33.5067 17.5504 33.5305 17.402ZM34.5445 18.4844L34.9795 15.8743H35.4672L35.3958 16.2992H35.4281C35.5074 16.1553 35.615 16.0431 35.751 15.9627C35.888 15.8811 36.0432 15.8404 36.2165 15.8404C36.3887 15.8404 36.5275 15.8811 36.6329 15.9627C36.7393 16.0443 36.809 16.1564 36.8419 16.2992H36.8691C36.9529 16.1587 37.0701 16.0471 37.2208 15.9644C37.3715 15.8817 37.5408 15.8404 37.7289 15.8404C37.9634 15.8404 38.1435 15.9151 38.2692 16.0647C38.3961 16.2131 38.4346 16.4362 38.3848 16.7342L38.0925 18.4844H37.5827L37.8682 16.7817C37.8965 16.6039 37.8693 16.4759 37.7866 16.3977C37.704 16.3184 37.5958 16.2788 37.4621 16.2788C37.2967 16.2788 37.1596 16.3297 37.0509 16.4317C36.9421 16.5325 36.8753 16.6622 36.8504 16.8208L36.57 18.4844H36.0653L36.3559 16.7494C36.3785 16.6067 36.3525 16.4929 36.2777 16.4079C36.2041 16.3218 36.0965 16.2788 35.9549 16.2788C35.8586 16.2788 35.7651 16.3042 35.6745 16.3552C35.585 16.4062 35.5085 16.4764 35.4451 16.5659C35.3817 16.6554 35.3403 16.7585 35.321 16.8752L35.0526 18.4844H34.5445ZM38.8126 18.4844L39.3903 15.0043H39.8984L39.686 16.2975H39.7166C39.7551 16.2431 39.8078 16.1802 39.8746 16.1088C39.9426 16.0375 40.0304 15.9752 40.138 15.9219C40.2456 15.8675 40.3804 15.8404 40.5424 15.8404C40.7531 15.8404 40.9321 15.8936 41.0794 16.0001C41.2266 16.1066 41.3308 16.2601 41.392 16.4606C41.4532 16.6611 41.4605 16.9024 41.4141 17.1845C41.3677 17.4665 41.2804 17.7084 41.1524 17.91C41.0255 18.1105 40.8709 18.2652 40.6885 18.3739C40.5061 18.4815 40.3096 18.5354 40.0989 18.5354C39.9403 18.5354 39.8151 18.5087 39.7234 18.4555C39.6327 18.4022 39.5648 18.3399 39.5194 18.2686C39.4753 18.1972 39.4419 18.1338 39.4192 18.0783H39.3767L39.3087 18.4844H38.8126ZM39.5279 17.1794C39.4985 17.3629 39.4985 17.5237 39.5279 17.6619C39.5585 17.8001 39.618 17.9083 39.7064 17.9865C39.7959 18.0635 39.9131 18.102 40.0581 18.102C40.2099 18.102 40.3436 18.0618 40.4591 17.9814C40.5747 17.8998 40.6698 17.7894 40.7446 17.65C40.8194 17.5107 40.8715 17.3538 40.9009 17.1794C40.9281 17.0072 40.9276 16.8525 40.8992 16.7155C40.8709 16.5784 40.812 16.4702 40.7225 16.3909C40.6342 16.3116 40.5135 16.272 40.3606 16.272C40.2133 16.272 40.0825 16.3099 39.968 16.3858C39.8536 16.4617 39.759 16.5676 39.6843 16.7036C39.6095 16.8395 39.5574 16.9981 39.5279 17.1794ZM42.8852 18.5371C42.6292 18.5371 42.4174 18.4821 42.2497 18.3722C42.0832 18.2612 41.9665 18.1054 41.8997 17.9049C41.8328 17.7033 41.8221 17.4671 41.8674 17.1964C41.9116 16.929 42.0005 16.6934 42.1342 16.4895C42.2678 16.2856 42.4344 16.1264 42.6337 16.012C42.8342 15.8976 43.0557 15.8404 43.2981 15.8404C43.4454 15.8404 43.5842 15.8647 43.7145 15.9134C43.8459 15.9621 43.9574 16.0386 44.0492 16.1428C44.141 16.247 44.2044 16.3824 44.2395 16.5489C44.2758 16.7143 44.2746 16.9154 44.2361 17.1522L44.2072 17.3323H42.1308L42.1902 16.9517H43.7671C43.7909 16.818 43.7847 16.6996 43.7484 16.5965C43.7122 16.4923 43.6499 16.4102 43.5615 16.3501C43.4743 16.2901 43.3644 16.2601 43.2319 16.2601C43.0959 16.2601 42.9691 16.2958 42.8512 16.3671C42.7334 16.4385 42.6349 16.5297 42.5556 16.6407C42.4774 16.7506 42.4281 16.8639 42.4077 16.9805L42.3483 17.3289C42.3188 17.5192 42.3239 17.6721 42.3636 17.7877C42.4043 17.9032 42.4757 17.9871 42.5777 18.0392C42.6796 18.0913 42.8071 18.1173 42.96 18.1173C43.0585 18.1173 43.1497 18.1037 43.2336 18.0766C43.3185 18.0482 43.3939 18.0069 43.4596 17.9525C43.5253 17.897 43.5802 17.8279 43.6244 17.7452L44.09 17.8319C44.0277 17.9735 43.9382 18.0975 43.8215 18.204C43.7048 18.3094 43.5672 18.3915 43.4086 18.4504C43.2511 18.5082 43.0767 18.5371 42.8852 18.5371ZM44.5849 18.4844L45.0199 15.8743H45.511L45.4413 16.289H45.4685C45.5387 16.1485 45.6412 16.038 45.7761 15.9576C45.9109 15.876 46.0547 15.8353 46.2077 15.8353C46.2405 15.8353 46.2779 15.8364 46.3198 15.8387C46.3617 15.8398 46.3957 15.8426 46.4218 15.8472L46.3402 16.3331C46.3209 16.3275 46.2858 16.3212 46.2349 16.3144C46.1839 16.3065 46.1312 16.3025 46.0768 16.3025C45.9579 16.3025 45.8474 16.328 45.7455 16.379C45.6435 16.4289 45.558 16.4985 45.4889 16.588C45.4198 16.6764 45.375 16.7772 45.3546 16.8905L45.093 18.4844H44.5849ZM48.8084 18.5371C48.5603 18.5371 48.353 18.4804 48.1864 18.3671C48.0199 18.2527 47.9027 18.093 47.8347 17.8879C47.7679 17.6818 47.7565 17.4422 47.8007 17.1692C47.8437 16.9018 47.9304 16.6685 48.0607 16.4691C48.1921 16.2697 48.3564 16.1151 48.5535 16.0052C48.7517 15.8953 48.972 15.8404 49.2145 15.8404C49.4626 15.8404 49.6693 15.8976 49.8347 16.012C50.0012 16.1264 50.1185 16.2867 50.1864 16.4929C50.2544 16.699 50.2663 16.9392 50.2221 17.2133C50.1791 17.4784 50.0913 17.7107 49.9587 17.91C49.8273 18.1083 49.6631 18.2623 49.466 18.3722C49.2688 18.4821 49.0496 18.5371 48.8084 18.5371ZM48.8372 18.1105C49.0004 18.1105 49.1425 18.0675 49.2637 17.9814C49.3861 17.8953 49.4858 17.7809 49.5628 17.6382C49.6398 17.4954 49.6925 17.3391 49.7208 17.1692C49.7469 17.0049 49.7463 16.8548 49.7191 16.7189C49.6931 16.5818 49.6364 16.4719 49.5492 16.3892C49.462 16.3065 49.3408 16.2652 49.1856 16.2652C49.0225 16.2652 48.8792 16.3088 48.7557 16.396C48.6333 16.4821 48.5336 16.5971 48.4566 16.741C48.3807 16.8848 48.3292 17.0417 48.302 17.2116C48.2759 17.3748 48.2759 17.5249 48.302 17.6619C48.328 17.7979 48.3847 17.9066 48.4719 17.9882C48.5591 18.0698 48.6809 18.1105 48.8372 18.1105ZM52.2574 15.8743L52.1911 16.2822H50.7162L50.7824 15.8743H52.2574ZM50.7519 18.4844L51.2378 15.5719C51.2628 15.4087 51.32 15.2734 51.4095 15.1658C51.499 15.057 51.6071 14.976 51.734 14.9228C51.8609 14.8684 51.9934 14.8412 52.1316 14.8412C52.2336 14.8412 52.3191 14.8497 52.3882 14.8667C52.4585 14.8825 52.5094 14.8973 52.5412 14.9109L52.3559 15.3221C52.3333 15.3153 52.3044 15.3074 52.2693 15.2983C52.2342 15.2881 52.19 15.283 52.1367 15.283C52.0133 15.283 51.9198 15.3136 51.8564 15.3748C51.7941 15.4359 51.7521 15.5243 51.7306 15.6398L51.2599 18.4844H50.7519ZM53.613 18.4844L54.048 15.8743H54.556L54.121 18.4844H53.613ZM54.4082 15.4665C54.3198 15.4665 54.2451 15.4371 54.1839 15.3782C54.1239 15.3181 54.0961 15.2468 54.1006 15.1641C54.1052 15.0802 54.1403 15.0089 54.206 14.95C54.2717 14.8899 54.3482 14.8599 54.4354 14.8599C54.5237 14.8599 54.5979 14.8899 54.658 14.95C54.718 15.0089 54.7463 15.0802 54.743 15.1641C54.7384 15.2468 54.7033 15.3181 54.6376 15.3782C54.573 15.4371 54.4966 15.4665 54.4082 15.4665ZM55.5692 16.9347L55.3143 18.4844H54.8062L55.2413 15.8743H55.7289L55.6576 16.2992H55.6899C55.7725 16.1598 55.8853 16.0488 56.028 15.9661C56.1719 15.8823 56.3418 15.8404 56.5378 15.8404C56.7145 15.8404 56.8629 15.8777 56.983 15.9525C57.1042 16.0261 57.1897 16.136 57.2396 16.2822C57.2905 16.4283 57.2985 16.609 57.2634 16.8242L56.9847 18.4844H56.4766L56.7434 16.8854C56.774 16.6962 56.749 16.5484 56.6686 16.4419C56.5893 16.3343 56.463 16.2805 56.2897 16.2805C56.1719 16.2805 56.0626 16.3059 55.9617 16.3569C55.862 16.4079 55.7776 16.4827 55.7085 16.5812C55.6406 16.6786 55.5941 16.7965 55.5692 16.9347ZM58.638 18.5354C58.4262 18.5354 58.2466 18.4815 58.0994 18.3739C57.9532 18.2652 57.8496 18.1105 57.7884 17.91C57.7284 17.7084 57.7216 17.4665 57.768 17.1845C57.8156 16.9024 57.9034 16.6611 58.0314 16.4606C58.1594 16.2601 58.3146 16.1066 58.497 16.0001C58.6794 15.8936 58.8759 15.8404 59.0866 15.8404C59.2486 15.8404 59.3744 15.8675 59.4639 15.9219C59.5545 15.9752 59.6213 16.0375 59.6644 16.1088C59.7074 16.1802 59.7397 16.2431 59.7612 16.2975H59.7901L60.0059 15.0043H60.514L59.9363 18.4844H59.4401L59.5097 18.0783H59.4673C59.4276 18.1338 59.3727 18.1972 59.3024 18.2686C59.2333 18.3399 59.145 18.4022 59.0374 18.4555C58.9297 18.5087 58.7966 18.5354 58.638 18.5354ZM58.8097 18.102C58.9558 18.102 59.0866 18.0635 59.2022 17.9865C59.3189 17.9083 59.4157 17.8001 59.4928 17.6619C59.5709 17.5237 59.6253 17.3629 59.6559 17.1794C59.6865 16.9981 59.6859 16.8395 59.6542 16.7036C59.6225 16.5676 59.5613 16.4617 59.4707 16.3858C59.38 16.3099 59.2605 16.272 59.1121 16.272C58.9592 16.272 58.8261 16.3116 58.7128 16.3909C58.5995 16.4702 58.5066 16.5784 58.4341 16.7155C58.3628 16.8525 58.3129 17.0072 58.2846 17.1794C58.2551 17.3538 58.254 17.5107 58.2812 17.65C58.3084 17.7894 58.3656 17.8998 58.4528 17.9814C58.54 18.0618 58.659 18.102 58.8097 18.102ZM62.4932 17.402L62.7481 15.8743H63.2578L62.8228 18.4844H62.3233L62.3997 18.0324H62.3725C62.291 18.1717 62.1754 18.2878 62.0259 18.3807C61.8775 18.4725 61.7053 18.5184 61.5093 18.5184C61.3417 18.5184 61.1995 18.4815 61.0828 18.4079C60.9673 18.3331 60.8851 18.2227 60.8364 18.0766C60.7877 17.9304 60.7809 17.7497 60.816 17.5345L61.0947 15.8743H61.6028L61.336 17.4733C61.3077 17.6512 61.3343 17.7928 61.4159 17.8981C61.4974 18.0035 61.6164 18.0562 61.7727 18.0562C61.8679 18.0562 61.9664 18.0324 62.0684 17.9848C62.1703 17.9372 62.2604 17.8653 62.3386 17.769C62.4179 17.6727 62.4694 17.5504 62.4932 17.402ZM65.791 16.5116L65.3169 16.5931C65.3067 16.5331 65.2858 16.4764 65.254 16.4232C65.2234 16.37 65.1764 16.3269 65.113 16.2941C65.0496 16.2601 64.9652 16.2431 64.8598 16.2431C64.7137 16.2431 64.5857 16.2765 64.4758 16.3433C64.367 16.4102 64.3047 16.4951 64.2889 16.5982C64.2741 16.682 64.294 16.75 64.3483 16.8021C64.4027 16.8531 64.4984 16.8956 64.6355 16.9296L65.0365 17.0247C65.2676 17.0802 65.433 17.1669 65.5327 17.2847C65.6335 17.4014 65.6686 17.5532 65.6381 17.7401C65.612 17.8953 65.544 18.0329 65.4342 18.153C65.3254 18.2731 65.1861 18.3671 65.0161 18.4351C64.8462 18.5031 64.657 18.5371 64.4486 18.5371C64.1518 18.5371 63.9207 18.4742 63.7553 18.3484C63.5899 18.2227 63.5049 18.0448 63.5004 17.8149L64.0034 17.7401C64.0125 17.8681 64.0583 17.965 64.141 18.0307C64.2249 18.0952 64.341 18.1275 64.4894 18.1275C64.6593 18.1287 64.8015 18.093 64.9159 18.0205C65.0303 17.948 65.0954 17.8602 65.1113 17.7571C65.1249 17.6767 65.1068 17.6098 65.0569 17.5566C65.0082 17.5033 64.9221 17.4626 64.7986 17.4342L64.3772 17.3374C64.1416 17.2819 63.9751 17.1924 63.8776 17.0689C63.7802 16.9454 63.7474 16.7902 63.7791 16.6033C63.804 16.4504 63.8686 16.3173 63.9728 16.204C64.0782 16.0896 64.2113 16.0007 64.3721 15.9372C64.533 15.8726 64.7108 15.8404 64.9057 15.8404C65.19 15.8404 65.4036 15.9015 65.5463 16.0239C65.689 16.1451 65.7706 16.3076 65.791 16.5116ZM67.7243 15.8743L67.658 16.2822H66.2324L66.2986 15.8743H67.7243ZM66.7829 15.249H67.291L66.8798 17.718C66.8639 17.8166 66.8668 17.8908 66.8883 17.9406C66.9098 17.9893 66.9427 18.0227 66.9868 18.0409C67.0321 18.0579 67.0826 18.0664 67.1381 18.0664C67.1788 18.0664 67.2145 18.0635 67.2451 18.0579C67.2757 18.0522 67.3001 18.0477 67.3182 18.0443L67.3454 18.464C67.3114 18.4753 67.2655 18.4866 67.2077 18.498C67.1511 18.5104 67.082 18.5172 67.0004 18.5184C66.8668 18.5206 66.7461 18.4968 66.6385 18.447C66.5309 18.396 66.4504 18.319 66.3972 18.2159C66.344 18.1117 66.3309 17.9808 66.3581 17.8234L66.7829 15.249ZM67.8513 18.4844L68.2863 15.8743H68.7774L68.7077 16.289H68.7349C68.8052 16.1485 68.9077 16.038 69.0425 15.9576C69.1773 15.876 69.3212 15.8353 69.4741 15.8353C69.507 15.8353 69.5443 15.8364 69.5862 15.8387C69.6282 15.8398 69.6621 15.8426 69.6882 15.8472L69.6066 16.3331C69.5874 16.3275 69.5523 16.3212 69.5013 16.3144C69.4503 16.3065 69.3976 16.3025 69.3433 16.3025C69.2243 16.3025 69.1139 16.328 69.0119 16.379C68.91 16.4289 68.8244 16.4985 68.7553 16.588C68.6862 16.6764 68.6415 16.7772 68.6211 16.8905L68.3594 18.4844H67.8513ZM69.938 19.4631C69.861 19.4631 69.7924 19.4569 69.7324 19.4444C69.6723 19.4331 69.6276 19.4207 69.5981 19.4071L69.7919 18.9907C69.8814 19.0157 69.9612 19.0253 70.0315 19.0196C70.1028 19.014 70.1697 18.9845 70.232 18.9313C70.2943 18.878 70.3577 18.7942 70.4223 18.6798L70.5174 18.5082L70.006 15.8743H70.5293L70.8522 17.9049H70.8794L71.8785 15.8743H72.4444L70.8794 18.8293C70.8057 18.9698 70.7219 19.0865 70.6279 19.1794C70.535 19.2734 70.4308 19.3442 70.3152 19.3918C70.2008 19.4393 70.0751 19.4631 69.938 19.4631Z" fill="#323C47"/>
<path d="M28.3044 31.0547V30.4022L30.3231 28.3107C30.5387 28.0834 30.7164 27.8844 30.8562 27.7135C30.998 27.5407 31.1038 27.3766 31.1737 27.2212C31.2437 27.0658 31.2786 26.9008 31.2786 26.726C31.2786 26.5279 31.232 26.357 31.1388 26.2133C31.0456 26.0677 30.9184 25.956 30.7572 25.8783C30.596 25.7987 30.4144 25.7589 30.2125 25.7589C29.9988 25.7589 29.8124 25.8026 29.6532 25.89C29.4939 25.9774 29.3716 26.1007 29.2861 26.2599C29.2007 26.4192 29.158 26.6056 29.158 26.8192H28.2986C28.2986 26.4561 28.3821 26.1385 28.5491 25.8667C28.7162 25.5948 28.9453 25.3841 29.2366 25.2345C29.5279 25.0831 29.859 25.0073 30.2299 25.0073C30.6047 25.0073 30.9349 25.0821 31.2203 25.2316C31.5078 25.3792 31.7321 25.5812 31.8932 25.8375C32.0544 26.0919 32.135 26.3793 32.135 26.6998C32.135 26.9212 32.0933 27.1377 32.0098 27.3494C31.9282 27.561 31.7855 27.797 31.5816 28.0572C31.3776 28.3155 31.0941 28.6291 30.731 28.9981L29.5454 30.2391V30.2827H32.2312V31.0547H28.3044ZM34.48 30.2391L34.4363 30.5566C34.4072 30.7896 34.3576 31.0324 34.2877 31.2848C34.2197 31.5392 34.1489 31.7752 34.0751 31.9927C34.0032 32.2102 33.944 32.383 33.8974 32.5112H33.2798C33.3051 32.3908 33.34 32.2276 33.3847 32.0218C33.4294 31.8179 33.4731 31.5897 33.5158 31.3372C33.5585 31.0848 33.5905 30.8275 33.6119 30.5653L33.641 30.2391H34.48ZM37.5139 31.1363C37.0963 31.1363 36.7273 31.0644 36.4069 30.9207C36.0884 30.777 35.8389 30.5789 35.6583 30.3264C35.4777 30.074 35.3883 29.7866 35.3903 29.4642C35.3883 29.2117 35.4398 28.9797 35.5447 28.768C35.6515 28.5544 35.7962 28.3767 35.9787 28.2349C36.1613 28.0912 36.3652 27.9999 36.5904 27.9611V27.9261C36.2933 27.8543 36.0554 27.695 35.8768 27.4484C35.6981 27.2018 35.6097 26.9182 35.6117 26.5978C35.6097 26.2929 35.6903 26.021 35.8534 25.7822C36.0185 25.5414 36.2448 25.352 36.5322 25.2142C36.8196 25.0763 37.1468 25.0073 37.5139 25.0073C37.877 25.0073 38.2013 25.0772 38.4868 25.2171C38.7742 25.3549 39.0004 25.5443 39.1655 25.7851C39.3306 26.024 39.4141 26.2949 39.416 26.5978C39.4141 26.9182 39.3228 27.2018 39.1422 27.4484C38.9616 27.695 38.7266 27.8543 38.4373 27.9261V27.9611C38.6606 27.9999 38.8616 28.0912 39.0403 28.2349C39.2209 28.3767 39.3646 28.5544 39.4714 28.768C39.5801 28.9797 39.6355 29.2117 39.6374 29.4642C39.6355 29.7866 39.5442 30.074 39.3636 30.3264C39.183 30.5789 38.9325 30.777 38.612 30.9207C38.2936 31.0644 37.9275 31.1363 37.5139 31.1363ZM37.5139 30.3993C37.7605 30.3993 37.9741 30.3585 38.1547 30.2769C38.3353 30.1934 38.4751 30.0779 38.5742 29.9303C38.6732 29.7807 38.7237 29.606 38.7257 29.4059C38.7237 29.1981 38.6693 29.0146 38.5625 28.8554C38.4577 28.6961 38.3149 28.5709 38.1343 28.4796C37.9537 28.3883 37.7469 28.3427 37.5139 28.3427C37.2789 28.3427 37.0701 28.3883 36.8876 28.4796C36.705 28.5709 36.5613 28.6961 36.4564 28.8554C36.3516 29.0146 36.3001 29.1981 36.302 29.4059C36.3001 29.606 36.3477 29.7807 36.4448 29.9303C36.5438 30.0779 36.6846 30.1934 36.8672 30.2769C37.0497 30.3585 37.2653 30.3993 37.5139 30.3993ZM37.5139 27.6232C37.7119 27.6232 37.8877 27.5834 38.0411 27.5038C38.1945 27.4241 38.3149 27.3134 38.4023 27.1717C38.4916 27.0299 38.5373 26.8639 38.5392 26.6736C38.5373 26.4871 38.4926 26.324 38.4052 26.1842C38.3198 26.0444 38.2003 25.9366 38.0469 25.8608C37.8935 25.7832 37.7158 25.7443 37.5139 25.7443C37.308 25.7443 37.1274 25.7832 36.972 25.8608C36.8186 25.9366 36.6992 26.0444 36.6137 26.1842C36.5283 26.324 36.4865 26.4871 36.4885 26.6736C36.4865 26.8639 36.5293 27.0299 36.6167 27.1717C36.704 27.3134 36.8244 27.4241 36.9779 27.5038C37.1332 27.5834 37.3119 27.6232 37.5139 27.6232ZM40.882 31.0547L43.4862 25.9045V25.8608H40.4742V25.0889H44.4184V25.8871L41.8229 31.0547H40.882ZM45.4313 31.0547V30.4022L47.45 28.3107C47.6656 28.0834 47.8433 27.8844 47.9831 27.7135C48.1249 27.5407 48.2307 27.3766 48.3006 27.2212C48.3705 27.0658 48.4055 26.9008 48.4055 26.726C48.4055 26.5279 48.3589 26.357 48.2657 26.2133C48.1725 26.0677 48.0453 25.956 47.8841 25.8783C47.7229 25.7987 47.5413 25.7589 47.3393 25.7589C47.1257 25.7589 46.9393 25.8026 46.7801 25.89C46.6208 25.9774 46.4985 26.1007 46.413 26.2599C46.3276 26.4192 46.2848 26.6056 46.2848 26.8192H45.4255C45.4255 26.4561 45.509 26.1385 45.676 25.8667C45.843 25.5948 46.0722 25.3841 46.3635 25.2345C46.6548 25.0831 46.9859 25.0073 47.3568 25.0073C47.7316 25.0073 48.0618 25.0821 48.3472 25.2316C48.6347 25.3792 48.859 25.5812 49.0201 25.8375C49.1813 26.0919 49.2619 26.3793 49.2619 26.6998C49.2619 26.9212 49.2202 27.1377 49.1367 27.3494C49.0551 27.561 48.9124 27.797 48.7085 28.0572C48.5045 28.3155 48.221 28.6291 47.8579 28.9981L46.6723 30.2391V30.2827H49.358V31.0547H45.4313Z" fill="#4DA1FF"/>
<path d="M53.8319 30.0547V27.4447H54.233V30.0547H53.8319ZM54.0358 27.0096C53.9577 27.0096 53.8903 26.983 53.8336 26.9298C53.7781 26.8765 53.7504 26.8125 53.7504 26.7378C53.7504 26.663 53.7781 26.599 53.8336 26.5458C53.8903 26.4925 53.9577 26.4659 54.0358 26.4659C54.114 26.4659 54.1809 26.4925 54.2364 26.5458C54.293 26.599 54.3213 26.663 54.3213 26.7378C54.3213 26.8125 54.293 26.8765 54.2364 26.9298C54.1809 26.983 54.114 27.0096 54.0358 27.0096ZM55.3685 28.4846V30.0547H54.9675V27.4447H55.3549V27.8525H55.3889C55.45 27.7199 55.5429 27.6134 55.6675 27.533C55.7922 27.4514 55.953 27.4107 56.1501 27.4107C56.3269 27.4107 56.4815 27.4469 56.614 27.5194C56.7466 27.5908 56.8497 27.6995 56.9233 27.8457C56.9969 27.9907 57.0337 28.1742 57.0337 28.3962V30.0547H56.6327V28.4234C56.6327 28.2184 56.5795 28.0586 56.473 27.9442C56.3665 27.8287 56.2204 27.7709 56.0346 27.7709C55.9066 27.7709 55.7922 27.7987 55.6913 27.8542C55.5916 27.9097 55.5129 27.9907 55.4551 28.0972C55.3974 28.2036 55.3685 28.3328 55.3685 28.4846ZM59.3094 30.0547H58.8676L60.1455 26.5746H60.5805L61.8583 30.0547H61.4165L60.3766 27.1252H60.3494L59.3094 30.0547ZM59.4726 28.6953H61.2534V29.0691H59.4726V28.6953ZM63.4063 30.1091C63.1616 30.1091 62.9509 30.0513 62.7742 29.9357C62.5975 29.8202 62.4615 29.661 62.3664 29.4583C62.2712 29.2555 62.2236 29.0238 62.2236 28.7633C62.2236 28.4982 62.2724 28.2643 62.3698 28.0615C62.4683 27.8576 62.6054 27.6984 62.781 27.584C62.9577 27.4684 63.1639 27.4107 63.3995 27.4107C63.583 27.4107 63.7484 27.4447 63.8957 27.5126C64.043 27.5806 64.1636 27.6757 64.2576 27.7981C64.3517 27.9204 64.41 28.0632 64.4327 28.2263H64.0316C64.001 28.1074 63.9331 28.002 63.8277 27.9102C63.7235 27.8174 63.583 27.7709 63.4063 27.7709C63.25 27.7709 63.1129 27.8117 62.9951 27.8933C62.8784 27.9737 62.7872 28.0875 62.7215 28.2348C62.6569 28.3809 62.6247 28.5526 62.6247 28.7497C62.6247 28.9513 62.6564 29.1269 62.7198 29.2764C62.7844 29.426 62.875 29.5421 62.9917 29.6248C63.1095 29.7075 63.2477 29.7488 63.4063 29.7488C63.5105 29.7488 63.6051 29.7307 63.6901 29.6944C63.7751 29.6582 63.847 29.6061 63.9059 29.5381C63.9648 29.4701 64.0067 29.3886 64.0316 29.2934H64.4327C64.41 29.4475 64.3539 29.5863 64.2644 29.7097C64.1761 29.8321 64.0588 29.9295 63.9127 30.002C63.7677 30.0734 63.5989 30.1091 63.4063 30.1091ZM66.154 27.4447V27.7845H64.8014V27.4447H66.154ZM65.1956 26.8193H65.5966V29.307C65.5966 29.4203 65.6131 29.5053 65.6459 29.5619C65.6799 29.6174 65.7229 29.6548 65.7751 29.6741C65.8283 29.6922 65.8844 29.7012 65.9433 29.7012C65.9875 29.7012 66.0237 29.699 66.052 29.6944C66.0804 29.6888 66.103 29.6843 66.12 29.6809L66.2016 30.0411C66.1744 30.0513 66.1364 30.0615 66.0877 30.0717C66.039 30.083 65.9773 30.0887 65.9025 30.0887C65.7892 30.0887 65.6782 30.0643 65.5694 30.0156C65.4618 29.9669 65.3723 29.8927 65.301 29.793C65.2307 29.6933 65.1956 29.5676 65.1956 29.4158V26.8193ZM66.7572 30.0547V27.4447H67.1582V30.0547H66.7572ZM66.9611 27.0096C66.883 27.0096 66.8156 26.983 66.7589 26.9298C66.7034 26.8765 66.6757 26.8125 66.6757 26.7378C66.6757 26.663 66.7034 26.599 66.7589 26.5458C66.8156 26.4925 66.883 26.4659 66.9611 26.4659C67.0393 26.4659 67.1061 26.4925 67.1616 26.5458C67.2183 26.599 67.2466 26.663 67.2466 26.7378C67.2466 26.8125 67.2183 26.8765 67.1616 26.9298C67.1061 26.983 67.0393 27.0096 66.9611 27.0096ZM70.027 27.4447L69.0618 30.0547H68.654L67.6888 27.4447H68.1238L68.8443 29.5245H68.8715L69.592 27.4447H70.027ZM71.5572 30.1091C71.3057 30.1091 71.0887 30.0536 70.9063 29.9425C70.7251 29.8304 70.5852 29.6741 70.4866 29.4735C70.3892 29.2719 70.3405 29.0374 70.3405 28.7701C70.3405 28.5027 70.3892 28.2671 70.4866 28.0632C70.5852 27.8581 70.7223 27.6984 70.8978 27.584C71.0746 27.4684 71.2807 27.4107 71.5164 27.4107C71.6523 27.4107 71.7865 27.4333 71.9191 27.4786C72.0516 27.524 72.1723 27.5976 72.281 27.6995C72.3898 27.8004 72.4764 27.934 72.541 28.1006C72.6056 28.2671 72.6379 28.4721 72.6379 28.7157V28.8856H70.626V28.539H72.2301C72.2301 28.3917 72.2006 28.2603 72.1417 28.1447C72.0839 28.0292 72.0012 27.938 71.8936 27.8712C71.7871 27.8043 71.6614 27.7709 71.5164 27.7709C71.3566 27.7709 71.2184 27.8106 71.1018 27.8899C70.9862 27.968 70.8973 28.07 70.835 28.1957C70.7727 28.3215 70.7415 28.4563 70.7415 28.6001V28.8312C70.7415 29.0283 70.7755 29.1954 70.8435 29.3325C70.9126 29.4684 71.0083 29.5721 71.1306 29.6435C71.253 29.7137 71.3952 29.7488 71.5572 29.7488C71.6625 29.7488 71.7577 29.7341 71.8426 29.7046C71.9287 29.6741 72.0029 29.6287 72.0652 29.5687C72.1275 29.5075 72.1757 29.4316 72.2097 29.341L72.5971 29.4498C72.5563 29.5812 72.4878 29.6967 72.3915 29.7964C72.2952 29.895 72.1762 29.972 72.0346 30.0275C71.893 30.0819 71.7339 30.1091 71.5572 30.1091ZM73.8392 30.0547L73.044 27.4447H73.4654L74.0295 29.443H74.0567L74.6141 27.4447H75.0423L75.5928 29.4362H75.62L76.1842 27.4447H76.6056L75.8104 30.0547H75.4161L74.8452 28.0496H74.8044L74.2335 30.0547H73.8392ZM78.1413 30.1091C77.8898 30.1091 77.6729 30.0536 77.4905 29.9425C77.3092 29.8304 77.1693 29.6741 77.0708 29.4735C76.9733 29.2719 76.9246 29.0374 76.9246 28.7701C76.9246 28.5027 76.9733 28.2671 77.0708 28.0632C77.1693 27.8581 77.3064 27.6984 77.482 27.584C77.6587 27.4684 77.8649 27.4107 78.1005 27.4107C78.2364 27.4107 78.3707 27.4333 78.5032 27.4786C78.6358 27.524 78.7564 27.5976 78.8652 27.6995C78.9739 27.8004 79.0606 27.934 79.1251 28.1006C79.1897 28.2671 79.222 28.4721 79.222 28.7157V28.8856H77.2101V28.539H78.8142C78.8142 28.3917 78.7847 28.2603 78.7258 28.1447C78.6681 28.0292 78.5854 27.938 78.4777 27.8712C78.3713 27.8043 78.2455 27.7709 78.1005 27.7709C77.9408 27.7709 77.8026 27.8106 77.6859 27.8899C77.5703 27.968 77.4814 28.07 77.4191 28.1957C77.3568 28.3215 77.3257 28.4563 77.3257 28.6001V28.8312C77.3257 29.0283 77.3596 29.1954 77.4276 29.3325C77.4967 29.4684 77.5924 29.5721 77.7148 29.6435C77.8371 29.7137 77.9793 29.7488 78.1413 29.7488C78.2466 29.7488 78.3418 29.7341 78.4268 29.7046C78.5129 29.6741 78.5871 29.6287 78.6494 29.5687C78.7117 29.5075 78.7598 29.4316 78.7938 29.341L79.1812 29.4498C79.1404 29.5812 79.0719 29.6967 78.9756 29.7964C78.8793 29.895 78.7604 29.972 78.6188 30.0275C78.4772 30.0819 78.318 30.1091 78.1413 30.1091ZM80.6001 30.1159C80.4347 30.1159 80.2846 30.0847 80.1498 30.0224C80.015 29.959 79.9079 29.8678 79.8286 29.7488C79.7493 29.6287 79.7097 29.4837 79.7097 29.3138C79.7097 29.1643 79.7391 29.0431 79.798 28.9502C79.857 28.8562 79.9357 28.7825 80.0342 28.7293C80.1328 28.676 80.2415 28.6364 80.3605 28.6103C80.4806 28.5831 80.6012 28.5616 80.7224 28.5458C80.881 28.5254 81.0096 28.5101 81.1082 28.4999C81.2078 28.4886 81.2804 28.4699 81.3257 28.4438C81.3721 28.4178 81.3953 28.3724 81.3953 28.3079V28.2943C81.3953 28.1266 81.3495 27.9963 81.2577 27.9034C81.1671 27.8106 81.0294 27.7641 80.8448 27.7641C80.6533 27.7641 80.5032 27.806 80.3945 27.8899C80.2857 27.9737 80.2093 28.0632 80.1651 28.1583L79.7845 28.0224C79.8524 27.8638 79.943 27.7403 80.0563 27.652C80.1707 27.5625 80.2954 27.5002 80.4302 27.465C80.5661 27.4288 80.6998 27.4107 80.8312 27.4107C80.915 27.4107 81.0113 27.4209 81.1201 27.4413C81.2299 27.4605 81.3359 27.5007 81.4378 27.5619C81.5409 27.6231 81.6264 27.7154 81.6944 27.8389C81.7624 27.9624 81.7964 28.1277 81.7964 28.3351V30.0547H81.3953V29.7012H81.3749C81.3478 29.7579 81.3024 29.8185 81.239 29.8831C81.1756 29.9476 81.0912 30.0026 80.9858 30.0479C80.8805 30.0932 80.7519 30.1159 80.6001 30.1159ZM80.6613 29.7556C80.8199 29.7556 80.9535 29.7245 81.0623 29.6622C81.1722 29.5999 81.2549 29.5194 81.3104 29.4209C81.367 29.3223 81.3953 29.2187 81.3953 29.1099V28.7429C81.3783 28.7633 81.341 28.782 81.2832 28.7989C81.2265 28.8148 81.1608 28.829 81.0861 28.8414C81.0124 28.8528 80.9405 28.863 80.8703 28.872C80.8012 28.8799 80.7451 28.8867 80.702 28.8924C80.5978 28.906 80.5004 28.9281 80.4098 28.9587C80.3203 28.9881 80.2478 29.0329 80.1923 29.0929C80.1379 29.1518 80.1107 29.2323 80.1107 29.3342C80.1107 29.4735 80.1622 29.5789 80.2653 29.6503C80.3696 29.7205 80.5015 29.7556 80.6613 29.7556ZM82.5283 30.0547V27.4447H82.9157V27.8389H82.9429C82.9905 27.7097 83.0766 27.6049 83.2012 27.5245C83.3258 27.4441 83.4663 27.4039 83.6226 27.4039C83.6521 27.4039 83.6889 27.4044 83.7331 27.4056C83.7772 27.4067 83.8107 27.4084 83.8333 27.4107V27.8185C83.8197 27.8151 83.7886 27.81 83.7399 27.8032C83.6923 27.7953 83.6419 27.7913 83.5886 27.7913C83.4618 27.7913 83.3485 27.8179 83.2488 27.8712C83.1502 27.9233 83.0721 27.9958 83.0143 28.0887C82.9576 28.1804 82.9293 28.2852 82.9293 28.403V30.0547H82.5283Z" fill="#323C47" fill-opacity="0.8"/>
<path fill-rule="evenodd" clip-rule="evenodd" d="M110.282 17.5859C109.804 17.5859 109.416 17.2034 109.416 16.7314C109.416 16.2594 109.804 15.877 110.282 15.877C110.76 15.877 111.147 16.2594 111.147 16.7314C111.147 17.2034 110.76 17.5859 110.282 17.5859ZM107.217 17.5859C106.742 17.5859 106.358 17.2034 106.358 16.7314C106.358 16.2594 106.742 15.877 107.217 15.877C107.692 15.877 108.077 16.2594 108.077 16.7314C108.077 17.2034 107.692 17.5859 107.217 17.5859ZM104.153 17.5859C103.675 17.5859 103.287 17.2034 103.287 16.7314C103.287 16.2594 103.675 15.877 104.153 15.877C104.63 15.877 105.018 16.2594 105.018 16.7314C105.018 17.2034 104.63 17.5859 104.153 17.5859Z" fill="#D0D7DD" fill-opacity="0.72727"/>
</g>
<rect x="144.28" y="110.553" width="120.652" height="119.968" rx="5.33333" fill="#E2DAEA"/>
<rect x="149.065" y="116.705" width="111.424" height="107.322" rx="2.66667" fill="#F5FAFA"/>
<rect x="151.284" y="135.333" width="106.639" height="35.888" rx="3.24701" stroke="#EFF2F7" stroke-width="0.34179"/>
<g filter="url(#filter8_d_2_516)">
<rect x="157.268" y="141.314" width="23.9253" height="23.9253" rx="3.4179" fill="#FAAD13"/>
</g>
<g clip-path="url(#clip4_2_516)">
<path d="M175.022 146.514C175.081 146.553 175.128 146.606 175.162 146.667C175.195 146.729 175.212 146.798 175.212 146.868V153.277C175.212 153.362 175.186 153.446 175.139 153.516C175.091 153.587 175.023 153.642 174.944 153.673L174.785 153.277L174.944 153.673L174.941 153.674L174.936 153.677L174.916 153.685C174.804 153.729 174.691 153.772 174.577 153.813C174.352 153.894 174.038 154.003 173.683 154.112C172.985 154.327 172.077 154.559 171.367 154.559C170.643 154.559 170.044 154.319 169.523 154.11L169.499 154.102C168.957 153.884 168.496 153.704 167.949 153.704C167.351 153.704 166.549 153.901 165.867 154.112C165.561 154.207 165.258 154.311 164.958 154.424V159.686C164.958 159.799 164.913 159.908 164.833 159.988C164.753 160.068 164.644 160.113 164.531 160.113C164.418 160.113 164.309 160.068 164.229 159.988C164.149 159.908 164.104 159.799 164.104 159.686V146.868C164.104 146.755 164.149 146.646 164.229 146.566C164.309 146.486 164.418 146.441 164.531 146.441C164.644 146.441 164.753 146.486 164.833 146.566C164.913 146.646 164.958 146.755 164.958 146.868V147.109C165.151 147.042 165.382 146.964 165.633 146.887C166.331 146.674 167.24 146.441 167.949 146.441C168.667 146.441 169.251 146.678 169.761 146.885L169.798 146.9C170.33 147.114 170.793 147.296 171.367 147.296C171.965 147.296 172.767 147.099 173.449 146.888C173.838 146.767 174.223 146.631 174.602 146.481L174.618 146.475L174.622 146.474H174.622" fill="#FFF2D9"/>
</g>
<rect x="191.443" y="160.798" width="54.0029" height="3.4179" rx="1.70895" fill="#DBE5FA"/>
<rect x="191.443" y="160.798" width="31.4447" height="3.4179" rx="1.70895" fill="#2196F3"/>
<rect x="191.443" y="153.279" width="35.5462" height="2.05074" rx="1.02537" fill="#DBE5FA"/>
<rect x="191.443" y="142.342" width="60.1551" height="5.46864" rx="2.73432" fill="#DBE5FA"/>
<g filter="url(#filter9_d_2_516)">
<rect x="141.716" y="178.398" width="125.779" height="35.888" rx="3.24701" fill="white" stroke="#EFF2F7" stroke-width="0.34179"/>
<g filter="url(#filter10_d_2_516)">
<rect x="147.697" y="184.379" width="23.9253" height="23.9253" rx="3.4179" fill="white"/>
</g>
<g clip-path="url(#clip5_2_516)">
<path d="M162.033 195.164H157.282C157.012 195.164 156.793 195.382 156.793 195.652C156.793 195.922 157.012 196.14 157.282 196.14V196.466C157.282 196.735 157.5 196.954 157.77 196.954C158.039 196.954 158.258 196.735 158.258 196.466V196.14H161.057V196.466C161.057 196.735 161.275 196.954 161.545 196.954C161.814 196.954 162.033 196.735 162.033 196.466V196.14C162.302 196.14 162.521 195.922 162.521 195.652C162.521 195.382 162.302 195.164 162.033 195.164Z" fill="#FAAD13"/>
<path d="M159.656 192.885C159.117 192.885 158.68 193.323 158.68 193.862H160.633C160.633 193.323 160.196 192.885 159.656 192.885Z" fill="#FAAD13"/>
<path d="M159.657 189.505C155.881 189.505 152.821 192.565 152.821 196.34C152.821 200.116 155.881 203.176 159.657 203.176C163.432 203.176 166.492 200.116 166.492 196.34C166.492 192.565 163.432 189.505 159.657 189.505ZM163.822 199.263C163.822 199.802 163.385 200.239 162.846 200.239H156.467C155.928 200.239 155.491 199.802 155.491 199.263V194.837C155.491 194.298 155.928 193.86 156.467 193.86H157.704C157.704 192.782 158.578 191.908 159.657 191.908C160.735 191.908 161.609 192.782 161.609 193.86H162.846C163.385 193.86 163.822 194.298 163.822 194.837V199.263H163.822Z" fill="#FAAD13"/>
</g>
<rect x="181.875" y="203.861" width="77.9282" height="3.4179" rx="1.70895" fill="#DBE5FA"/>
<rect x="181.875" y="203.861" width="55.7802" height="3.4179" rx="1.70895" fill="#2196F3"/>
<rect x="181.875" y="196.343" width="42.6554" height="2.05074" rx="1.02537" fill="#DBE5FA"/>
<rect x="181.875" y="185.405" width="77.9282" height="5.46864" rx="2.73432" fill="#DBE5FA"/>
</g>
<g clip-path="url(#clip6_2_516)" filter="url(#filter11_d_2_516)">
<g clip-path="url(#clip7_2_516)">
<g filter="url(#filter12_d_2_516)">
<rect x="151.459" y="88.679" width="103.562" height="38.6223" rx="2.05074" fill="white"/>
</g>
<mask id="mask5_2_516" style="mask-type:luminance" maskUnits="userSpaceOnUse" x="151" y="88" width="105" height="40">
<rect x="151.459" y="88.679" width="103.562" height="38.6223" rx="2.05074" fill="white"/>
</mask>
<g mask="url(#mask5_2_516)">
</g>
</g>
<path d="M165.532 100.794L164.954 104.274H164.472L163.128 101.722H163.097L162.67 104.274H162.145L162.723 100.794H163.209L164.555 103.35H164.587L165.012 100.794H165.532ZM167.513 103.192L167.768 101.664H168.278L167.843 104.274H167.343L167.419 103.822H167.392C167.311 103.962 167.195 104.078 167.046 104.171C166.897 104.262 166.725 104.308 166.529 104.308C166.361 104.308 166.219 104.271 166.102 104.198C165.987 104.123 165.905 104.012 165.856 103.866C165.807 103.72 165.801 103.54 165.836 103.324L166.114 101.664H166.622L166.356 103.263C166.327 103.441 166.354 103.583 166.436 103.688C166.517 103.793 166.636 103.846 166.792 103.846C166.888 103.846 166.986 103.822 167.088 103.775C167.19 103.727 167.28 103.655 167.358 103.559C167.438 103.462 167.489 103.34 167.513 103.192ZM168.527 104.274L168.962 101.664H169.45L169.378 102.089H169.41C169.49 101.945 169.597 101.833 169.733 101.752C169.87 101.671 170.026 101.63 170.199 101.63C170.371 101.63 170.51 101.671 170.615 101.752C170.722 101.834 170.791 101.946 170.824 102.089H170.851C170.935 101.948 171.053 101.837 171.203 101.754C171.354 101.671 171.523 101.63 171.711 101.63C171.946 101.63 172.126 101.705 172.252 101.854C172.379 102.003 172.417 102.226 172.367 102.524L172.075 104.274H171.565L171.851 102.572C171.879 102.394 171.852 102.266 171.769 102.188C171.686 102.108 171.578 102.069 171.444 102.069C171.279 102.069 171.142 102.12 171.033 102.221C170.925 102.322 170.858 102.452 170.833 102.611L170.552 104.274H170.048L170.338 102.539C170.361 102.397 170.335 102.283 170.26 102.198C170.186 102.112 170.079 102.069 169.937 102.069C169.841 102.069 169.748 102.094 169.657 102.145C169.567 102.196 169.491 102.266 169.427 102.356C169.364 102.445 169.323 102.548 169.303 102.665L169.035 104.274H168.527ZM172.795 104.274L173.373 100.794H173.881L173.668 102.087H173.699C173.737 102.033 173.79 101.97 173.857 101.899C173.925 101.827 174.013 101.765 174.12 101.712C174.228 101.657 174.363 101.63 174.525 101.63C174.735 101.63 174.914 101.683 175.062 101.79C175.209 101.896 175.313 102.05 175.374 102.25C175.436 102.451 175.443 102.692 175.396 102.974C175.35 103.256 175.263 103.498 175.135 103.7C175.008 103.9 174.853 104.055 174.671 104.164C174.489 104.271 174.292 104.325 174.081 104.325C173.923 104.325 173.798 104.299 173.706 104.245C173.615 104.192 173.547 104.13 173.502 104.058C173.458 103.987 173.424 103.924 173.402 103.868H173.359L173.291 104.274H172.795ZM173.51 102.969C173.481 103.153 173.481 103.314 173.51 103.452C173.541 103.59 173.6 103.698 173.689 103.776C173.778 103.853 173.895 103.892 174.04 103.892C174.192 103.892 174.326 103.852 174.442 103.771C174.557 103.69 174.652 103.579 174.727 103.44C174.802 103.301 174.854 103.144 174.883 102.969C174.911 102.797 174.91 102.642 174.882 102.505C174.853 102.368 174.794 102.26 174.705 102.181C174.617 102.101 174.496 102.062 174.343 102.062C174.196 102.062 174.065 102.1 173.95 102.176C173.836 102.252 173.741 102.357 173.667 102.493C173.592 102.629 173.54 102.788 173.51 102.969ZM176.868 104.327C176.612 104.327 176.4 104.272 176.232 104.162C176.066 104.051 175.949 103.895 175.882 103.695C175.815 103.493 175.804 103.257 175.85 102.986C175.894 102.719 175.983 102.483 176.117 102.279C176.25 102.075 176.417 101.916 176.616 101.802C176.817 101.687 177.038 101.63 177.281 101.63C177.428 101.63 177.567 101.655 177.697 101.703C177.828 101.752 177.94 101.828 178.032 101.933C178.123 102.037 178.187 102.172 178.222 102.339C178.258 102.504 178.257 102.705 178.219 102.942L178.19 103.122H176.113L176.173 102.741H177.75C177.773 102.608 177.767 102.489 177.731 102.386C177.695 102.282 177.632 102.2 177.544 102.14C177.457 102.08 177.347 102.05 177.214 102.05C177.078 102.05 176.951 102.086 176.834 102.157C176.716 102.228 176.617 102.319 176.538 102.43C176.46 102.54 176.411 102.654 176.39 102.77L176.331 103.119C176.301 103.309 176.306 103.462 176.346 103.577C176.387 103.693 176.458 103.777 176.56 103.829C176.662 103.881 176.789 103.907 176.942 103.907C177.041 103.907 177.132 103.894 177.216 103.866C177.301 103.838 177.376 103.797 177.442 103.742C177.508 103.687 177.563 103.618 177.607 103.535L178.072 103.622C178.01 103.763 177.921 103.887 177.804 103.994C177.687 104.099 177.55 104.181 177.391 104.24C177.234 104.298 177.059 104.327 176.868 104.327ZM178.567 104.274L179.002 101.664H179.493L179.424 102.079H179.451C179.521 101.938 179.624 101.828 179.758 101.747C179.893 101.666 180.037 101.625 180.19 101.625C180.223 101.625 180.26 101.626 180.302 101.628C180.344 101.63 180.378 101.632 180.404 101.637L180.323 102.123C180.303 102.117 180.268 102.111 180.217 102.104C180.166 102.096 180.114 102.092 180.059 102.092C179.94 102.092 179.83 102.118 179.728 102.169C179.626 102.219 179.54 102.288 179.471 102.378C179.402 102.466 179.357 102.567 179.337 102.68L179.075 104.274H178.567ZM182.791 104.327C182.543 104.327 182.335 104.27 182.169 104.157C182.002 104.043 181.885 103.883 181.817 103.678C181.75 103.472 181.739 103.232 181.783 102.959C181.826 102.692 181.913 102.458 182.043 102.259C182.174 102.059 182.339 101.905 182.536 101.795C182.734 101.685 182.954 101.63 183.197 101.63C183.445 101.63 183.652 101.687 183.817 101.802C183.984 101.916 184.101 102.076 184.169 102.283C184.237 102.489 184.249 102.729 184.205 103.003C184.161 103.268 184.074 103.5 183.941 103.7C183.81 103.898 183.645 104.052 183.448 104.162C183.251 104.272 183.032 104.327 182.791 104.327ZM182.82 103.9C182.983 103.9 183.125 103.857 183.246 103.771C183.368 103.685 183.468 103.571 183.545 103.428C183.622 103.285 183.675 103.129 183.703 102.959C183.729 102.795 183.729 102.645 183.702 102.509C183.675 102.372 183.619 102.262 183.532 102.179C183.444 102.096 183.323 102.055 183.168 102.055C183.005 102.055 182.862 102.099 182.738 102.186C182.616 102.272 182.516 102.387 182.439 102.531C182.363 102.675 182.312 102.832 182.284 103.001C182.258 103.165 182.258 103.315 182.284 103.452C182.31 103.588 182.367 103.696 182.454 103.778C182.542 103.86 182.663 103.9 182.82 103.9ZM186.24 101.664L186.174 102.072H184.699L184.765 101.664H186.24ZM184.734 104.274L185.22 101.362C185.245 101.199 185.302 101.063 185.392 100.956C185.481 100.847 185.59 100.766 185.716 100.713C185.843 100.658 185.976 100.631 186.114 100.631C186.216 100.631 186.302 100.639 186.371 100.656C186.441 100.672 186.492 100.687 186.524 100.701L186.338 101.112C186.316 101.105 186.287 101.097 186.252 101.088C186.217 101.078 186.172 101.073 186.119 101.073C185.996 101.073 185.902 101.103 185.839 101.165C185.776 101.226 185.735 101.314 185.713 101.43L185.242 104.274H184.734ZM187.595 104.274L188.03 101.664H188.538L188.103 104.274H187.595ZM188.391 101.256C188.302 101.256 188.227 101.227 188.166 101.168C188.106 101.108 188.078 101.037 188.083 100.954C188.088 100.87 188.123 100.799 188.188 100.74C188.254 100.68 188.331 100.65 188.418 100.65C188.506 100.65 188.58 100.68 188.64 100.74C188.7 100.799 188.729 100.87 188.725 100.954C188.721 101.037 188.686 101.108 188.62 101.168C188.555 101.227 188.479 101.256 188.391 101.256ZM189.552 102.724L189.297 104.274H188.789L189.224 101.664H189.711L189.64 102.089H189.672C189.755 101.95 189.868 101.839 190.01 101.756C190.154 101.672 190.324 101.63 190.52 101.63C190.697 101.63 190.845 101.668 190.965 101.742C191.087 101.816 191.172 101.926 191.222 102.072C191.273 102.218 191.281 102.399 191.246 102.614L190.967 104.274H190.459L190.726 102.675C190.756 102.486 190.731 102.338 190.651 102.232C190.572 102.124 190.445 102.07 190.272 102.07C190.154 102.07 190.045 102.096 189.944 102.147C189.844 102.198 189.76 102.272 189.691 102.371C189.623 102.468 189.577 102.586 189.552 102.724ZM192.62 104.325C192.409 104.325 192.229 104.271 192.082 104.164C191.936 104.055 191.832 103.9 191.771 103.7C191.711 103.498 191.704 103.256 191.75 102.974C191.798 102.692 191.886 102.451 192.014 102.25C192.142 102.05 192.297 101.896 192.479 101.79C192.662 101.683 192.858 101.63 193.069 101.63C193.231 101.63 193.357 101.657 193.446 101.712C193.537 101.765 193.604 101.827 193.647 101.899C193.69 101.97 193.722 102.033 193.744 102.087H193.773L193.988 100.794H194.496L193.919 104.274H193.422L193.492 103.868H193.45C193.41 103.924 193.355 103.987 193.285 104.058C193.216 104.13 193.127 104.192 193.02 104.245C192.912 104.299 192.779 104.325 192.62 104.325ZM192.792 103.892C192.938 103.892 193.069 103.853 193.185 103.776C193.301 103.698 193.398 103.59 193.475 103.452C193.553 103.314 193.608 103.153 193.638 102.969C193.669 102.788 193.668 102.629 193.637 102.493C193.605 102.357 193.544 102.252 193.453 102.176C193.362 102.1 193.243 102.062 193.095 102.062C192.942 102.062 192.808 102.101 192.695 102.181C192.582 102.26 192.489 102.368 192.417 102.505C192.345 102.642 192.295 102.797 192.267 102.969C192.238 103.144 192.236 103.301 192.264 103.44C192.291 103.579 192.348 103.69 192.435 103.771C192.522 103.852 192.641 103.892 192.792 103.892ZM196.476 103.192L196.73 101.664H197.24L196.805 104.274H196.306L196.382 103.822H196.355C196.273 103.962 196.158 104.078 196.008 104.171C195.86 104.262 195.688 104.308 195.492 104.308C195.324 104.308 195.182 104.271 195.065 104.198C194.95 104.123 194.868 104.012 194.819 103.866C194.77 103.72 194.763 103.54 194.798 103.324L195.077 101.664H195.585L195.318 103.263C195.29 103.441 195.317 103.583 195.398 103.688C195.48 103.793 195.599 103.846 195.755 103.846C195.85 103.846 195.949 103.822 196.051 103.775C196.153 103.727 196.243 103.655 196.321 103.559C196.4 103.462 196.452 103.34 196.476 103.192ZM199.773 102.301L199.299 102.383C199.289 102.323 199.268 102.266 199.236 102.213C199.206 102.16 199.159 102.117 199.095 102.084C199.032 102.05 198.948 102.033 198.842 102.033C198.696 102.033 198.568 102.066 198.458 102.133C198.349 102.2 198.287 102.285 198.271 102.388C198.257 102.472 198.276 102.54 198.331 102.592C198.385 102.643 198.481 102.685 198.618 102.719L199.019 102.815C199.25 102.87 199.415 102.957 199.515 103.075C199.616 103.191 199.651 103.343 199.62 103.53C199.594 103.685 199.526 103.823 199.417 103.943C199.308 104.063 199.168 104.157 198.999 104.225C198.829 104.293 198.639 104.327 198.431 104.327C198.134 104.327 197.903 104.264 197.738 104.138C197.572 104.012 197.487 103.835 197.483 103.605L197.986 103.53C197.995 103.658 198.041 103.755 198.123 103.82C198.207 103.885 198.323 103.917 198.472 103.917C198.642 103.918 198.784 103.883 198.898 103.81C199.013 103.738 199.078 103.65 199.094 103.547C199.107 103.466 199.089 103.4 199.039 103.346C198.991 103.293 198.905 103.252 198.781 103.224L198.36 103.127C198.124 103.072 197.957 102.982 197.86 102.859C197.763 102.735 197.73 102.58 197.761 102.393C197.786 102.24 197.851 102.107 197.955 101.994C198.061 101.879 198.194 101.79 198.355 101.727C198.515 101.662 198.693 101.63 198.888 101.63C199.172 101.63 199.386 101.691 199.529 101.814C199.671 101.935 199.753 102.097 199.773 102.301ZM201.707 101.664L201.64 102.072H200.215L200.281 101.664H201.707ZM200.765 101.039H201.273L200.862 103.508C200.846 103.606 200.849 103.681 200.871 103.73C200.892 103.779 200.925 103.813 200.969 103.831C201.015 103.848 201.065 103.856 201.12 103.856C201.161 103.856 201.197 103.853 201.228 103.848C201.258 103.842 201.282 103.837 201.301 103.834L201.328 104.254C201.294 104.265 201.248 104.276 201.19 104.288C201.133 104.3 201.064 104.307 200.983 104.308C200.849 104.31 200.729 104.287 200.621 104.237C200.513 104.186 200.433 104.109 200.38 104.006C200.326 103.901 200.313 103.771 200.341 103.613L200.765 101.039ZM201.834 104.274L202.269 101.664H202.76L202.69 102.079H202.717C202.788 101.938 202.89 101.828 203.025 101.747C203.16 101.666 203.304 101.625 203.456 101.625C203.489 101.625 203.527 101.626 203.569 101.628C203.611 101.63 203.645 101.632 203.671 101.637L203.589 102.123C203.57 102.117 203.535 102.111 203.484 102.104C203.433 102.096 203.38 102.092 203.326 102.092C203.207 102.092 203.096 102.118 202.994 102.169C202.892 102.219 202.807 102.288 202.738 102.378C202.669 102.466 202.624 102.567 202.603 102.68L202.342 104.274H201.834ZM203.92 105.253C203.843 105.253 203.775 105.247 203.715 105.234C203.655 105.223 203.61 105.21 203.581 105.197L203.774 104.781C203.864 104.805 203.944 104.815 204.014 104.809C204.085 104.804 204.152 104.774 204.214 104.721C204.277 104.668 204.34 104.584 204.405 104.47L204.5 104.298L203.988 101.664H204.512L204.835 103.695H204.862L205.861 101.664H206.427L204.862 104.619C204.788 104.76 204.704 104.876 204.61 104.969C204.517 105.063 204.413 105.134 204.298 105.182C204.183 105.229 204.057 105.253 203.92 105.253Z" fill="#323C47"/>
<path d="M164.362 116.926C163.962 116.926 163.605 116.857 163.29 116.719C162.977 116.581 162.73 116.39 162.547 116.145C162.367 115.899 162.269 115.613 162.256 115.289H163.171C163.182 115.466 163.241 115.619 163.348 115.749C163.457 115.877 163.599 115.976 163.774 116.046C163.948 116.116 164.143 116.151 164.356 116.151C164.591 116.151 164.799 116.11 164.98 116.029C165.162 115.947 165.305 115.834 165.408 115.688C165.511 115.54 165.562 115.371 165.562 115.178C165.562 114.978 165.511 114.802 165.408 114.651C165.307 114.498 165.158 114.377 164.962 114.29C164.768 114.202 164.533 114.159 164.257 114.159H163.753V113.425H164.257C164.478 113.425 164.673 113.385 164.84 113.305C165.009 113.226 165.141 113.115 165.236 112.973C165.331 112.829 165.379 112.661 165.379 112.469C165.379 112.285 165.337 112.124 165.253 111.989C165.172 111.851 165.055 111.743 164.904 111.665C164.754 111.588 164.578 111.549 164.374 111.549C164.179 111.549 163.998 111.585 163.829 111.656C163.662 111.726 163.526 111.827 163.421 111.959C163.316 112.09 163.26 112.246 163.252 112.428H162.381C162.391 112.106 162.486 111.822 162.667 111.578C162.849 111.333 163.09 111.142 163.389 111.004C163.688 110.866 164.02 110.797 164.385 110.797C164.768 110.797 165.098 110.872 165.376 111.021C165.655 111.169 165.871 111.366 166.022 111.613C166.176 111.859 166.252 112.129 166.25 112.423C166.252 112.757 166.158 113.04 165.97 113.273C165.784 113.506 165.535 113.663 165.224 113.742V113.789C165.62 113.849 165.927 114.006 166.145 114.261C166.364 114.515 166.473 114.831 166.471 115.207C166.473 115.536 166.382 115.83 166.197 116.09C166.015 116.35 165.765 116.555 165.449 116.705C165.132 116.852 164.77 116.926 164.362 116.926ZM168.541 116.029L168.497 116.346C168.468 116.579 168.418 116.822 168.348 117.075C168.28 117.329 168.21 117.565 168.136 117.782C168.064 118 168.005 118.173 167.958 118.301H167.34C167.366 118.181 167.401 118.017 167.445 117.812C167.49 117.608 167.534 117.38 167.576 117.127C167.619 116.875 167.651 116.617 167.673 116.355L167.702 116.029H168.541ZM171.671 110.797C171.937 110.799 172.199 110.848 172.457 110.943C172.715 111.038 172.948 111.193 173.156 111.409C173.366 111.624 173.533 111.916 173.657 112.283C173.784 112.648 173.848 113.102 173.85 113.646C173.85 114.168 173.797 114.634 173.692 115.041C173.587 115.447 173.437 115.79 173.241 116.07C173.047 116.349 172.811 116.562 172.533 116.708C172.255 116.853 171.943 116.926 171.595 116.926C171.24 116.926 170.924 116.856 170.648 116.716C170.372 116.576 170.148 116.383 169.975 116.137C169.802 115.888 169.695 115.603 169.652 115.28H170.54C170.599 115.537 170.717 115.744 170.896 115.904C171.076 116.061 171.309 116.14 171.595 116.14C172.032 116.14 172.373 115.949 172.617 115.569C172.862 115.186 172.985 114.652 172.987 113.966H172.941C172.84 114.133 172.713 114.277 172.562 114.398C172.412 114.518 172.245 114.611 172.058 114.677C171.872 114.743 171.673 114.776 171.461 114.776C171.117 114.776 170.805 114.692 170.523 114.523C170.241 114.354 170.017 114.122 169.85 113.827C169.683 113.531 169.6 113.195 169.6 112.816C169.6 112.439 169.685 112.097 169.856 111.79C170.029 111.484 170.27 111.241 170.578 111.062C170.889 110.882 171.253 110.793 171.671 110.797ZM171.674 111.555C171.446 111.555 171.241 111.611 171.059 111.723C170.878 111.834 170.736 111.985 170.631 112.175C170.526 112.363 170.473 112.573 170.473 112.804C170.473 113.035 170.524 113.245 170.625 113.433C170.728 113.62 170.868 113.768 171.044 113.879C171.223 113.988 171.427 114.042 171.656 114.042C171.827 114.042 171.986 114.009 172.134 113.943C172.281 113.877 172.411 113.786 172.521 113.669C172.632 113.551 172.718 113.417 172.78 113.267C172.843 113.118 172.874 112.961 172.874 112.795C172.874 112.576 172.821 112.372 172.716 112.184C172.613 111.995 172.472 111.844 172.291 111.729C172.111 111.613 171.905 111.555 171.674 111.555ZM177.165 110.879V116.844H176.262V111.782H176.227L174.8 112.714V111.852L176.288 110.879H177.165ZM178.779 116.844V116.192L180.798 114.1C181.013 113.873 181.191 113.674 181.331 113.503C181.473 113.33 181.578 113.166 181.648 113.011C181.718 112.856 181.753 112.691 181.753 112.516C181.753 112.318 181.707 112.147 181.613 112.003C181.52 111.857 181.393 111.746 181.232 111.668C181.071 111.588 180.889 111.549 180.687 111.549C180.473 111.549 180.287 111.592 180.128 111.68C179.969 111.767 179.846 111.89 179.761 112.05C179.675 112.209 179.633 112.395 179.633 112.609H178.773C178.773 112.246 178.857 111.928 179.024 111.656C179.191 111.385 179.42 111.174 179.711 111.024C180.003 110.873 180.334 110.797 180.705 110.797C181.079 110.797 181.409 110.872 181.695 111.021C181.982 111.169 182.207 111.371 182.368 111.627C182.529 111.882 182.61 112.169 182.61 112.49C182.61 112.711 182.568 112.927 182.484 113.139C182.403 113.351 182.26 113.587 182.056 113.847C181.852 114.105 181.569 114.419 181.206 114.788L180.02 116.029V116.073H182.706V116.844H178.779Z" fill="#4DA1FF"/>
<path d="M186.813 115.844V113.234H187.214V115.844H186.813ZM187.016 112.799C186.938 112.799 186.871 112.773 186.814 112.72C186.759 112.666 186.731 112.602 186.731 112.528C186.731 112.453 186.759 112.389 186.814 112.336C186.871 112.282 186.938 112.256 187.016 112.256C187.095 112.256 187.161 112.282 187.217 112.336C187.274 112.389 187.302 112.453 187.302 112.528C187.302 112.602 187.274 112.666 187.217 112.72C187.161 112.773 187.095 112.799 187.016 112.799ZM188.349 114.274V115.844H187.948V113.234H188.335V113.642H188.369C188.431 113.51 188.524 113.403 188.648 113.323C188.773 113.241 188.934 113.2 189.131 113.2C189.307 113.2 189.462 113.237 189.595 113.309C189.727 113.381 189.83 113.489 189.904 113.635C189.978 113.78 190.014 113.964 190.014 114.186V115.844H189.613V114.213C189.613 114.008 189.56 113.848 189.454 113.734C189.347 113.618 189.201 113.561 189.015 113.561C188.887 113.561 188.773 113.588 188.672 113.644C188.572 113.699 188.494 113.78 188.436 113.887C188.378 113.993 188.349 114.123 188.349 114.274ZM192.147 115.844V112.364H192.569V113.914H194.424V112.364H194.846V115.844H194.424V114.288H192.569V115.844H192.147ZM196.403 115.906C196.238 115.906 196.088 115.875 195.953 115.812C195.818 115.749 195.711 115.658 195.632 115.539C195.552 115.419 195.513 115.274 195.513 115.104C195.513 114.954 195.542 114.833 195.601 114.74C195.66 114.646 195.739 114.572 195.837 114.519C195.936 114.466 196.045 114.426 196.163 114.4C196.284 114.373 196.404 114.351 196.525 114.336C196.684 114.315 196.813 114.3 196.911 114.29C197.011 114.278 197.083 114.26 197.129 114.234C197.175 114.208 197.198 114.162 197.198 114.098V114.084C197.198 113.916 197.152 113.786 197.061 113.693C196.97 113.6 196.832 113.554 196.648 113.554C196.456 113.554 196.306 113.596 196.197 113.68C196.089 113.763 196.012 113.853 195.968 113.948L195.587 113.812C195.655 113.654 195.746 113.53 195.859 113.442C195.974 113.352 196.098 113.29 196.233 113.255C196.369 113.219 196.503 113.2 196.634 113.2C196.718 113.2 196.814 113.211 196.923 113.231C197.033 113.25 197.139 113.291 197.241 113.352C197.344 113.413 197.429 113.505 197.497 113.629C197.565 113.752 197.599 113.918 197.599 114.125V115.844H197.198V115.491H197.178C197.151 115.548 197.105 115.608 197.042 115.673C196.979 115.737 196.894 115.792 196.789 115.838C196.683 115.883 196.555 115.906 196.403 115.906ZM196.464 115.545C196.623 115.545 196.756 115.514 196.865 115.452C196.975 115.39 197.058 115.309 197.113 115.211C197.17 115.112 197.198 115.008 197.198 114.9V114.533C197.181 114.553 197.144 114.572 197.086 114.589C197.03 114.605 196.964 114.619 196.889 114.631C196.815 114.643 196.743 114.653 196.673 114.662C196.604 114.67 196.548 114.677 196.505 114.682C196.401 114.696 196.303 114.718 196.213 114.748C196.123 114.778 196.051 114.823 195.995 114.883C195.941 114.942 195.914 115.022 195.914 115.124C195.914 115.263 195.965 115.369 196.068 115.44C196.173 115.51 196.304 115.545 196.464 115.545ZM198.331 115.844V113.234H198.732V115.844H198.331ZM198.535 112.799C198.457 112.799 198.39 112.773 198.333 112.72C198.277 112.666 198.25 112.602 198.25 112.528C198.25 112.453 198.277 112.389 198.333 112.336C198.39 112.282 198.457 112.256 198.535 112.256C198.613 112.256 198.68 112.282 198.736 112.336C198.792 112.389 198.821 112.453 198.821 112.528C198.821 112.602 198.792 112.666 198.736 112.72C198.68 112.773 198.613 112.799 198.535 112.799ZM199.467 115.844V113.234H199.854V113.629H199.881C199.929 113.5 200.015 113.395 200.14 113.314C200.264 113.234 200.405 113.194 200.561 113.194C200.591 113.194 200.627 113.194 200.672 113.195C200.716 113.196 200.749 113.198 200.772 113.2V113.608C200.758 113.605 200.727 113.6 200.678 113.593C200.631 113.585 200.58 113.581 200.527 113.581C200.4 113.581 200.287 113.608 200.187 113.661C200.089 113.713 200.011 113.786 199.953 113.878C199.896 113.97 199.868 114.075 199.868 114.193V115.844H199.467ZM202.228 115.899C201.983 115.899 201.773 115.841 201.596 115.726C201.419 115.61 201.283 115.451 201.188 115.248C201.093 115.045 201.045 114.814 201.045 114.553C201.045 114.288 201.094 114.054 201.192 113.851C201.29 113.647 201.427 113.488 201.603 113.374C201.779 113.258 201.986 113.2 202.221 113.2C202.405 113.2 202.57 113.234 202.717 113.302C202.865 113.37 202.985 113.466 203.079 113.588C203.173 113.71 203.232 113.853 203.254 114.016H202.853C202.823 113.897 202.755 113.792 202.649 113.7C202.545 113.607 202.405 113.561 202.228 113.561C202.072 113.561 201.935 113.601 201.817 113.683C201.7 113.763 201.609 113.877 201.543 114.025C201.479 114.171 201.446 114.342 201.446 114.539C201.446 114.741 201.478 114.917 201.542 115.066C201.606 115.216 201.697 115.332 201.813 115.415C201.931 115.497 202.069 115.539 202.228 115.539C202.332 115.539 202.427 115.52 202.512 115.484C202.597 115.448 202.669 115.396 202.728 115.328C202.787 115.26 202.828 115.178 202.853 115.083H203.254C203.232 115.237 203.176 115.376 203.086 115.5C202.998 115.622 202.881 115.719 202.734 115.792C202.589 115.863 202.421 115.899 202.228 115.899ZM204.609 115.906C204.443 115.906 204.293 115.875 204.158 115.812C204.024 115.749 203.917 115.658 203.837 115.539C203.758 115.419 203.718 115.274 203.718 115.104C203.718 114.954 203.748 114.833 203.807 114.74C203.866 114.646 203.944 114.572 204.043 114.519C204.141 114.466 204.25 114.426 204.369 114.4C204.489 114.373 204.61 114.351 204.731 114.336C204.89 114.315 205.018 114.3 205.117 114.29C205.216 114.278 205.289 114.26 205.334 114.234C205.381 114.208 205.404 114.162 205.404 114.098V114.084C205.404 113.916 205.358 113.786 205.266 113.693C205.176 113.6 205.038 113.554 204.853 113.554C204.662 113.554 204.512 113.596 204.403 113.68C204.294 113.763 204.218 113.853 204.174 113.948L203.793 113.812C203.861 113.654 203.952 113.53 204.065 113.442C204.179 113.352 204.304 113.29 204.439 113.255C204.575 113.219 204.708 113.2 204.84 113.2C204.924 113.2 205.02 113.211 205.129 113.231C205.239 113.25 205.344 113.291 205.446 113.352C205.549 113.413 205.635 113.505 205.703 113.629C205.771 113.752 205.805 113.918 205.805 114.125V115.844H205.404V115.491H205.384C205.356 115.548 205.311 115.608 205.248 115.673C205.184 115.737 205.1 115.792 204.994 115.838C204.889 115.883 204.76 115.906 204.609 115.906ZM204.67 115.545C204.828 115.545 204.962 115.514 205.071 115.452C205.181 115.39 205.263 115.309 205.319 115.211C205.376 115.112 205.404 115.008 205.404 114.9V114.533C205.387 114.553 205.35 114.572 205.292 114.589C205.235 114.605 205.169 114.619 205.095 114.631C205.021 114.643 204.949 114.653 204.879 114.662C204.81 114.67 204.754 114.677 204.711 114.682C204.606 114.696 204.509 114.718 204.418 114.748C204.329 114.778 204.256 114.823 204.201 114.883C204.146 114.942 204.119 115.022 204.119 115.124C204.119 115.263 204.171 115.369 204.274 115.44C204.378 115.51 204.51 115.545 204.67 115.545ZM206.537 115.844V113.234H206.924V113.629H206.952C206.999 113.5 207.085 113.395 207.21 113.314C207.334 113.234 207.475 113.194 207.631 113.194C207.661 113.194 207.697 113.194 207.742 113.195C207.786 113.196 207.819 113.198 207.842 113.2V113.608C207.828 113.605 207.797 113.6 207.748 113.593C207.701 113.585 207.65 113.581 207.597 113.581C207.47 113.581 207.357 113.608 207.257 113.661C207.159 113.713 207.081 113.786 207.023 113.878C206.966 113.97 206.938 114.075 206.938 114.193V115.844H206.537ZM209.332 115.899C209.081 115.899 208.864 115.843 208.681 115.732C208.5 115.62 208.36 115.464 208.262 115.263C208.164 115.062 208.115 114.827 208.115 114.56C208.115 114.293 208.164 114.057 208.262 113.853C208.36 113.648 208.497 113.488 208.673 113.374C208.85 113.258 209.056 113.2 209.291 113.2C209.427 113.2 209.562 113.223 209.694 113.268C209.827 113.314 209.947 113.387 210.056 113.489C210.165 113.59 210.251 113.724 210.316 113.89C210.381 114.057 210.413 114.262 210.413 114.505V114.675H208.401V114.329H210.005C210.005 114.181 209.976 114.05 209.917 113.935C209.859 113.819 209.776 113.728 209.669 113.661C209.562 113.594 209.436 113.561 209.291 113.561C209.132 113.561 208.993 113.6 208.877 113.68C208.761 113.758 208.672 113.86 208.61 113.986C208.548 114.111 208.517 114.246 208.517 114.39V114.621C208.517 114.818 208.551 114.985 208.618 115.122C208.688 115.258 208.783 115.362 208.906 115.433C209.028 115.504 209.17 115.539 209.332 115.539C209.438 115.539 209.533 115.524 209.618 115.494C209.704 115.464 209.778 115.419 209.84 115.358C209.903 115.297 209.951 115.221 209.985 115.131L210.372 115.24C210.331 115.371 210.263 115.487 210.166 115.586C210.07 115.685 209.951 115.762 209.81 115.817C209.668 115.872 209.509 115.899 209.332 115.899ZM213.137 115.906C212.971 115.906 212.821 115.875 212.686 115.812C212.552 115.749 212.445 115.658 212.365 115.539C212.286 115.419 212.246 115.274 212.246 115.104C212.246 114.954 212.276 114.833 212.335 114.74C212.394 114.646 212.472 114.572 212.571 114.519C212.669 114.466 212.778 114.426 212.897 114.4C213.017 114.373 213.138 114.351 213.259 114.336C213.418 114.315 213.546 114.3 213.645 114.29C213.745 114.278 213.817 114.26 213.862 114.234C213.909 114.208 213.932 114.162 213.932 114.098V114.084C213.932 113.916 213.886 113.786 213.794 113.693C213.704 113.6 213.566 113.554 213.381 113.554C213.19 113.554 213.04 113.596 212.931 113.68C212.822 113.763 212.746 113.853 212.702 113.948L212.321 113.812C212.389 113.654 212.48 113.53 212.593 113.442C212.707 113.352 212.832 113.29 212.967 113.255C213.103 113.219 213.236 113.2 213.368 113.2C213.452 113.2 213.548 113.211 213.657 113.231C213.767 113.25 213.873 113.291 213.974 113.352C214.078 113.413 214.163 113.505 214.231 113.629C214.299 113.752 214.333 113.918 214.333 114.125V115.844H213.932V115.491H213.912C213.884 115.548 213.839 115.608 213.776 115.673C213.712 115.737 213.628 115.792 213.522 115.838C213.417 115.883 213.289 115.906 213.137 115.906ZM213.198 115.545C213.357 115.545 213.49 115.514 213.599 115.452C213.709 115.39 213.792 115.309 213.847 115.211C213.904 115.112 213.932 115.008 213.932 114.9V114.533C213.915 114.553 213.878 114.572 213.82 114.589C213.763 114.605 213.698 114.619 213.623 114.631C213.549 114.643 213.477 114.653 213.407 114.662C213.338 114.67 213.282 114.677 213.239 114.682C213.134 114.696 213.037 114.718 212.946 114.748C212.857 114.778 212.784 114.823 212.729 114.883C212.675 114.942 212.647 115.022 212.647 115.124C212.647 115.263 212.699 115.369 212.802 115.44C212.906 115.51 213.038 115.545 213.198 115.545ZM215.466 114.274V115.844H215.065V113.234H215.452V113.642H215.486C215.548 113.51 215.64 113.403 215.765 113.323C215.89 113.241 216.051 113.2 216.248 113.2C216.424 113.2 216.579 113.237 216.712 113.309C216.844 113.381 216.947 113.489 217.021 113.635C217.094 113.78 217.131 113.964 217.131 114.186V115.844H216.73V114.213C216.73 114.008 216.677 113.848 216.57 113.734C216.464 113.618 216.318 113.561 216.132 113.561C216.004 113.561 215.89 113.588 215.789 113.644C215.689 113.699 215.61 113.78 215.553 113.887C215.495 113.993 215.466 114.123 215.466 114.274ZM218.85 115.899C218.632 115.899 218.44 115.844 218.274 115.734C218.107 115.623 217.977 115.467 217.883 115.265C217.789 115.062 217.742 114.823 217.742 114.546C217.742 114.272 217.789 114.034 217.883 113.833C217.977 113.631 218.108 113.475 218.275 113.365C218.443 113.255 218.637 113.2 218.856 113.2C219.026 113.2 219.161 113.229 219.259 113.285C219.359 113.341 219.435 113.404 219.487 113.476C219.54 113.546 219.581 113.604 219.611 113.649H219.645V112.364H220.046V115.844H219.658V115.443H219.611C219.581 115.491 219.539 115.551 219.485 115.624C219.431 115.695 219.353 115.759 219.252 115.816C219.152 115.871 219.017 115.899 218.85 115.899ZM218.904 115.539C219.065 115.539 219.201 115.497 219.312 115.413C219.423 115.328 219.507 115.211 219.565 115.061C219.623 114.91 219.652 114.737 219.652 114.539C219.652 114.345 219.623 114.174 219.567 114.028C219.51 113.881 219.426 113.766 219.315 113.685C219.204 113.602 219.067 113.561 218.904 113.561C218.734 113.561 218.592 113.604 218.479 113.692C218.367 113.778 218.283 113.895 218.226 114.043C218.17 114.191 218.143 114.356 218.143 114.539C218.143 114.725 218.171 114.894 218.228 115.046C218.285 115.197 218.37 115.317 218.483 115.406C218.596 115.494 218.736 115.539 218.904 115.539ZM222.236 115.844V112.364H223.453C223.695 112.364 223.895 112.406 224.053 112.49C224.21 112.573 224.327 112.684 224.404 112.825C224.481 112.964 224.52 113.119 224.52 113.289C224.52 113.438 224.493 113.562 224.44 113.659C224.388 113.757 224.319 113.834 224.233 113.89C224.148 113.947 224.056 113.989 223.956 114.016V114.05C224.062 114.057 224.169 114.094 224.277 114.162C224.385 114.23 224.475 114.328 224.547 114.455C224.62 114.581 224.656 114.737 224.656 114.92C224.656 115.095 224.616 115.251 224.537 115.391C224.458 115.53 224.332 115.641 224.161 115.722C223.99 115.804 223.768 115.844 223.494 115.844H222.236ZM222.658 115.471H223.494C223.769 115.471 223.964 115.417 224.08 115.311C224.197 115.203 224.255 115.073 224.255 114.92C224.255 114.802 224.225 114.694 224.165 114.594C224.105 114.493 224.019 114.413 223.908 114.353C223.797 114.291 223.666 114.261 223.514 114.261H222.658V115.471ZM222.658 113.894H223.439C223.566 113.894 223.681 113.869 223.782 113.819C223.886 113.769 223.967 113.699 224.027 113.608C224.088 113.518 224.119 113.411 224.119 113.289C224.119 113.136 224.066 113.006 223.959 112.9C223.853 112.792 223.684 112.738 223.453 112.738H222.658V113.894ZM226.388 115.899C226.137 115.899 225.92 115.843 225.737 115.732C225.556 115.62 225.416 115.464 225.318 115.263C225.22 115.062 225.172 114.827 225.172 114.56C225.172 114.293 225.22 114.057 225.318 113.853C225.416 113.648 225.553 113.488 225.729 113.374C225.906 113.258 226.112 113.2 226.348 113.2C226.483 113.2 226.618 113.223 226.75 113.268C226.883 113.314 227.003 113.387 227.112 113.489C227.221 113.59 227.308 113.724 227.372 113.89C227.437 114.057 227.469 114.262 227.469 114.505V114.675H225.457V114.329H227.061C227.061 114.181 227.032 114.05 226.973 113.935C226.915 113.819 226.832 113.728 226.725 113.661C226.618 113.594 226.493 113.561 226.348 113.561C226.188 113.561 226.05 113.6 225.933 113.68C225.817 113.758 225.728 113.86 225.666 113.986C225.604 114.111 225.573 114.246 225.573 114.39V114.621C225.573 114.818 225.607 114.985 225.675 115.122C225.744 115.258 225.839 115.362 225.962 115.433C226.084 115.504 226.226 115.539 226.388 115.539C226.494 115.539 226.589 115.524 226.674 115.494C226.76 115.464 226.834 115.419 226.896 115.358C226.959 115.297 227.007 115.221 227.041 115.131L227.428 115.24C227.387 115.371 227.319 115.487 227.223 115.586C227.126 115.685 227.007 115.762 226.866 115.817C226.724 115.872 226.565 115.899 226.388 115.899ZM228.847 115.906C228.682 115.906 228.532 115.875 228.397 115.812C228.262 115.749 228.155 115.658 228.076 115.539C227.996 115.419 227.957 115.274 227.957 115.104C227.957 114.954 227.986 114.833 228.045 114.74C228.104 114.646 228.183 114.572 228.281 114.519C228.38 114.466 228.489 114.426 228.607 114.4C228.728 114.373 228.848 114.351 228.969 114.336C229.128 114.315 229.257 114.3 229.355 114.29C229.455 114.278 229.527 114.26 229.573 114.234C229.619 114.208 229.642 114.162 229.642 114.098V114.084C229.642 113.916 229.596 113.786 229.505 113.693C229.414 113.6 229.276 113.554 229.092 113.554C228.9 113.554 228.75 113.596 228.641 113.68C228.533 113.763 228.456 113.853 228.412 113.948L228.031 113.812C228.099 113.654 228.19 113.53 228.303 113.442C228.418 113.352 228.542 113.29 228.677 113.255C228.813 113.219 228.947 113.2 229.078 113.2C229.162 113.2 229.258 113.211 229.367 113.231C229.477 113.25 229.583 113.291 229.685 113.352C229.788 113.413 229.873 113.505 229.941 113.629C230.009 113.752 230.043 113.918 230.043 114.125V115.844H229.642V115.491H229.622C229.595 115.548 229.549 115.608 229.486 115.673C229.423 115.737 229.338 115.792 229.233 115.838C229.127 115.883 228.999 115.906 228.847 115.906ZM228.908 115.545C229.067 115.545 229.201 115.514 229.309 115.452C229.419 115.39 229.502 115.309 229.557 115.211C229.614 115.112 229.642 115.008 229.642 114.9V114.533C229.625 114.553 229.588 114.572 229.53 114.589C229.474 114.605 229.408 114.619 229.333 114.631C229.259 114.643 229.188 114.653 229.117 114.662C229.048 114.67 228.992 114.677 228.949 114.682C228.845 114.696 228.747 114.718 228.657 114.748C228.567 114.778 228.495 114.823 228.439 114.883C228.385 114.942 228.358 115.022 228.358 115.124C228.358 115.263 228.409 115.369 228.512 115.44C228.617 115.51 228.749 115.545 228.908 115.545ZM232.42 114.777V113.234H232.821V115.844H232.42V115.403H232.393C232.332 115.535 232.237 115.648 232.108 115.741C231.978 115.833 231.815 115.878 231.618 115.878C231.455 115.878 231.31 115.843 231.183 115.771C231.056 115.699 230.957 115.59 230.884 115.445C230.812 115.299 230.775 115.115 230.775 114.893V113.234H231.176V114.866C231.176 115.056 231.23 115.208 231.336 115.321C231.444 115.434 231.581 115.491 231.747 115.491C231.847 115.491 231.948 115.466 232.051 115.415C232.156 115.364 232.243 115.285 232.313 115.18C232.384 115.075 232.42 114.94 232.42 114.777ZM234.691 113.234V113.574H233.338V113.234H234.691ZM233.732 112.609H234.133V115.097C234.133 115.21 234.15 115.295 234.183 115.352C234.217 115.407 234.26 115.445 234.312 115.464C234.365 115.482 234.421 115.491 234.48 115.491C234.524 115.491 234.561 115.489 234.589 115.484C234.617 115.479 234.64 115.474 234.657 115.471L234.738 115.831C234.711 115.841 234.673 115.851 234.625 115.861C234.576 115.873 234.514 115.878 234.439 115.878C234.326 115.878 234.215 115.854 234.106 115.805C233.999 115.757 233.909 115.682 233.838 115.583C233.768 115.483 233.732 115.357 233.732 115.206V112.609ZM235.552 116.823C235.484 116.823 235.424 116.818 235.37 116.806C235.317 116.796 235.28 116.786 235.26 116.776L235.362 116.422C235.459 116.447 235.545 116.456 235.62 116.449C235.695 116.443 235.761 116.409 235.819 116.349C235.878 116.29 235.932 116.195 235.981 116.062L236.055 115.858L235.09 113.234H235.525L236.246 115.314H236.273L236.993 113.234H237.428L236.32 116.225C236.271 116.36 236.209 116.472 236.135 116.56C236.061 116.649 235.976 116.716 235.879 116.759C235.782 116.802 235.674 116.823 235.552 116.823Z" fill="#323C47" fill-opacity="0.8"/>
<path fill-rule="evenodd" clip-rule="evenodd" d="M244.266 103.376C243.788 103.376 243.401 102.993 243.401 102.521C243.401 102.049 243.788 101.667 244.266 101.667C244.744 101.667 245.131 102.049 245.131 102.521C245.131 102.993 244.744 103.376 244.266 103.376ZM241.202 103.376C240.727 103.376 240.342 102.993 240.342 102.521C240.342 102.049 240.727 101.667 241.202 101.667C241.677 101.667 242.061 102.049 242.061 102.521C242.061 102.993 241.677 103.376 241.202 103.376ZM238.137 103.376C237.659 103.376 237.272 102.993 237.272 102.521C237.272 102.049 237.659 101.667 238.137 101.667C238.615 101.667 239.002 102.049 239.002 102.521C239.002 102.993 238.615 103.376 238.137 103.376Z" fill="#D0D7DD" fill-opacity="0.72727"/>
</g>
<defs>
<filter id="filter0_d_2_516" x="20.2072" y="53.8155" width="30.0775" height="30.0775" filterUnits="userSpaceOnUse" color-interpolation-filters="sRGB">
<feFlood flood-opacity="0" result="BackgroundImageFix"/>
<feColorMatrix in="SourceAlpha" type="matrix" values="0 0 0 0 0 0 0 0 0 0 0 0 0 0 0 0 0 0 127 0" result="hardAlpha"/>
<feOffset dy="1.36716"/>
<feGaussianBlur stdDeviation="1.53806"/>
<feComposite in2="hardAlpha" operator="out"/>
<feColorMatrix type="matrix" values="0 0 0 0 0 0 0 0 0 0 0 0 0 0 0 0 0 0 0.05 0"/>
<feBlend mode="normal" in2="BackgroundImageFix" result="effect1_dropShadow_2_516"/>
<feBlend mode="normal" in="SourceGraphic" in2="effect1_dropShadow_2_516" result="shape"/>
</filter>
<filter id="filter1_d_2_516" x="20.2072" y="139.949" width="30.0775" height="30.0775" filterUnits="userSpaceOnUse" color-interpolation-filters="sRGB">
<feFlood flood-opacity="0" result="BackgroundImageFix"/>
<feColorMatrix in="SourceAlpha" type="matrix" values="0 0 0 0 0 0 0 0 0 0 0 0 0 0 0 0 0 0 127 0" result="hardAlpha"/>
<feOffset dy="1.36716"/>
<feGaussianBlur stdDeviation="1.53806"/>
<feComposite in2="hardAlpha" operator="out"/>
<feColorMatrix type="matrix" values="0 0 0 0 0 0 0 0 0 0 0 0 0 0 0 0 0 0 0.05 0"/>
<feBlend mode="normal" in2="BackgroundImageFix" result="effect1_dropShadow_2_516"/>
<feBlend mode="normal" in="SourceGraphic" in2="effect1_dropShadow_2_516" result="shape"/>
</filter>
<filter id="filter2_d_2_516" x="20.2033" y="183.015" width="30.0775" height="30.0775" filterUnits="userSpaceOnUse" color-interpolation-filters="sRGB">
<feFlood flood-opacity="0" result="BackgroundImageFix"/>
<feColorMatrix in="SourceAlpha" type="matrix" values="0 0 0 0 0 0 0 0 0 0 0 0 0 0 0 0 0 0 127 0" result="hardAlpha"/>
<feOffset dy="1.36716"/>
<feGaussianBlur stdDeviation="1.53806"/>
<feComposite in2="hardAlpha" operator="out"/>
<feColorMatrix type="matrix" values="0 0 0 0 0 0 0 0 0 0 0 0 0 0 0 0 0 0 0.05 0"/>
<feBlend mode="normal" in2="BackgroundImageFix" result="effect1_dropShadow_2_516"/>
<feBlend mode="normal" in="SourceGraphic" in2="effect1_dropShadow_2_516" result="shape"/>
</filter>
<filter id="filter3_d_2_516" x="-0.646296" y="171.604" width="47.6836" height="33.8113" filterUnits="userSpaceOnUse" color-interpolation-filters="sRGB">
<feFlood flood-opacity="0" result="BackgroundImageFix"/>
<feColorMatrix in="SourceAlpha" type="matrix" values="0 0 0 0 0 0 0 0 0 0 0 0 0 0 0 0 0 0 127 0" result="hardAlpha"/>
<feOffset dx="2.05074" dy="2.05074"/>
<feGaussianBlur stdDeviation="2.73432"/>
<feColorMatrix type="matrix" values="0 0 0 0 0 0 0 0 0 0 0 0 0 0 0 0 0 0 0.1 0"/>
<feBlend mode="normal" in2="BackgroundImageFix" result="effect1_dropShadow_2_516"/>
<feBlend mode="normal" in="SourceGraphic" in2="effect1_dropShadow_2_516" result="shape"/>
</filter>
<filter id="filter4_d_2_516" x="4.00316" y="89.7728" width="133.232" height="43.3408" filterUnits="userSpaceOnUse" color-interpolation-filters="sRGB">
<feFlood flood-opacity="0" result="BackgroundImageFix"/>
<feColorMatrix in="SourceAlpha" type="matrix" values="0 0 0 0 0 0 0 0 0 0 0 0 0 0 0 0 0 0 127 0" result="hardAlpha"/>
<feOffset dy="0.888889"/>
<feGaussianBlur stdDeviation="1.77778"/>
<feComposite in2="hardAlpha" operator="out"/>
<feColorMatrix type="matrix" values="0 0 0 0 0.116667 0 0 0 0 0.0208333 0 0 0 0 0.5 0 0 0 0.14 0"/>
<feBlend mode="normal" in2="BackgroundImageFix" result="effect1_dropShadow_2_516"/>
<feBlend mode="normal" in="SourceGraphic" in2="effect1_dropShadow_2_516" result="shape"/>
</filter>
<filter id="filter5_d_2_516" x="10.6349" y="96.8828" width="30.0775" height="30.0775" filterUnits="userSpaceOnUse" color-interpolation-filters="sRGB">
<feFlood flood-opacity="0" result="BackgroundImageFix"/>
<feColorMatrix in="SourceAlpha" type="matrix" values="0 0 0 0 0 0 0 0 0 0 0 0 0 0 0 0 0 0 127 0" result="hardAlpha"/>
<feOffset dy="1.36716"/>
<feGaussianBlur stdDeviation="1.53806"/>
<feComposite in2="hardAlpha" operator="out"/>
<feColorMatrix type="matrix" values="0 0 0 0 0 0 0 0 0 0 0 0 0 0 0 0 0 0 0.05 0"/>
<feBlend mode="normal" in2="BackgroundImageFix" result="effect1_dropShadow_2_516"/>
<feBlend mode="normal" in="SourceGraphic" in2="effect1_dropShadow_2_516" result="shape"/>
</filter>
<filter id="filter6_d_2_516" x="13.9192" y="0.222982" width="110.674" height="45.7334" filterUnits="userSpaceOnUse" color-interpolation-filters="sRGB">
<feFlood flood-opacity="0" result="BackgroundImageFix"/>
<feColorMatrix in="SourceAlpha" type="matrix" values="0 0 0 0 0 0 0 0 0 0 0 0 0 0 0 0 0 0 127 0" result="hardAlpha"/>
<feOffset dy="0.888889"/>
<feGaussianBlur stdDeviation="1.77778"/>
<feComposite in2="hardAlpha" operator="out"/>
<feColorMatrix type="matrix" values="0 0 0 0 0.116667 0 0 0 0 0.0208333 0 0 0 0 0.5 0 0 0 0.14 0"/>
<feBlend mode="normal" in2="BackgroundImageFix" result="effect1_dropShadow_2_516"/>
<feBlend mode="normal" in="SourceGraphic" in2="effect1_dropShadow_2_516" result="shape"/>
</filter>
<filter id="filter7_d_2_516" x="14.3986" y="1.1807" width="109.715" height="44.7745" filterUnits="userSpaceOnUse" color-interpolation-filters="sRGB">
<feFlood flood-opacity="0" result="BackgroundImageFix"/>
<feColorMatrix in="SourceAlpha" type="matrix" values="0 0 0 0 0 0 0 0 0 0 0 0 0 0 0 0 0 0 127 0" result="hardAlpha"/>
<feOffset dy="1.36716"/>
<feGaussianBlur stdDeviation="1.53806"/>
<feColorMatrix type="matrix" values="0 0 0 0 0 0 0 0 0 0 0 0 0 0 0 0 0 0 0.02 0"/>
<feBlend mode="normal" in2="BackgroundImageFix" result="effect1_dropShadow_2_516"/>
<feBlend mode="normal" in="SourceGraphic" in2="effect1_dropShadow_2_516" result="shape"/>
</filter>
<filter id="filter8_d_2_516" x="154.192" y="139.605" width="30.0775" height="30.0775" filterUnits="userSpaceOnUse" color-interpolation-filters="sRGB">
<feFlood flood-opacity="0" result="BackgroundImageFix"/>
<feColorMatrix in="SourceAlpha" type="matrix" values="0 0 0 0 0 0 0 0 0 0 0 0 0 0 0 0 0 0 127 0" result="hardAlpha"/>
<feOffset dy="1.36716"/>
<feGaussianBlur stdDeviation="1.53806"/>
<feComposite in2="hardAlpha" operator="out"/>
<feColorMatrix type="matrix" values="0 0 0 0 0 0 0 0 0 0 0 0 0 0 0 0 0 0 0.05 0"/>
<feBlend mode="normal" in2="BackgroundImageFix" result="effect1_dropShadow_2_516"/>
<feBlend mode="normal" in="SourceGraphic" in2="effect1_dropShadow_2_516" result="shape"/>
</filter>
<filter id="filter9_d_2_516" x="137.99" y="175.561" width="133.232" height="43.3408" filterUnits="userSpaceOnUse" color-interpolation-filters="sRGB">
<feFlood flood-opacity="0" result="BackgroundImageFix"/>
<feColorMatrix in="SourceAlpha" type="matrix" values="0 0 0 0 0 0 0 0 0 0 0 0 0 0 0 0 0 0 127 0" result="hardAlpha"/>
<feOffset dy="0.888889"/>
<feGaussianBlur stdDeviation="1.77778"/>
<feComposite in2="hardAlpha" operator="out"/>
<feColorMatrix type="matrix" values="0 0 0 0 0.116667 0 0 0 0 0.0208333 0 0 0 0 0.5 0 0 0 0.14 0"/>
<feBlend mode="normal" in2="BackgroundImageFix" result="effect1_dropShadow_2_516"/>
<feBlend mode="normal" in="SourceGraphic" in2="effect1_dropShadow_2_516" result="shape"/>
</filter>
<filter id="filter10_d_2_516" x="144.621" y="182.67" width="30.0775" height="30.0775" filterUnits="userSpaceOnUse" color-interpolation-filters="sRGB">
<feFlood flood-opacity="0" result="BackgroundImageFix"/>
<feColorMatrix in="SourceAlpha" type="matrix" values="0 0 0 0 0 0 0 0 0 0 0 0 0 0 0 0 0 0 127 0" result="hardAlpha"/>
<feOffset dy="1.36716"/>
<feGaussianBlur stdDeviation="1.53806"/>
<feComposite in2="hardAlpha" operator="out"/>
<feColorMatrix type="matrix" values="0 0 0 0 0 0 0 0 0 0 0 0 0 0 0 0 0 0 0.05 0"/>
<feBlend mode="normal" in2="BackgroundImageFix" result="effect1_dropShadow_2_516"/>
<feBlend mode="normal" in="SourceGraphic" in2="effect1_dropShadow_2_516" result="shape"/>
</filter>
<filter id="filter11_d_2_516" x="147.904" y="86.0128" width="110.674" height="45.7334" filterUnits="userSpaceOnUse" color-interpolation-filters="sRGB">
<feFlood flood-opacity="0" result="BackgroundImageFix"/>
<feColorMatrix in="SourceAlpha" type="matrix" values="0 0 0 0 0 0 0 0 0 0 0 0 0 0 0 0 0 0 127 0" result="hardAlpha"/>
<feOffset dy="0.888889"/>
<feGaussianBlur stdDeviation="1.77778"/>
<feComposite in2="hardAlpha" operator="out"/>
<feColorMatrix type="matrix" values="0 0 0 0 0.116667 0 0 0 0 0.0208333 0 0 0 0 0.5 0 0 0 0.14 0"/>
<feBlend mode="normal" in2="BackgroundImageFix" result="effect1_dropShadow_2_516"/>
<feBlend mode="normal" in="SourceGraphic" in2="effect1_dropShadow_2_516" result="shape"/>
</filter>
<filter id="filter12_d_2_516" x="148.383" y="86.97" width="109.715" height="44.7745" filterUnits="userSpaceOnUse" color-interpolation-filters="sRGB">
<feFlood flood-opacity="0" result="BackgroundImageFix"/>
<feColorMatrix in="SourceAlpha" type="matrix" values="0 0 0 0 0 0 0 0 0 0 0 0 0 0 0 0 0 0 127 0" result="hardAlpha"/>
<feOffset dy="1.36716"/>
<feGaussianBlur stdDeviation="1.53806"/>
<feColorMatrix type="matrix" values="0 0 0 0 0 0 0 0 0 0 0 0 0 0 0 0 0 0 0.02 0"/>
<feBlend mode="normal" in2="BackgroundImageFix" result="effect1_dropShadow_2_516"/>
<feBlend mode="normal" in="SourceGraphic" in2="effect1_dropShadow_2_516" result="shape"/>
</filter>
<clipPath id="clip0_2_516">
<rect width="13.6716" height="13.6716" fill="white" transform="translate(28.4104 60.6514)"/>
</clipPath>
<clipPath id="clip1_2_516">
<rect width="13.6716" height="13.6716" fill="white" transform="translate(18.8379 103.719)"/>
</clipPath>
<clipPath id="clip2_2_516">
<rect width="103.562" height="38.6223" fill="white" transform="translate(17.4747 2.88965)"/>
</clipPath>
<clipPath id="clip3_2_516">
<rect width="103.562" height="38.6223" fill="white" transform="translate(17.4747 2.88965)"/>
</clipPath>
<clipPath id="clip4_2_516">
<rect width="13.6716" height="13.6716" fill="white" transform="translate(162.395 146.441)"/>
</clipPath>
<clipPath id="clip5_2_516">
<rect width="13.6716" height="13.6716" fill="white" transform="translate(152.824 189.506)"/>
</clipPath>
<clipPath id="clip6_2_516">
<rect width="103.562" height="38.6223" fill="white" transform="translate(151.459 88.6794)"/>
</clipPath>
<clipPath id="clip7_2_516">
<rect width="103.562" height="38.6223" fill="white" transform="translate(151.459 88.6792)"/>
</clipPath>
</defs>
</svg>
