<svg width="110" height="110" viewBox="0 0 110 110" fill="none" xmlns="http://www.w3.org/2000/svg">
<g filter="url(#filter0_d_2_2389)">
<rect x="20" y="10" width="70" height="70" rx="20" fill="url(#paint0_linear_2_2389)"/>
</g>
<path fill-rule="evenodd" clip-rule="evenodd" d="M52.0808 35.0826H58.3643V36.8796H52.0808V35.0826ZM51.6308 37.774H60.1602V51.994C58.6186 52.7316 56.9314 53.1144 55.2226 53.1144C53.5137 53.1144 51.8265 52.7316 50.285 51.994V37.774H51.6308ZM54.7711 50.7847V46.298C54.7711 46.2388 54.7595 46.1802 54.7369 46.1255C54.7142 46.0709 54.681 46.0212 54.6392 45.9793C54.5973 45.9375 54.5476 45.9043 54.493 45.8816C54.4383 45.859 54.3797 45.8474 54.3205 45.8474H52.0793C51.9602 45.8477 51.846 45.8953 51.7618 45.9796C51.6776 46.064 51.6303 46.1783 51.6302 46.2974V50.7847C51.6302 50.8439 51.6418 50.9026 51.6644 50.9573C51.6871 51.012 51.7203 51.0617 51.7621 51.1035C51.8039 51.1454 51.8536 51.1786 51.9083 51.2013C51.963 51.224 52.0216 51.2356 52.0808 51.2356H54.322C54.3812 51.2356 54.4398 51.224 54.4945 51.2013C54.5491 51.1786 54.5988 51.1454 54.6407 51.1035C54.6825 51.0617 54.7157 51.012 54.7383 50.9573C54.761 50.9026 54.7726 50.8439 54.7726 50.7847H54.7711ZM54.7711 44.5019V40.0146C54.7711 39.9554 54.7595 39.8967 54.7369 39.842C54.7142 39.7873 54.681 39.7376 54.6392 39.6957C54.5974 39.6539 54.5477 39.6207 54.493 39.598C54.4383 39.5753 54.3797 39.5637 54.3205 39.5637H52.0808C52.0217 39.5636 51.9631 39.5752 51.9084 39.5979C51.8537 39.6205 51.8041 39.6536 51.7622 39.6954C51.7204 39.7373 51.6872 39.7869 51.6645 39.8416C51.6419 39.8962 51.6302 39.9548 51.6302 40.014V44.5016C51.6302 44.5607 51.6418 44.6194 51.6644 44.674C51.6871 44.7287 51.7203 44.7784 51.7621 44.8203C51.804 44.8621 51.8537 44.8953 51.9083 44.9179C51.963 44.9406 52.0216 44.9522 52.0808 44.9522H54.322C54.3812 44.9522 54.4398 44.9405 54.4945 44.9178C54.5491 44.8952 54.5988 44.8619 54.6407 44.8201C54.6825 44.7782 54.7157 44.7285 54.7383 44.6738C54.761 44.6191 54.7726 44.5605 54.7726 44.5013L54.7711 44.5019ZM58.8149 50.7847V46.298C58.8149 46.2388 58.8033 46.1802 58.7807 46.1255C58.758 46.0709 58.7248 46.0212 58.683 45.9793C58.6411 45.9375 58.5915 45.9043 58.5368 45.8816C58.4821 45.859 58.4235 45.8474 58.3643 45.8474H56.124C56.0648 45.8474 56.0062 45.859 55.9515 45.8816C55.8968 45.9043 55.8471 45.9374 55.8052 45.9793C55.7634 46.0211 55.7301 46.0708 55.7075 46.1255C55.6848 46.1802 55.6732 46.2388 55.6732 46.298V50.7847C55.6731 50.844 55.6847 50.9026 55.7074 50.9573C55.73 51.012 55.7633 51.0618 55.8051 51.1036C55.847 51.1455 55.8967 51.1787 55.9515 51.2014C56.0062 51.224 56.0648 51.2357 56.124 51.2356H58.3643C58.4235 51.2356 58.4821 51.224 58.5368 51.2013C58.5915 51.1786 58.6412 51.1454 58.683 51.1035C58.7249 51.0617 58.758 51.012 58.7807 50.9573C58.8033 50.9026 58.8149 50.8439 58.8149 50.7847ZM58.8149 40.0146C58.8149 39.9554 58.8033 39.8967 58.7807 39.842C58.758 39.7873 58.7249 39.7376 58.683 39.6957C58.6412 39.6539 58.5915 39.6207 58.5368 39.598C58.4821 39.5753 58.4235 39.5637 58.3643 39.5637H56.124C56.0648 39.5636 56.0062 39.5752 55.9515 39.5979C55.8968 39.6205 55.8471 39.6537 55.8052 39.6955C55.7634 39.7374 55.7301 39.7871 55.7075 39.8418C55.6848 39.8964 55.6732 39.9551 55.6732 40.0143V44.5016C55.6732 44.5608 55.6848 44.6194 55.7075 44.6741C55.7301 44.7288 55.7634 44.7784 55.8052 44.8203C55.8471 44.8621 55.8968 44.8953 55.9515 44.9179C56.0062 44.9406 56.0648 44.9522 56.124 44.9522H58.3643C58.4235 44.9522 58.4821 44.9405 58.5368 44.9178C58.5915 44.8952 58.6412 44.8619 58.683 44.8201C58.7249 44.7782 58.758 44.7285 58.7807 44.6738C58.8033 44.6191 58.8149 44.5605 58.8149 44.5013V40.0146ZM52.5314 50.3404H53.8773V46.748H52.5314V50.3404ZM52.5314 44.0569H53.8773V40.4643H52.5314V44.0569ZM61.0554 51.5144C62.0593 50.918 62.9667 50.1725 63.7466 49.3035V44.8156L61.0554 43.8083V51.5144ZM56.5684 44.0569H57.9143V40.4643H56.5684V44.0569ZM55.2226 25C59.6372 25.0045 63.8698 26.7603 66.9914 29.8819C70.113 33.0035 71.8688 37.2361 71.8733 41.6507C71.8733 50.0856 57.4634 63.0379 55.224 65C52.9811 63.0385 38.5718 50.0924 38.5718 41.6507C38.5767 37.2362 40.3325 33.0038 43.4541 29.8823C46.5756 26.7607 50.808 25.0049 55.2226 25ZM67.5818 41.6507C67.5819 39.2063 66.8571 36.8167 65.4991 34.7842C64.141 32.7517 62.2108 31.1676 59.9524 30.2321C57.6941 29.2966 55.209 29.0518 52.8116 29.5286C50.4141 30.0055 48.2118 31.1826 46.4833 32.911C44.7548 34.6395 43.5777 36.8417 43.1008 39.2392C42.6239 41.6366 42.8686 44.1217 43.8041 46.3801C44.7395 48.6384 46.3236 50.5687 48.3561 51.9268C50.3886 53.2848 52.7781 54.0097 55.2226 54.0097C58.4994 54.0066 61.6413 52.7036 63.9584 50.3865C66.2755 48.0694 67.5787 44.9276 67.5818 41.6507ZM43.1065 60.2099C43.1065 59.6777 42.9487 59.1574 42.653 58.7148C42.3573 58.2723 41.937 57.9273 41.4452 57.7236C40.9535 57.52 40.4124 57.4667 39.8904 57.5705C39.3683 57.6743 38.8888 57.9306 38.5125 58.307C38.1361 58.6834 37.8798 59.1629 37.776 59.6849C37.6721 60.2069 37.7254 60.748 37.9291 61.2398C38.1328 61.7315 38.4777 62.1518 38.9203 62.4475C39.3628 62.7432 39.8831 62.9011 40.4154 62.9011C40.7688 62.9011 41.1188 62.8315 41.4453 62.6963C41.7718 62.5611 42.0685 62.3628 42.3184 62.1129C42.5683 61.863 42.7665 61.5663 42.9017 61.2398C43.037 60.9133 43.1066 60.5633 43.1065 60.2099ZM72.2765 58.4141C72.2765 58.0589 72.1712 57.7117 71.9738 57.4163C71.7765 57.121 71.496 56.8908 71.1679 56.7549C70.8397 56.619 70.4786 56.5834 70.1303 56.6527C69.7819 56.722 69.4619 56.893 69.2108 57.1442C68.9596 57.3953 68.7886 57.7153 68.7193 58.0637C68.65 58.4121 68.6855 58.7732 68.8215 59.1013C68.9574 59.4295 69.1876 59.7099 69.4829 59.9073C69.7782 60.1046 70.1254 60.2099 70.4806 60.2099C70.9569 60.2099 71.4136 60.0206 71.7504 59.6838C72.0872 59.3471 72.2764 58.8903 72.2765 58.4141ZM46.6988 49.3032C47.4785 50.1724 48.3859 50.918 49.3897 51.5144V43.808L46.6988 44.8153V49.3032ZM56.5684 50.3401H57.9143V46.748H56.5684V50.3401Z" fill="white"/>
<defs>
<filter id="filter0_d_2_2389" x="0" y="0" width="110" height="110" filterUnits="userSpaceOnUse" color-interpolation-filters="sRGB">
<feFlood flood-opacity="0" result="BackgroundImageFix"/>
<feColorMatrix in="SourceAlpha" type="matrix" values="0 0 0 0 0 0 0 0 0 0 0 0 0 0 0 0 0 0 127 0" result="hardAlpha"/>
<feMorphology radius="2" operator="erode" in="SourceAlpha" result="effect1_dropShadow_2_2389"/>
<feOffset dy="10"/>
<feGaussianBlur stdDeviation="11"/>
<feComposite in2="hardAlpha" operator="out"/>
<feColorMatrix type="matrix" values="0 0 0 0 0.427451 0 0 0 0 0.670588 0 0 0 0 1 0 0 0 0.36 0"/>
<feBlend mode="normal" in2="BackgroundImageFix" result="effect1_dropShadow_2_2389"/>
<feBlend mode="normal" in="SourceGraphic" in2="effect1_dropShadow_2_2389" result="shape"/>
</filter>
<linearGradient id="paint0_linear_2_2389" x1="20" y1="10" x2="90" y2="80" gradientUnits="userSpaceOnUse">
<stop stop-color="#5CA1FE"/>
<stop offset="1" stop-color="#217BF4"/>
</linearGradient>
</defs>
</svg>
