<svg width="84" height="35" viewBox="0 0 84 35" fill="none" xmlns="http://www.w3.org/2000/svg">
<path d="M25.7314 4.62911V13.9805H24.7529C24.5191 13.9805 24.3714 13.8666 24.3098 13.6389L24.1806 12.6327C23.7744 13.082 23.319 13.4451 22.8143 13.722C22.3097 13.9928 21.7312 14.1282 21.0788 14.1282C20.568 14.1282 20.1157 14.0451 19.7218 13.8789C19.3341 13.7066 19.0079 13.4666 18.7433 13.1589C18.4787 12.8512 18.2787 12.4788 18.1433 12.0419C18.014 11.6049 17.9494 11.1218 17.9494 10.5926V4.62911H19.5926V10.5926C19.5926 11.3003 19.7526 11.848 20.0726 12.2357C20.3988 12.6235 20.8942 12.8173 21.5589 12.8173C22.0451 12.8173 22.4974 12.7035 22.9159 12.4758C23.3405 12.2419 23.7313 11.9219 24.0883 11.5157V4.62911H25.7314ZM31.5771 14.1282C30.8385 14.1282 30.2693 13.922 29.8693 13.5097C29.4754 13.0973 29.2784 12.5035 29.2784 11.728V6.00458H28.1522C28.0538 6.00458 27.9707 5.97689 27.903 5.9215C27.8353 5.85996 27.8014 5.76764 27.8014 5.64456V4.98913L29.3338 4.79527L29.7123 1.90586C29.7308 1.81355 29.7708 1.7397 29.8323 1.68431C29.9 1.62277 29.9862 1.592 30.0908 1.592H30.9216V4.81374H33.6264V6.00458H30.9216V11.6172C30.9216 12.0111 31.017 12.3034 31.2078 12.4942C31.3986 12.685 31.6448 12.7804 31.9463 12.7804C32.1186 12.7804 32.2663 12.7589 32.3894 12.7158C32.5187 12.6665 32.6294 12.6142 32.7217 12.5588C32.8141 12.5035 32.891 12.4542 32.9525 12.4111C33.0202 12.3619 33.0787 12.3373 33.1279 12.3373C33.2141 12.3373 33.291 12.3896 33.3587 12.4942L33.8387 13.2789C33.5556 13.5435 33.2141 13.7528 32.8141 13.9066C32.414 14.0543 32.0017 14.1282 31.5771 14.1282ZM37.2525 6.50307C37.5479 5.86303 37.911 5.36454 38.3418 5.0076C38.7726 4.6445 39.2987 4.46295 39.9203 4.46295C40.1173 4.46295 40.305 4.48449 40.4834 4.52757C40.6681 4.57065 40.8311 4.63834 40.9727 4.73066L40.8527 5.95843C40.8158 6.11228 40.7234 6.18921 40.5757 6.18921C40.4896 6.18921 40.3634 6.17075 40.1973 6.13382C40.0311 6.0969 39.8434 6.07843 39.6341 6.07843C39.3387 6.07843 39.0741 6.12151 38.8403 6.20767C38.6125 6.29383 38.4064 6.42307 38.2218 6.59539C38.0433 6.76155 37.8802 6.9708 37.7325 7.22312C37.5909 7.46929 37.4617 7.75238 37.3448 8.0724V13.9805H35.6924V4.62911H36.634C36.8124 4.62911 36.9355 4.66296 37.0032 4.73066C37.0709 4.79835 37.1171 4.91528 37.1417 5.08145L37.2525 6.50307ZM48.667 8.28473C48.667 7.90316 48.6116 7.55545 48.5009 7.24158C48.3962 6.92156 48.2393 6.6477 48.0301 6.41999C47.827 6.18613 47.5777 6.00766 47.2823 5.88457C46.9869 5.75534 46.6515 5.69072 46.2761 5.69072C45.4884 5.69072 44.8637 5.9215 44.4021 6.38307C43.9467 6.83848 43.6636 7.47237 43.5529 8.28473H48.667ZM49.9963 12.6696C49.7932 12.9158 49.5502 13.1312 49.2671 13.3158C48.984 13.4943 48.6793 13.642 48.3532 13.7589C48.0331 13.8758 47.7008 13.962 47.3562 14.0174C47.0115 14.0789 46.67 14.1097 46.3315 14.1097C45.6853 14.1097 45.0883 14.002 44.5406 13.7866C43.999 13.5651 43.5282 13.245 43.1282 12.8266C42.7343 12.4019 42.4266 11.8788 42.2051 11.2572C41.9835 10.6356 41.8728 9.92175 41.8728 9.11555C41.8728 8.4632 41.9712 7.85393 42.1682 7.28774C42.3712 6.72155 42.6605 6.23229 43.0359 5.81995C43.4113 5.40147 43.8698 5.07529 44.4114 4.84143C44.9529 4.60142 45.5622 4.48141 46.2392 4.48141C46.7992 4.48141 47.3162 4.5768 47.79 4.76758C48.2701 4.95221 48.6824 5.22299 49.027 5.57994C49.3778 5.93073 49.6517 6.36768 49.8486 6.89079C50.0456 7.40775 50.144 7.99855 50.144 8.66321C50.144 8.92169 50.1163 9.09401 50.061 9.18017C50.0056 9.26633 49.9009 9.30941 49.7471 9.30941H43.4975C43.5159 9.90021 43.5959 10.4141 43.7375 10.851C43.8852 11.288 44.0883 11.6542 44.3468 11.9496C44.6052 12.2388 44.9129 12.4573 45.2699 12.605C45.6268 12.7465 46.0269 12.8173 46.47 12.8173C46.8823 12.8173 47.2362 12.7712 47.5316 12.6788C47.8331 12.5804 48.0916 12.4758 48.307 12.365C48.5224 12.2542 48.7009 12.1527 48.8424 12.0603C48.9901 11.9619 49.1163 11.9126 49.2209 11.9126C49.3563 11.9126 49.4609 11.965 49.5348 12.0696L49.9963 12.6696Z" fill="#8F8F8F"/>
<path d="M33.8355 30.6794C33.9614 30.6794 34.0699 30.7284 34.1609 30.8264L35.0428 31.7923C34.4269 32.5202 33.6745 33.0837 32.7856 33.4826C31.9036 33.8816 30.8397 34.0811 29.5938 34.0811C28.5019 34.0811 27.5115 33.8921 26.6226 33.5141C25.7407 33.1362 24.9848 32.6077 24.3548 31.9288C23.7319 31.2498 23.2489 30.4379 22.906 29.493C22.563 28.5481 22.3915 27.5087 22.3915 26.3748C22.3915 25.2409 22.57 24.2015 22.927 23.2566C23.2909 22.3117 23.7984 21.4997 24.4493 20.8208C25.1003 20.1419 25.8772 19.6134 26.7801 19.2354C27.69 18.8575 28.6944 18.6685 29.7933 18.6685C30.8642 18.6685 31.8161 18.8435 32.6491 19.1934C33.482 19.5434 34.2064 20.0089 34.8224 20.5898L34.0874 21.6292C34.0384 21.7062 33.9754 21.7692 33.8984 21.8182C33.8285 21.8672 33.734 21.8917 33.615 21.8917C33.482 21.8917 33.3245 21.8252 33.1425 21.6922C32.9675 21.5592 32.7331 21.4122 32.4391 21.2513C32.1521 21.0833 31.7951 20.9328 31.3682 20.7998C30.9412 20.6668 30.4093 20.6003 29.7723 20.6003C29.0234 20.6003 28.3375 20.7333 27.7145 20.9993C27.0916 21.2582 26.5526 21.6362 26.0977 22.1332C25.6497 22.6231 25.2997 23.2286 25.0478 23.9495C24.8028 24.6634 24.6803 25.4719 24.6803 26.3748C24.6803 27.2917 24.8098 28.1071 25.0688 28.8211C25.3277 29.535 25.6847 30.1404 26.1397 30.6374C26.5946 31.1343 27.1301 31.5123 27.746 31.7713C28.362 32.0303 29.0269 32.1597 29.7408 32.1597C30.1748 32.1597 30.5633 32.1352 30.9062 32.0863C31.2562 32.0303 31.5747 31.9498 31.8616 31.8448C32.1556 31.7398 32.4321 31.6068 32.6911 31.4458C32.95 31.2778 33.2055 31.0783 33.4575 30.8474C33.5135 30.7984 33.573 30.7599 33.636 30.7319C33.699 30.6969 33.7655 30.6794 33.8355 30.6794ZM39.5998 18.4165V33.9131H37.5419V18.4165H39.5998ZM50.2197 27.3932C50.2197 26.9872 50.1602 26.6128 50.0412 26.2698C49.9292 25.9268 49.7612 25.6293 49.5373 25.3774C49.3133 25.1254 49.0403 24.9294 48.7183 24.7894C48.3964 24.6494 48.0254 24.5794 47.6054 24.5794C46.7445 24.5794 46.0656 24.8279 45.5686 25.3249C45.0787 25.8218 44.7672 26.5113 44.6342 27.3932H50.2197ZM51.91 32.3907C51.6581 32.6847 51.3676 32.9402 51.0386 33.1572C50.7096 33.3671 50.3597 33.5386 49.9887 33.6716C49.6177 33.8046 49.2328 33.9026 48.8338 33.9656C48.4419 34.0286 48.0534 34.0601 47.6684 34.0601C46.9335 34.0601 46.2511 33.9376 45.6211 33.6926C44.9982 33.4406 44.4557 33.0767 43.9938 32.6007C43.5388 32.1178 43.1818 31.5228 42.9229 30.8159C42.6709 30.1019 42.5449 29.283 42.5449 28.3591C42.5449 27.6172 42.6604 26.9277 42.8914 26.2908C43.1223 25.6468 43.4513 25.0869 43.8783 24.6109C44.3122 24.135 44.8407 23.7605 45.4636 23.4875C46.0866 23.2146 46.7865 23.0781 47.5634 23.0781C48.2144 23.0781 48.8128 23.1866 49.3588 23.4036C49.9117 23.6135 50.3877 23.9215 50.7866 24.3275C51.1856 24.7334 51.4971 25.2339 51.7211 25.8288C51.952 26.4238 52.0675 27.1027 52.0675 27.8656C52.0675 28.1806 52.0325 28.3941 51.9625 28.5061C51.8925 28.6111 51.763 28.6636 51.5741 28.6636H44.5817C44.6027 29.3005 44.6937 29.857 44.8547 30.3329C45.0157 30.8019 45.2361 31.1938 45.5161 31.5088C45.8031 31.8238 46.1426 32.0583 46.5345 32.2122C46.9265 32.3662 47.364 32.4432 47.8469 32.4432C48.3019 32.4432 48.6938 32.3907 49.0228 32.2857C49.3588 32.1807 49.6457 32.0688 49.8837 31.9498C50.1287 31.8238 50.3317 31.7083 50.4927 31.6033C50.6606 31.4983 50.8076 31.4458 50.9336 31.4458C51.1016 31.4458 51.2311 31.5088 51.3221 31.6348L51.91 32.3907ZM56.8298 25.2934C57.1728 24.5934 57.5857 24.044 58.0687 23.645C58.5517 23.2461 59.1326 23.0466 59.8115 23.0466C60.0425 23.0466 60.2595 23.0746 60.4625 23.1306C60.6725 23.1796 60.8544 23.2566 61.0084 23.3616L60.8719 24.9049C60.8229 25.0939 60.7075 25.1884 60.5255 25.1884C60.4275 25.1884 60.2805 25.1709 60.0845 25.1359C59.8885 25.0939 59.6786 25.0729 59.4546 25.0729C59.1256 25.0729 58.8351 25.1219 58.5832 25.2199C58.3312 25.3109 58.1037 25.4509 57.9007 25.6398C57.7047 25.8218 57.5298 26.0493 57.3758 26.3223C57.2218 26.5883 57.0783 26.8927 56.9453 27.2357V33.9131H54.898V23.2461H56.0739C56.2979 23.2461 56.4484 23.2881 56.5253 23.3721C56.6093 23.449 56.6688 23.589 56.7038 23.792L56.8298 25.2934ZM65.265 18.4165V27.4772H65.7479C65.8949 27.4772 66.0174 27.4562 66.1154 27.4142C66.2134 27.3722 66.3149 27.2882 66.4199 27.1622L69.6116 23.645C69.7096 23.512 69.818 23.4141 69.937 23.3511C70.056 23.2811 70.2065 23.2461 70.3885 23.2461H72.2573L68.4882 27.3722C68.2852 27.6312 68.0682 27.8306 67.8372 27.9706C67.9702 28.0616 68.0857 28.1666 68.1837 28.2856C68.2887 28.4046 68.3902 28.5341 68.4882 28.6741L72.4988 33.9131H70.6615C70.4935 33.9131 70.3465 33.8851 70.2205 33.8291C70.1015 33.7731 69.993 33.6716 69.895 33.5246L66.5983 29.241C66.4934 29.08 66.3884 28.9785 66.2834 28.9365C66.1784 28.8875 66.0209 28.8631 65.8109 28.8631H65.265V33.9131H63.2177V18.4165H65.265Z" fill="#8F8F8F"/>
<path d="M71.8754 6.29173C71.8262 6.35943 71.7769 6.41174 71.7277 6.44866C71.6785 6.48559 71.6108 6.50405 71.5246 6.50405C71.4323 6.50405 71.3307 6.46713 71.22 6.39328C71.1092 6.31327 70.9707 6.22711 70.8046 6.1348C70.6445 6.04248 70.4445 5.9594 70.2045 5.88555C69.9707 5.80555 69.6814 5.76554 69.3368 5.76554C68.8752 5.76554 68.469 5.84863 68.1182 6.01479C67.7674 6.1748 67.472 6.40866 67.232 6.71637C66.9982 7.02408 66.8197 7.39642 66.6966 7.83337C66.5797 8.27032 66.5212 8.75958 66.5212 9.30115C66.5212 9.86734 66.5858 10.372 66.7151 10.8151C66.8443 11.252 67.0259 11.6213 67.2597 11.9229C67.4997 12.2183 67.7859 12.446 68.1182 12.606C68.4567 12.7598 68.8352 12.8368 69.2537 12.8368C69.6537 12.8368 69.983 12.7906 70.2414 12.6983C70.4999 12.5998 70.7122 12.4921 70.8784 12.3752C71.0507 12.2583 71.1923 12.1536 71.3031 12.0613C71.42 11.9629 71.5338 11.9136 71.6446 11.9136C71.78 11.9136 71.8846 11.9659 71.9585 12.0706L72.42 12.6706C72.217 12.9229 71.9862 13.1383 71.7277 13.3168C71.4692 13.4953 71.1892 13.646 70.8876 13.7691C70.5922 13.8861 70.2814 13.9722 69.9553 14.0276C69.6291 14.083 69.2968 14.1107 68.9583 14.1107C68.3736 14.1107 67.829 14.003 67.3243 13.7876C66.8258 13.5722 66.392 13.2614 66.0227 12.8552C65.6535 12.4429 65.3642 11.9382 65.155 11.3413C64.9457 10.7443 64.8411 10.0643 64.8411 9.30115C64.8411 8.60572 64.9365 7.96261 65.1273 7.3718C65.3242 6.78099 65.6073 6.27327 65.9766 5.84863C66.352 5.41783 66.8105 5.08242 67.352 4.84241C67.8998 4.60239 68.5275 4.48239 69.2352 4.48239C69.8937 4.48239 70.4722 4.59008 70.9707 4.80548C71.4754 5.01473 71.9216 5.31321 72.3093 5.70092L71.8754 6.29173ZM76.2056 5.87632C76.6056 5.45168 77.0487 5.11319 77.5349 4.86087C78.0211 4.60855 78.5812 4.48239 79.215 4.48239C79.7258 4.48239 80.1751 4.56855 80.5628 4.74086C80.9567 4.90703 81.2829 5.14704 81.5413 5.46091C81.806 5.76862 82.006 6.14095 82.1414 6.5779C82.2768 7.01485 82.3445 7.49796 82.3445 8.02722V13.9814H80.6921V8.02722C80.6921 7.31949 80.529 6.77176 80.2028 6.38404C79.8828 5.99017 79.3935 5.79324 78.735 5.79324C78.2488 5.79324 77.7934 5.91017 77.3688 6.14403C76.9503 6.37789 76.5626 6.69483 76.2056 7.09486V13.9814H74.5532V0.383666H76.2056V5.87632Z" fill="#8F8F8F"/>
<path d="M58.8532 8.0958C58.6942 8.06601 58.5304 8.05111 58.3615 8.05111C58.0536 8.05111 57.7655 8.11815 57.4974 8.25224C57.2292 8.38634 56.9958 8.56761 56.7971 8.79606C56.6034 9.02451 56.4495 9.28773 56.3352 9.58571C56.221 9.87872 56.1639 10.1842 56.1639 10.502C56.1639 10.8198 56.2309 11.0682 56.365 11.2469C56.5041 11.4208 56.7052 11.5077 56.9684 11.5077C57.0976 11.5077 57.2267 11.4878 57.3558 11.4481C57.4899 11.4084 57.6166 11.3388 57.7357 11.2395C57.8549 11.1352 57.9642 10.9986 58.0635 10.8298C58.1628 10.6609 58.2448 10.4498 58.3094 10.1966L58.8532 8.0958ZM59.7248 10.0029C59.6453 10.3207 59.6056 10.5815 59.6056 10.7851C59.6105 10.9837 59.6428 11.1427 59.7024 11.2618C59.762 11.3761 59.8464 11.4555 59.9557 11.5002C60.065 11.5449 60.1891 11.5673 60.3282 11.5673C60.5368 11.5673 60.7329 11.5027 60.9167 11.3736C61.1054 11.2395 61.2693 11.0533 61.4084 10.8149C61.5474 10.5765 61.6567 10.2934 61.7361 9.96563C61.8206 9.63785 61.8628 9.28028 61.8628 8.8929C61.8628 8.24728 61.761 7.67863 61.5573 7.18696C61.3587 6.6953 61.0781 6.28557 60.7155 5.95779C60.353 5.62505 59.9209 5.37673 59.4193 5.21284C58.9227 5.04399 58.3764 4.95956 57.7804 4.95956C57.1249 4.95956 56.519 5.08372 55.9628 5.33204C55.4065 5.57539 54.9223 5.91061 54.5101 6.33772C54.1029 6.76482 53.7825 7.26891 53.5491 7.84997C53.3207 8.43103 53.2064 9.05679 53.2064 9.72725C53.2064 10.5417 53.3331 11.2594 53.5864 11.8802C53.8396 12.496 54.1873 13.0125 54.6293 13.4297C55.0713 13.8419 55.5903 14.1523 56.1862 14.3608C56.7872 14.5694 57.4353 14.6737 58.1306 14.6737C58.513 14.6737 58.8706 14.6514 59.2033 14.6067C59.536 14.5669 59.8415 14.5098 60.1196 14.4353C60.3977 14.3658 60.651 14.2839 60.8794 14.1895C61.1079 14.1001 61.3115 14.0033 61.4903 13.899C61.6194 13.8245 61.7336 13.8021 61.833 13.8319C61.9323 13.8617 62.0043 13.9362 62.049 14.0554L62.3023 14.7184C61.7858 15.0561 61.1824 15.3318 60.4921 15.5453C59.8017 15.7589 59.0146 15.8656 58.1306 15.8656C57.2317 15.8656 56.3998 15.7241 55.635 15.441C54.8702 15.1579 54.2072 14.7507 53.646 14.2193C53.0897 13.6929 52.6527 13.0497 52.3348 12.2899C52.022 11.53 51.8655 10.6758 51.8655 9.72725C51.8655 9.19585 51.9326 8.67935 52.0667 8.17775C52.2057 7.67615 52.4019 7.20683 52.6552 6.76979C52.9085 6.32779 53.2139 5.92303 53.5715 5.55552C53.929 5.18801 54.3263 4.87265 54.7634 4.60943C55.2004 4.34622 55.6722 4.1426 56.1788 3.99857C56.6903 3.84958 57.2242 3.77509 57.7804 3.77509C58.4857 3.77509 59.1611 3.89428 59.8067 4.13266C60.4573 4.36608 61.0309 4.70379 61.5275 5.1458C62.0291 5.58284 62.4289 6.1192 62.7269 6.75489C63.0249 7.38562 63.1739 8.09829 63.1739 8.8929C63.1739 9.4243 63.0944 9.92342 62.9355 10.3903C62.7815 10.8521 62.563 11.2544 62.2799 11.5971C62.0018 11.9398 61.6716 12.2104 61.2892 12.4091C60.9117 12.6028 60.4995 12.6996 60.0525 12.6996C59.7099 12.6996 59.4069 12.6201 59.1437 12.4612C58.8805 12.3023 58.6992 12.0465 58.5999 11.6939C58.3069 12.0515 57.9965 12.3073 57.6687 12.4612C57.3409 12.6152 56.9858 12.6922 56.6034 12.6922C56.2905 12.6922 56.0174 12.6375 55.784 12.5283C55.5555 12.419 55.3618 12.27 55.2029 12.0813C55.049 11.8876 54.9322 11.6616 54.8528 11.4034C54.7783 11.1402 54.741 10.8546 54.741 10.5467C54.741 10.2636 54.7758 9.97805 54.8453 9.69C54.9198 9.39699 55.0291 9.11639 55.1731 8.8482C55.3171 8.57506 55.4959 8.32177 55.7095 8.08835C55.928 7.84997 56.1813 7.64387 56.4693 7.47005C56.7623 7.29126 57.0901 7.1522 57.4527 7.05287C57.8202 6.94858 58.2224 6.89643 58.6595 6.89643C59.0469 6.89643 59.3771 6.92623 59.6503 6.98583C59.9234 7.04542 60.1866 7.12985 60.4399 7.23911L59.7248 10.0029Z" fill="#8F8F8F"/>
<g clip-path="url(#clip0_2_70)">
<path d="M16.6872 8.47288C16.6872 12.8377 13.1447 16.3771 8.7735 16.3771C4.40232 16.3771 0.859847 12.8377 0.859847 8.47288C0.859847 4.10807 4.40232 0.568618 8.7735 0.568618C13.1447 0.568618 16.6872 4.10807 16.6872 8.47288Z" fill="#D8D8D8" stroke="#8F8F8F" stroke-width="1.13724"/>
<path d="M9.66731 7.57956C9.20595 7.11874 8.58492 6.85269 7.93269 6.83642C7.28046 6.82016 6.64691 7.05493 6.16311 7.49218L6.07106 7.57956L4.63276 9.01677C4.16433 9.48551 3.89771 10.1185 3.88972 10.7807C3.88174 11.443 4.13302 12.0822 4.59002 12.5621C5.04701 13.0419 5.67357 13.3246 6.33614 13.3496C6.99871 13.3747 7.64489 13.1403 8.13696 12.6964L8.2285 12.609L9.30773 11.531C9.39895 11.4396 9.45191 11.3169 9.45585 11.1879C9.45979 11.0589 9.41443 10.9332 9.32897 10.8364C9.24351 10.7396 9.12436 10.6789 8.99573 10.6666C8.86709 10.6544 8.73862 10.6915 8.63639 10.7705L8.58859 10.8127L7.50935 11.8907C7.22959 12.1718 6.85121 12.3329 6.45447 12.34C6.05774 12.347 5.67386 12.1994 5.38426 11.9284C5.09467 11.6575 4.92214 11.2845 4.90329 10.8886C4.88443 10.4927 5.02072 10.105 5.28325 9.80777L5.35191 9.73512L6.79021 8.29842C6.93189 8.15687 7.1001 8.04458 7.28523 7.96797C7.47037 7.89136 7.66879 7.85193 7.86918 7.85193C8.06957 7.85193 8.268 7.89136 8.45313 7.96797C8.63826 8.04458 8.80648 8.15687 8.94816 8.29842C9.04359 8.39368 9.173 8.44717 9.30791 8.44712C9.44283 8.44707 9.5722 8.39349 9.66756 8.29817C9.76293 8.20284 9.81648 8.07357 9.81643 7.93881C9.81638 7.80405 9.76274 7.67482 9.66731 7.57956ZM12.904 4.34647C12.4426 3.88565 11.8216 3.6196 11.1694 3.60333C10.5171 3.58707 9.88359 3.82184 9.39979 4.25909L9.30773 4.34647L8.22901 5.42501C8.1378 5.51643 8.08484 5.63911 8.08089 5.76813C8.07695 5.89714 8.12232 6.02282 8.20778 6.11963C8.29324 6.21644 8.41238 6.27713 8.54102 6.28937C8.66965 6.30161 8.79813 6.26448 8.90035 6.18553L8.94816 6.14336L10.0269 5.06584C10.3071 4.78772 10.6844 4.62902 11.0794 4.62313C11.4744 4.61723 11.8563 4.7646 12.1448 5.03423C12.4332 5.30386 12.6057 5.67473 12.626 6.06881C12.6463 6.4629 12.5127 6.84948 12.2535 7.14723L12.1848 7.22038L10.746 8.6576C10.4599 8.94332 10.0719 9.10383 9.66731 9.10383C9.26273 9.10383 8.87471 8.94332 8.58859 8.6576C8.54137 8.61039 8.4853 8.57295 8.42359 8.54739C8.36188 8.52183 8.29574 8.50866 8.22894 8.50864C8.16213 8.50862 8.09598 8.52174 8.03425 8.54725C7.97253 8.57276 7.91644 8.61017 7.86918 8.65734C7.82193 8.70451 7.78444 8.76051 7.75885 8.82215C7.73327 8.88379 7.72009 8.94986 7.72006 9.01659C7.72004 9.08332 7.73317 9.1494 7.75872 9.21106C7.78426 9.27272 7.82171 9.32875 7.86893 9.37595C8.33029 9.83676 8.95131 10.1028 9.60355 10.1191C10.2558 10.1353 10.8893 9.90058 11.3731 9.46333L11.4657 9.37595L12.904 7.93874C13.3807 7.46239 13.6485 6.81641 13.6485 6.14286C13.6485 5.4693 13.3807 4.82281 12.904 4.34647Z" fill="#5E5E5E"/>
</g>
<defs>
<clipPath id="clip0_2_70">
<rect width="16.9645" height="16.9458" fill="white" transform="matrix(-1 0 0 1 17.2578 0.000976562)"/>
</clipPath>
</defs>
</svg>
