<svg width="61" height="34" viewBox="0 0 61 34" fill="none" xmlns="http://www.w3.org/2000/svg">
<path d="M42.2997 12.3274C42.2997 18.8362 37.0173 24.1136 30.5 24.1136C23.9827 24.1136 18.7002 18.8362 18.7002 12.3274C18.7002 5.81856 23.9827 0.541239 30.5 0.541239C37.0173 0.541239 42.2997 5.81856 42.2997 12.3274Z" stroke="#8F8F8F" stroke-width="0.907672"/>
<path d="M4.35909 32.5309H1.64914L1.14994 33.9126H0.294172L2.54057 27.735H3.47657L5.71406 33.9126H4.85829L4.35909 32.5309ZM4.12732 31.8712L3.00412 28.7334L1.88092 31.8712H4.12732ZM7.72716 30.8015C7.72716 30.1953 7.86384 29.6516 8.13721 29.1702C8.41059 28.6829 8.78202 28.3025 9.2515 28.0292C9.72693 27.7558 10.2529 27.6191 10.8293 27.6191C11.5068 27.6191 12.0981 27.7825 12.6033 28.1094C13.1084 28.4363 13.4769 28.8998 13.7086 29.5H12.737C12.5646 29.1256 12.315 28.8374 11.9882 28.6353C11.6673 28.4333 11.281 28.3323 10.8293 28.3323C10.3955 28.3323 10.0062 28.4333 9.66156 28.6353C9.31687 28.8374 9.04647 29.1256 8.85036 29.5C8.65424 29.8685 8.55619 30.3023 8.55619 30.8015C8.55619 31.2948 8.65424 31.7286 8.85036 32.103C9.04647 32.4715 9.31687 32.7567 9.66156 32.9588C10.0062 33.1608 10.3955 33.2619 10.8293 33.2619C11.281 33.2619 11.6673 33.1638 11.9882 32.9677C12.315 32.7656 12.5646 32.4774 12.737 32.103H13.7086C13.4769 32.6973 13.1084 33.1579 12.6033 33.4847C12.0981 33.8056 11.5068 33.9661 10.8293 33.9661C10.2529 33.9661 9.72693 33.8324 9.2515 33.5649C8.78202 33.2916 8.41059 32.9142 8.13721 32.4328C7.86384 31.9515 7.72716 31.4077 7.72716 30.8015ZM17.0645 28.359V30.436H19.3288V31.1046H17.0645V33.244H19.5962V33.9126H16.2533V27.6904H19.5962V28.359H17.0645ZM24.7014 30.8104L26.609 33.9126H25.6908L24.2022 31.4879L22.7848 33.9126H21.8844L23.7832 30.8104L21.8755 27.6993H22.7848L24.2824 30.1329L25.7087 27.6993H26.6179L24.7014 30.8104ZM35.3369 27.7439V33.9126H34.5257V29.3128L32.4755 33.9126H31.9049L29.8457 29.3039V33.9126H29.0345V27.7439H29.9081L32.1902 32.8429L34.4723 27.7439H35.3369ZM38.861 28.359V30.436H41.1252V31.1046H38.861V33.244H41.3927V33.9126H38.0498V27.6904H41.3927V28.359H38.861ZM45.8917 27.6993C46.5692 27.6993 47.1545 27.8271 47.6478 28.0827C48.147 28.3323 48.5273 28.6918 48.7888 29.1613C49.0562 29.6308 49.19 30.1835 49.19 30.8193C49.19 31.4552 49.0562 32.0079 48.7888 32.4774C48.5273 32.9409 48.147 33.2975 47.6478 33.5471C47.1545 33.7908 46.5692 33.9126 45.8917 33.9126H43.9573V27.6993H45.8917ZM45.8917 33.244C46.694 33.244 47.3061 33.0331 47.728 32.6111C48.15 32.1832 48.3609 31.586 48.3609 30.8193C48.3609 30.0468 48.147 29.4436 47.7191 29.0097C47.2972 28.5759 46.688 28.359 45.8917 28.359H44.7685V33.244H45.8917ZM52.4083 27.6993V33.9126H51.5971V27.6993H52.4083ZM58.8007 32.5309H56.0907L55.5915 33.9126H54.7358L56.9822 27.735H57.9182L60.1556 33.9126H59.2999L58.8007 32.5309ZM58.5689 31.8712L57.4457 28.7334L56.3225 31.8712H58.5689Z" fill="#8F8F8F"/>
</svg>
