<svg width="30" height="30" viewBox="0 0 30 30" fill="none" xmlns="http://www.w3.org/2000/svg">
<path d="M8.125 8.84375H21.875" stroke="white" stroke-width="1.71875" stroke-miterlimit="10" stroke-linecap="round" stroke-linejoin="round"/>
<path d="M11.5625 8.84375V7.29688C11.5625 5.39839 13.1015 3.85938 15 3.85938C16.8985 3.85938 18.4375 5.39839 18.4375 7.29688V8.84375" stroke="white" stroke-width="1.71875" stroke-miterlimit="10" stroke-linecap="round" stroke-linejoin="round"/>
<path d="M18.4375 12.2812C18.4375 14.1797 16.8985 15.7188 15 15.7188C13.1015 15.7188 11.5625 14.1797 11.5625 12.2812" stroke="white" stroke-width="1.71875" stroke-miterlimit="10" stroke-linecap="round" stroke-linejoin="round"/>
<path d="M21.875 8.84375L23.5802 22.2048C23.5891 22.2759 23.5938 22.3484 23.5938 22.4219C23.5938 23.3711 22.8242 24.1406 21.875 24.1406H8.125C7.17578 24.1406 6.40625 23.3711 6.40625 22.4219C6.40625 22.3484 6.41085 22.2759 6.41983 22.2048L8.125 8.84375" stroke="white" stroke-width="1.71875" stroke-miterlimit="10" stroke-linecap="round" stroke-linejoin="round"/>
</svg>
