<svg width="110" height="110" viewBox="0 0 110 110" fill="none" xmlns="http://www.w3.org/2000/svg">
<g filter="url(#filter0_d_2_2347)">
<rect x="20" y="10" width="70" height="70" rx="20" fill="url(#paint0_linear_2_2347)"/>
</g>
<path fill-rule="evenodd" clip-rule="evenodd" d="M63.3028 50.3297C63.8067 49.9514 64.4246 49.7565 65.0544 49.7771C65.6841 49.7978 66.2879 50.0329 66.7659 50.4434L70.816 53.8929C71.2367 54.2442 71.5424 54.7137 71.6935 55.2406C71.8445 55.7675 71.834 56.3276 71.6633 56.8485L71.3996 57.6809C71.3159 57.9518 71.1922 58.2087 71.0324 58.4431C67.9385 56.232 65.0663 53.7259 62.4562 50.9602L63.3028 50.3297ZM41.5244 27.8046L42.3571 27.5419C42.6353 27.4541 42.9253 27.4093 43.2171 27.4089C43.617 27.4092 44.0119 27.4972 44.3741 27.6667C44.7363 27.8361 45.0569 28.083 45.3134 28.3898L48.7631 32.4395C49.1736 32.9176 49.4085 33.5215 49.429 34.1513C49.4495 34.781 49.2544 35.3989 48.8759 35.9027L48.2457 36.7492C45.4804 34.1392 42.9745 31.2673 40.7632 28.1738C40.9976 28.0143 41.254 27.8899 41.5244 27.8046ZM39.9186 29.135C37.9369 32.7978 37.1176 35.3417 37.4857 36.6941C37.4892 36.7074 37.492 36.7209 37.4939 36.7345C39.3289 47.5054 51.7008 59.8776 62.4712 61.7113C62.4846 61.7136 62.4981 61.7169 62.5115 61.7206C63.8646 62.0877 66.4084 61.2687 70.0725 59.2874C70.1989 59.2184 70.3207 59.1412 70.4369 59.0562C67.311 56.8125 64.4096 54.2716 61.7732 51.4689L61.3771 51.7636C60.7676 52.2281 60.0248 52.4843 59.2585 52.4941C58.4923 52.504 57.7432 52.2671 57.1219 51.8185C53.1884 49.3439 49.8614 46.017 47.3867 42.0836C46.9381 41.4623 46.7013 40.7132 46.7113 39.9469C46.7212 39.1807 46.9774 38.4379 47.442 37.8285L47.7376 37.4324C44.9343 34.7966 42.3932 31.8953 40.15 28.769C40.0638 28.8849 39.9862 29.0074 39.9186 29.135ZM59.3494 42.6478V41.5516C59.3471 40.9935 59.4551 40.4404 59.6672 39.9242C59.8792 39.4079 60.1911 38.9386 60.585 38.5432C60.9788 38.1478 61.4469 37.834 61.9623 37.6199C62.4777 37.4058 63.0303 37.2956 63.5884 37.2956C64.1465 37.2956 64.6992 37.4058 65.2146 37.6199C65.73 37.834 66.198 38.1478 66.5919 38.5432C66.9857 38.9386 67.2976 39.4079 67.5097 39.9242C67.7217 40.4404 67.8297 40.9935 67.8275 41.5516V42.6477C66.5485 43.4204 65.0827 43.8288 63.5884 43.8288C62.0942 43.8288 60.6283 43.4205 59.3494 42.6478ZM61.3305 33.9812C61.3306 33.5346 61.4631 33.098 61.7112 32.7267C61.9594 32.3553 62.3121 32.0659 62.7248 31.8951C63.1375 31.7242 63.5915 31.6796 64.0296 31.7668C64.4676 31.854 64.8699 32.0691 65.1857 32.385C65.5014 32.7009 65.7164 33.1033 65.8035 33.5413C65.8905 33.9794 65.8457 34.4334 65.6747 34.846C65.5037 35.2586 65.2142 35.6113 64.8428 35.8593C64.4713 36.1073 64.0347 36.2397 63.5881 36.2396C62.9894 36.2388 62.4155 36.0006 61.9923 35.5772C61.5691 35.1539 61.3311 34.5799 61.3305 33.9812ZM68.6731 42.0604V41.5516C68.6719 40.4662 68.324 39.4096 67.6802 38.5357C67.0364 37.6619 66.1302 37.0166 65.0939 36.6939C65.6955 36.3602 66.1692 35.8362 66.4406 35.2041C66.712 34.5721 66.7658 33.8677 66.5935 33.2018C66.4212 32.5358 66.0325 31.946 65.4886 31.5249C64.9447 31.1038 64.2763 30.8753 63.5884 30.8753C62.9005 30.8753 62.2321 31.1038 61.6881 31.5249C61.1442 31.946 60.7556 32.5358 60.5832 33.2018C60.4109 33.8677 60.4647 34.5721 60.7361 35.2041C61.0075 35.8362 61.4812 36.3602 62.0828 36.6939C61.0465 37.0167 60.1404 37.662 59.4965 38.5358C58.8527 39.4096 58.5047 40.4662 58.5033 41.5516V42.0604C57.1633 41.0037 56.1857 39.5558 55.7066 37.9179C55.2275 36.28 55.2705 34.5335 55.8297 32.9212C56.389 31.3089 57.4366 29.9109 58.8271 28.9215C60.2175 27.9321 61.8816 27.4004 63.5882 27.4004C65.2947 27.4004 66.9588 27.9321 68.3493 28.9215C69.7397 29.9109 70.7873 31.3089 71.3466 32.9212C71.9058 34.5335 71.9488 36.28 71.4697 37.9179C70.9906 39.5558 70.0131 41.0037 68.6731 42.0604Z" fill="white"/>
<g clip-path="url(#clip0_2_2347)">
<rect x="55" y="27" width="17" height="17" rx="8.5" fill="white"/>
<circle cx="63.5" cy="34.5" r="2.875" stroke="#408FFA" stroke-width="1.25"/>
<circle cx="63.5" cy="42.5" r="4.875" stroke="#408FFA" stroke-width="1.25"/>
</g>
<defs>
<filter id="filter0_d_2_2347" x="0" y="0" width="110" height="110" filterUnits="userSpaceOnUse" color-interpolation-filters="sRGB">
<feFlood flood-opacity="0" result="BackgroundImageFix"/>
<feColorMatrix in="SourceAlpha" type="matrix" values="0 0 0 0 0 0 0 0 0 0 0 0 0 0 0 0 0 0 127 0" result="hardAlpha"/>
<feMorphology radius="2" operator="erode" in="SourceAlpha" result="effect1_dropShadow_2_2347"/>
<feOffset dy="10"/>
<feGaussianBlur stdDeviation="11"/>
<feComposite in2="hardAlpha" operator="out"/>
<feColorMatrix type="matrix" values="0 0 0 0 0.427451 0 0 0 0 0.670588 0 0 0 0 1 0 0 0 0.36 0"/>
<feBlend mode="normal" in2="BackgroundImageFix" result="effect1_dropShadow_2_2347"/>
<feBlend mode="normal" in="SourceGraphic" in2="effect1_dropShadow_2_2347" result="shape"/>
</filter>
<linearGradient id="paint0_linear_2_2347" x1="20" y1="10" x2="90" y2="80" gradientUnits="userSpaceOnUse">
<stop stop-color="#5CA1FE"/>
<stop offset="1" stop-color="#217BF4"/>
</linearGradient>
<clipPath id="clip0_2_2347">
<rect x="55" y="27" width="17" height="17" rx="8.5" fill="white"/>
</clipPath>
</defs>
</svg>
