<svg width="65" height="13" viewBox="0 0 65 13" fill="none" xmlns="http://www.w3.org/2000/svg">
<g clip-path="url(#clip0_2_284)">
<g clip-path="url(#clip1_2_284)">
<path d="M64.8379 5.15977H60.1863L58.7441 0.650391L57.302 5.15977H52.6504L56.4082 7.94258L54.9863 12.4316L58.7441 9.64883L62.502 12.4316L61.0598 7.92227L64.8379 5.15977Z" fill="#8A8A8A"/>
<path d="M60.8073 5.15977H60.1863L58.7441 0.650391L57.302 5.15977H52.6504L56.4082 7.94258L54.9863 12.4316L58.7441 9.64883L60.8073 11.1804V7.94258V5.15977Z" fill="#FFCE31"/>
</g>
<g clip-path="url(#clip2_2_284)">
<path d="M12.5938 5.11875H7.94219L6.5 0.609375L5.05781 5.11875H0.40625L4.16406 7.90156L2.74219 12.3906L6.5 9.60781L10.2578 12.3906L8.81563 7.88125L12.5938 5.11875Z" fill="#FFCE31"/>
</g>
<g clip-path="url(#clip3_2_284)">
<path d="M25.5938 5.11875H20.9422L19.5 0.609375L18.0578 5.11875H13.4062L17.1641 7.90156L15.7422 12.3906L19.5 9.60781L23.2578 12.3906L21.8156 7.88125L25.5938 5.11875Z" fill="#FFCE31"/>
</g>
<g clip-path="url(#clip4_2_284)">
<path d="M38.5938 5.11875H33.9422L32.5 0.609375L31.0578 5.11875H26.4062L30.1641 7.90156L28.7422 12.3906L32.5 9.60781L36.2578 12.3906L34.8156 7.88125L38.5938 5.11875Z" fill="#FFCE31"/>
</g>
<g clip-path="url(#clip5_2_284)">
<path d="M51.5938 5.11875H46.9422L45.5 0.609375L44.0578 5.11875H39.4062L43.1641 7.90156L41.7422 12.3906L45.5 9.60781L49.2578 12.3906L47.8156 7.88125L51.5938 5.11875Z" fill="#FFCE31"/>
</g>
</g>
<defs>
<clipPath id="clip0_2_284">
<rect width="65" height="13" fill="white"/>
</clipPath>
<clipPath id="clip1_2_284">
<rect width="13" height="13" fill="white" transform="translate(52)"/>
</clipPath>
<clipPath id="clip2_2_284">
<rect width="13" height="13" fill="white"/>
</clipPath>
<clipPath id="clip3_2_284">
<rect width="13" height="13" fill="white" transform="translate(13)"/>
</clipPath>
<clipPath id="clip4_2_284">
<rect width="13" height="13" fill="white" transform="translate(26)"/>
</clipPath>
<clipPath id="clip5_2_284">
<rect width="13" height="13" fill="white" transform="translate(39)"/>
</clipPath>
</defs>
</svg>
