<svg width="12" height="11" viewBox="0 0 12 11" fill="none" xmlns="http://www.w3.org/2000/svg">
<path d="M11.2205 7.39526L8.62938 6.2342L8.62223 6.2309C8.48772 6.17337 8.34098 6.15028 8.1953 6.16372C8.04962 6.17717 7.90959 6.22672 7.78787 6.3079C7.77354 6.31737 7.75977 6.32765 7.74662 6.3387L6.40791 7.47996C5.5598 7.06801 4.68419 6.199 4.27224 5.36189L5.41515 4.00283C5.42615 3.98908 5.4366 3.97533 5.4465 3.96048C5.52594 3.83909 5.57413 3.69995 5.5868 3.55544C5.59947 3.41093 5.57621 3.26552 5.5191 3.13217V3.12557L4.35474 0.530094C4.27925 0.355888 4.14944 0.210769 3.98469 0.116401C3.81994 0.022033 3.62909 -0.0165229 3.44063 0.00648877C2.69536 0.104558 2.01127 0.470566 1.51613 1.03615C1.02099 1.60174 0.748657 2.32822 0.750005 3.07992C0.750005 7.44696 4.30304 11 8.67008 11C9.42178 11.0013 10.1483 10.729 10.7138 10.2339C11.2794 9.73873 11.6454 9.05464 11.7435 8.30937C11.7666 8.12097 11.7281 7.93017 11.6338 7.76543C11.5396 7.60069 11.3946 7.47084 11.2205 7.39526Z" fill="#525252"/>
</svg>
